<?xml version="1.0" encoding="UTF-8" standalone="no"?>
<!DOCTYPE svg PUBLIC "-//W3C//DTD SVG 1.1//EN"
 "http://www.w3.org/Graphics/SVG/1.1/DTD/svg11.dtd">
<!-- Generated by graphviz version 2.38.0 (20140413.2041)
 -->
<!-- Title: semio::ros::HumanoidSinkROS::toROSMsgPtr Pages: 1 -->
<svg width="476pt" height="88pt"
 viewBox="0.00 0.00 476.00 88.00" xmlns="http://www.w3.org/2000/svg" xmlns:xlink="http://www.w3.org/1999/xlink">
<g id="graph0" class="graph" transform="scale(1 1) rotate(0) translate(4 84)">
<title>semio::ros::HumanoidSinkROS::toROSMsgPtr</title>
<!-- Node1 -->
<g id="node1" class="node"><title>Node1</title>
<polygon fill="#bfbfbf" stroke="black" points="0,-24.5 0,-54.5 132,-54.5 132,-24.5 0,-24.5"/>
<text text-anchor="start" x="8" y="-42.5" font-family="Helvetica,sans-Serif" font-size="10.00">semio::ros::HumanoidSink</text>
<text text-anchor="middle" x="66" y="-31.5" font-family="Helvetica,sans-Serif" font-size="10.00">ROS::toROSMsgPtr</text>
</g>
<!-- Node2 -->
<g id="node2" class="node"><title>Node2</title>
<g id="a_node2"><a xlink:href="classsemio_1_1ros_1_1HumanoidSinkROS.html#a24436337d75b5eb21a873b6095256de5" target="_top" xlink:title="Convert humanoids to a ROS message and publish it to ROS. ">
<polygon fill="none" stroke="black" points="168,-49.5 168,-79.5 300,-79.5 300,-49.5 168,-49.5"/>
<text text-anchor="start" x="176" y="-67.5" font-family="Helvetica,sans-Serif" font-size="10.00">semio::ros::HumanoidSink</text>
<text text-anchor="middle" x="234" y="-56.5" font-family="Helvetica,sans-Serif" font-size="10.00">ROS::publishToSink</text>
</a>
</g>
</g>
<!-- Node1&#45;&gt;Node2 -->
<g id="edge1" class="edge"><title>Node1&#45;&gt;Node2</title>
<path fill="none" stroke="midnightblue" d="M142.114,-50.8123C150.681,-52.1025 159.361,-53.4097 167.784,-54.6783"/>
<polygon fill="midnightblue" stroke="midnightblue" points="142.541,-47.3373 132.131,-49.3089 141.498,-54.2592 142.541,-47.3373"/>
</g>
<!-- Node3 -->
<g id="node3" class="node"><title>Node3</title>
<g id="a_node3"><a xlink:href="classsemio_1_1ros_1_1HumanoidSinkROS.html#a4cf7374f94c8a6b33a242291626b2d4d" target="_top" xlink:title="Create a _HumanoidJointMsg from a semio::HumanoidJoint. ">
<polygon fill="none" stroke="black" points="168,-0.5 168,-30.5 300,-30.5 300,-0.5 168,-0.5"/>
<text text-anchor="start" x="176" y="-18.5" font-family="Helvetica,sans-Serif" font-size="10.00">semio::ros::HumanoidSink</text>
<text text-anchor="middle" x="234" y="-7.5" font-family="Helvetica,sans-Serif" font-size="10.00">ROS::toROSMsg</text>
</a>
</g>
</g>
<!-- Node1&#45;&gt;Node3 -->
<g id="edge2" class="edge"><title>Node1&#45;&gt;Node3</title>
<path fill="none" stroke="midnightblue" d="M142.114,-28.6402C150.681,-27.4016 159.361,-26.1466 167.784,-24.9288"/>
<polygon fill="midnightblue" stroke="midnightblue" points="141.527,-25.1885 132.131,-30.0834 142.529,-32.1164 141.527,-25.1885"/>
</g>
<!-- Node4 -->
<g id="node4" class="node"><title>Node4</title>
<g id="a_node4"><a xlink:href="classsemio_1_1ros_1_1HumanoidSinkROS.html#a05dd99c094c6f55a5fe9edddb8efa73c" target="_top" xlink:title="Create a _HumanoidMsg::Ptr from a semio::Humanoid. ">
<polygon fill="none" stroke="black" points="336,-0.5 336,-30.5 468,-30.5 468,-0.5 336,-0.5"/>
<text text-anchor="start" x="344" y="-18.5" font-family="Helvetica,sans-Serif" font-size="10.00">semio::ros::HumanoidSink</text>
<text text-anchor="middle" x="402" y="-7.5" font-family="Helvetica,sans-Serif" font-size="10.00">ROS::toROSMsgPtr</text>
</a>
</g>
</g>
<!-- Node3&#45;&gt;Node4 -->
<g id="edge3" class="edge"><title>Node3&#45;&gt;Node4</title>
<path fill="none" stroke="midnightblue" d="M310.393,-15.5C318.869,-15.5 327.452,-15.5 335.784,-15.5"/>
<polygon fill="midnightblue" stroke="midnightblue" points="310.131,-12.0001 300.131,-15.5 310.131,-19.0001 310.131,-12.0001"/>
</g>
</g>
</svg>
