<?xml version="1.0" encoding="UTF-8" standalone="no"?>
<!DOCTYPE svg PUBLIC "-//W3C//DTD SVG 1.1//EN"
 "http://www.w3.org/Graphics/SVG/1.1/DTD/svg11.dtd">
<!-- Generated by graphviz version 2.38.0 (20140413.2041)
 -->
<!-- Title: semio::ros::HumanoidSinkROS::toROSMsgPtr Pages: 1 -->
<svg width="476pt" height="39pt"
 viewBox="0.00 0.00 476.00 39.00" xmlns="http://www.w3.org/2000/svg" xmlns:xlink="http://www.w3.org/1999/xlink">
<g id="graph0" class="graph" transform="scale(1 1) rotate(0) translate(4 35)">
<title>semio::ros::HumanoidSinkROS::toROSMsgPtr</title>
<!-- Node1 -->
<g id="node1" class="node"><title>Node1</title>
<polygon fill="#bfbfbf" stroke="black" points="0,-0.5 0,-30.5 132,-30.5 132,-0.5 0,-0.5"/>
<text text-anchor="start" x="8" y="-18.5" font-family="Helvetica,sans-Serif" font-size="10.00">semio::ros::HumanoidSink</text>
<text text-anchor="middle" x="66" y="-7.5" font-family="Helvetica,sans-Serif" font-size="10.00">ROS::toROSMsgPtr</text>
</g>
<!-- Node2 -->
<g id="node2" class="node"><title>Node2</title>
<g id="a_node2"><a xlink:href="classsemio_1_1ros_1_1HumanoidSinkROS.html#a4cf7374f94c8a6b33a242291626b2d4d" target="_top" xlink:title="Create a _HumanoidJointMsg from a semio::HumanoidJoint. ">
<polygon fill="none" stroke="black" points="168,-0.5 168,-30.5 300,-30.5 300,-0.5 168,-0.5"/>
<text text-anchor="start" x="176" y="-18.5" font-family="Helvetica,sans-Serif" font-size="10.00">semio::ros::HumanoidSink</text>
<text text-anchor="middle" x="234" y="-7.5" font-family="Helvetica,sans-Serif" font-size="10.00">ROS::toROSMsg</text>
</a>
</g>
</g>
<!-- Node1&#45;&gt;Node2 -->
<g id="edge1" class="edge"><title>Node1&#45;&gt;Node2</title>
<path fill="none" stroke="midnightblue" d="M132.131,-15.5C140.461,-15.5 149.044,-15.5 157.521,-15.5"/>
<polygon fill="midnightblue" stroke="midnightblue" points="157.784,-19.0001 167.784,-15.5 157.784,-12.0001 157.784,-19.0001"/>
</g>
<!-- Node3 -->
<g id="node3" class="node"><title>Node3</title>
<g id="a_node3"><a xlink:href="classsemio_1_1ros_1_1HumanoidSinkROS.html#a67a514383a17e9a42c93ded2f19eed06" target="_top" xlink:title="Create a _HumanoidJointMsg::Ptr from a semio::HumanoidJoint. ">
<polygon fill="none" stroke="black" points="336,-0.5 336,-30.5 468,-30.5 468,-0.5 336,-0.5"/>
<text text-anchor="start" x="344" y="-18.5" font-family="Helvetica,sans-Serif" font-size="10.00">semio::ros::HumanoidSink</text>
<text text-anchor="middle" x="402" y="-7.5" font-family="Helvetica,sans-Serif" font-size="10.00">ROS::toROSMsgPtr</text>
</a>
</g>
</g>
<!-- Node2&#45;&gt;Node3 -->
<g id="edge2" class="edge"><title>Node2&#45;&gt;Node3</title>
<path fill="none" stroke="midnightblue" d="M300.131,-15.5C308.461,-15.5 317.044,-15.5 325.521,-15.5"/>
<polygon fill="midnightblue" stroke="midnightblue" points="325.784,-19.0001 335.784,-15.5 325.784,-12.0001 325.784,-19.0001"/>
</g>
</g>
</svg>
