<?xml version="1.0" encoding="UTF-8" standalone="no"?>
<!DOCTYPE svg PUBLIC "-//W3C//DTD SVG 1.1//EN"
 "http://www.w3.org/Graphics/SVG/1.1/DTD/svg11.dtd">
<!-- Generated by graphviz version 2.38.0 (20140413.2041)
 -->
<!-- Title: semio::ros::HumanoidSourceROS Pages: 1 -->
<svg width="173pt" height="220pt"
 viewBox="0.00 0.00 173.00 220.00" xmlns="http://www.w3.org/2000/svg" xmlns:xlink="http://www.w3.org/1999/xlink">
<g id="graph0" class="graph" transform="scale(1 1) rotate(0) translate(4 216)">
<title>semio::ros::HumanoidSourceROS</title>
<!-- Node1 -->
<g id="node1" class="node"><title>Node1</title>
<polygon fill="#bfbfbf" stroke="black" points="0,-0.5 0,-19.5 165,-19.5 165,-0.5 0,-0.5"/>
<text text-anchor="middle" x="82.5" y="-7.5" font-family="Helvetica,sans-Serif" font-size="10.00">semio::ros::HumanoidSourceROS</text>
</g>
<!-- Node2 -->
<g id="node2" class="node"><title>Node2</title>
<g id="a_node2"><a doxygen="/home/ekaszubski/workspace/semio-ai/libsemio/libsemio.tag:https://semio-ai.github.io/libsemio/" xlink:href="https://semio-ai.github.io/libsemio/classsemio_1_1HumanoidSource.html" target="_top" xlink:title="semio::HumanoidSource">
<polygon fill="none" stroke="black" points="20.5,-57.5 20.5,-76.5 144.5,-76.5 144.5,-57.5 20.5,-57.5"/>
<text text-anchor="middle" x="82.5" y="-64.5" font-family="Helvetica,sans-Serif" font-size="10.00">semio::HumanoidSource</text>
</a>
</g>
</g>
<!-- Node2&#45;&gt;Node1 -->
<g id="edge1" class="edge"><title>Node2&#45;&gt;Node1</title>
<path fill="none" stroke="midnightblue" d="M82.5,-47.1166C82.5,-37.8173 82.5,-27.0557 82.5,-19.7149"/>
<polygon fill="midnightblue" stroke="midnightblue" points="79.0001,-47.4062 82.5,-57.4062 86.0001,-47.4063 79.0001,-47.4062"/>
</g>
<!-- Node3 -->
<g id="node3" class="node"><title>Node3</title>
<g id="a_node3"><a doxygen="/home/ekaszubski/workspace/semio-ai/libsemio/libsemio.tag:https://semio-ai.github.io/libsemio/" xlink:href="https://semio-ai.github.io/libsemio/classsemio_1_1HumanoidMultiStageFilter.html" target="_top" xlink:title="semio::HumanoidMultiStage\lFilter">
<polygon fill="none" stroke="black" points="12.5,-124.5 12.5,-154.5 152.5,-154.5 152.5,-124.5 12.5,-124.5"/>
<text text-anchor="start" x="20.5" y="-142.5" font-family="Helvetica,sans-Serif" font-size="10.00">semio::HumanoidMultiStage</text>
<text text-anchor="middle" x="82.5" y="-131.5" font-family="Helvetica,sans-Serif" font-size="10.00">Filter</text>
</a>
</g>
</g>
<!-- Node3&#45;&gt;Node2 -->
<g id="edge2" class="edge"><title>Node3&#45;&gt;Node2</title>
<path fill="none" stroke="#9a32cd" stroke-dasharray="5,2" d="M82.5,-114.091C82.5,-101.214 82.5,-86.1974 82.5,-76.8932"/>
<polygon fill="#9a32cd" stroke="#9a32cd" points="79.0001,-114.233 82.5,-124.233 86.0001,-114.233 79.0001,-114.233"/>
<text text-anchor="middle" x="96.5" y="-98" font-family="Helvetica,sans-Serif" font-size="10.00"> _filter</text>
</g>
<!-- Node4 -->
<g id="node4" class="node"><title>Node4</title>
<g id="a_node4"><a doxygen="/home/ekaszubski/workspace/semio-ai/libsemio/libsemio.tag:https://semio-ai.github.io/libsemio/" xlink:href="https://semio-ai.github.io/libsemio/classsemio_1_1HumanoidFilter.html" target="_top" xlink:title="semio::HumanoidFilter">
<polygon fill="none" stroke="black" points="25,-192.5 25,-211.5 140,-211.5 140,-192.5 25,-192.5"/>
<text text-anchor="middle" x="82.5" y="-199.5" font-family="Helvetica,sans-Serif" font-size="10.00">semio::HumanoidFilter</text>
</a>
</g>
</g>
<!-- Node4&#45;&gt;Node3 -->
<g id="edge3" class="edge"><title>Node4&#45;&gt;Node3</title>
<path fill="none" stroke="midnightblue" d="M82.5,-182.215C82.5,-173.356 82.5,-162.958 82.5,-154.759"/>
<polygon fill="midnightblue" stroke="midnightblue" points="79.0001,-182.332 82.5,-192.332 86.0001,-182.332 79.0001,-182.332"/>
</g>
</g>
</svg>
