<?xml version="1.0" encoding="UTF-8" standalone="no"?>
<!DOCTYPE svg PUBLIC "-//W3C//DTD SVG 1.1//EN"
 "http://www.w3.org/Graphics/SVG/1.1/DTD/svg11.dtd">
<!-- Generated by graphviz version 2.38.0 (20140413.2041)
 -->
<!-- Title: SemioAttentionNode::spin Pages: 1 -->
<svg width="288pt" height="127pt"
 viewBox="0.00 0.00 288.00 126.50" xmlns="http://www.w3.org/2000/svg" xmlns:xlink="http://www.w3.org/1999/xlink">
<g id="graph0" class="graph" transform="scale(1 1) rotate(0) translate(4 122.5)">
<title>SemioAttentionNode::spin</title>
<!-- Node1 -->
<g id="node1" class="node"><title>Node1</title>
<polygon fill="#bfbfbf" stroke="black" points="0,-39 0,-69 107,-69 107,-39 0,-39"/>
<text text-anchor="start" x="8" y="-57" font-family="Helvetica,sans-Serif" font-size="10.00">SemioAttentionNode</text>
<text text-anchor="middle" x="53.5" y="-46" font-family="Helvetica,sans-Serif" font-size="10.00">::spin</text>
</g>
<!-- Node2 -->
<g id="node2" class="node"><title>Node2</title>
<g id="a_node2"><a doxygen="/home/ekaszubski/workspace/semio-ai/libsemio/libsemio.tag:https://semio-ai.github.io/libsemio/" xlink:href="https://semio-ai.github.io/libsemio/classsemio_1_1AttentionRecognizer.html#a5004e9301e1270966ad54b57a797e2d1" target="_top" xlink:title="semio::AttentionRecognizer\l::calculateResult">
<polygon fill="none" stroke="black" points="143,-88 143,-118 280,-118 280,-88 143,-88"/>
<text text-anchor="start" x="151" y="-106" font-family="Helvetica,sans-Serif" font-size="10.00">semio::AttentionRecognizer</text>
<text text-anchor="middle" x="211.5" y="-95" font-family="Helvetica,sans-Serif" font-size="10.00">::calculateResult</text>
</a>
</g>
</g>
<!-- Node1&#45;&gt;Node2 -->
<g id="edge1" class="edge"><title>Node1&#45;&gt;Node2</title>
<path fill="none" stroke="midnightblue" d="M102.578,-69.1014C118.518,-74.1083 136.424,-79.7324 153,-84.939"/>
<polygon fill="midnightblue" stroke="midnightblue" points="151.991,-88.2908 162.581,-87.9484 154.089,-81.6125 151.991,-88.2908"/>
</g>
<!-- Node3 -->
<g id="node3" class="node"><title>Node3</title>
<g id="a_node3"><a doxygen="/home/ekaszubski/workspace/semio-ai/libsemio/libsemio.tag:https://semio-ai.github.io/libsemio/" xlink:href="https://semio-ai.github.io/libsemio/classsemio_1_1AttentionRecognizer.html#ab3985a6989546cfe636be16bea921dc2" target="_top" xlink:title="semio::AttentionRecognizer\l::getHumanoids">
<polygon fill="none" stroke="black" points="143,-39 143,-69 280,-69 280,-39 143,-39"/>
<text text-anchor="start" x="151" y="-57" font-family="Helvetica,sans-Serif" font-size="10.00">semio::AttentionRecognizer</text>
<text text-anchor="middle" x="211.5" y="-46" font-family="Helvetica,sans-Serif" font-size="10.00">::getHumanoids</text>
</a>
</g>
</g>
<!-- Node1&#45;&gt;Node3 -->
<g id="edge2" class="edge"><title>Node1&#45;&gt;Node3</title>
<path fill="none" stroke="midnightblue" d="M107.314,-54C115.51,-54 124.121,-54 132.729,-54"/>
<polygon fill="midnightblue" stroke="midnightblue" points="132.806,-57.5001 142.806,-54 132.806,-50.5001 132.806,-57.5001"/>
</g>
<!-- Node4 -->
<g id="node4" class="node"><title>Node4</title>
<g id="a_node4"><a doxygen="/home/ekaszubski/workspace/semio-ai/libsemio/libsemio.tag:https://semio-ai.github.io/libsemio/" xlink:href="https://semio-ai.github.io/libsemio/classsemio_1_1TopNList.html#aca9788649257372b4e0f277858e02a9e" target="_top" xlink:title="semio::TopNList::values">
<polygon fill="none" stroke="black" points="150,-0.5 150,-19.5 273,-19.5 273,-0.5 150,-0.5"/>
<text text-anchor="middle" x="211.5" y="-7.5" font-family="Helvetica,sans-Serif" font-size="10.00">semio::TopNList::values</text>
</a>
</g>
</g>
<!-- Node1&#45;&gt;Node4 -->
<g id="edge3" class="edge"><title>Node1&#45;&gt;Node4</title>
<path fill="none" stroke="midnightblue" d="M107.314,-39.1036C126.556,-33.6764 148.089,-27.6031 166.486,-22.4142"/>
<polygon fill="midnightblue" stroke="midnightblue" points="167.675,-25.7154 176.35,-19.6322 165.775,-18.9783 167.675,-25.7154"/>
</g>
</g>
</svg>
