<?xml version="1.0" encoding="UTF-8" standalone="no"?>
<!DOCTYPE svg PUBLIC "-//W3C//DTD SVG 1.1//EN"
 "http://www.w3.org/Graphics/SVG/1.1/DTD/svg11.dtd">
<!-- Generated by graphviz version 2.38.0 (20140413.2041)
 -->
<!-- Title: SemioDeixisNode::SemioDeixisNode Pages: 1 -->
<svg width="353pt" height="88pt"
 viewBox="0.00 0.00 353.00 88.00" xmlns="http://www.w3.org/2000/svg" xmlns:xlink="http://www.w3.org/1999/xlink">
<g id="graph0" class="graph" transform="scale(1 1) rotate(0) translate(4 84)">
<title>SemioDeixisNode::SemioDeixisNode</title>
<!-- Node1 -->
<g id="node1" class="node"><title>Node1</title>
<polygon fill="#bfbfbf" stroke="black" points="0,-30 0,-49 180,-49 180,-30 0,-30"/>
<text text-anchor="middle" x="90" y="-37" font-family="Helvetica,sans-Serif" font-size="10.00">SemioDeixisNode::SemioDeixisNode</text>
</g>
<!-- Node2 -->
<g id="node2" class="node"><title>Node2</title>
<g id="a_node2"><a doxygen="/home/ekaszubski/workspace/semio-ai/libsemio/libsemio.tag:https://semio-ai.github.io/libsemio/" xlink:href="https://semio-ai.github.io/libsemio/classsemio_1_1DeicticRecognizer.html#aa6d550fb5e4f1b98b8f13722fce5baa6" target="_top" xlink:title="semio::DeicticRecognizer\l::setFilterMaxDuration">
<polygon fill="none" stroke="black" points="216,-49.5 216,-79.5 345,-79.5 345,-49.5 216,-49.5"/>
<text text-anchor="start" x="224" y="-67.5" font-family="Helvetica,sans-Serif" font-size="10.00">semio::DeicticRecognizer</text>
<text text-anchor="middle" x="280.5" y="-56.5" font-family="Helvetica,sans-Serif" font-size="10.00">::setFilterMaxDuration</text>
</a>
</g>
</g>
<!-- Node1&#45;&gt;Node2 -->
<g id="edge1" class="edge"><title>Node1&#45;&gt;Node2</title>
<path fill="none" stroke="midnightblue" d="M162.802,-49.0227C176.867,-50.8882 191.64,-52.8475 205.767,-54.7212"/>
<polygon fill="midnightblue" stroke="midnightblue" points="205.547,-58.2225 215.921,-56.0677 206.468,-51.2833 205.547,-58.2225"/>
</g>
<!-- Node3 -->
<g id="node3" class="node"><title>Node3</title>
<g id="a_node3"><a doxygen="/home/ekaszubski/workspace/semio-ai/libsemio/libsemio.tag:https://semio-ai.github.io/libsemio/" xlink:href="https://semio-ai.github.io/libsemio/classsemio_1_1DeicticRecognizer.html#a0b5ea0fa05e7c15b7400ec177e2c794d" target="_top" xlink:title="semio::DeicticRecognizer\l::setFilterMaxSize">
<polygon fill="none" stroke="black" points="216,-0.5 216,-30.5 345,-30.5 345,-0.5 216,-0.5"/>
<text text-anchor="start" x="224" y="-18.5" font-family="Helvetica,sans-Serif" font-size="10.00">semio::DeicticRecognizer</text>
<text text-anchor="middle" x="280.5" y="-7.5" font-family="Helvetica,sans-Serif" font-size="10.00">::setFilterMaxSize</text>
</a>
</g>
</g>
<!-- Node1&#45;&gt;Node3 -->
<g id="edge2" class="edge"><title>Node1&#45;&gt;Node3</title>
<path fill="none" stroke="midnightblue" d="M165.771,-29.9801C178.958,-28.301 192.678,-26.5543 205.835,-24.8791"/>
<polygon fill="midnightblue" stroke="midnightblue" points="206.29,-28.3495 215.768,-23.6144 205.406,-21.4055 206.29,-28.3495"/>
</g>
</g>
</svg>
