<?xml version="1.0" encoding="UTF-8" standalone="no"?>
<!DOCTYPE svg PUBLIC "-//W3C//DTD SVG 1.1//EN"
 "http://www.w3.org/Graphics/SVG/1.1/DTD/svg11.dtd">
<!-- Generated by graphviz version 2.38.0 (20140413.2041)
 -->
<!-- Title: semio::ros::HumanoidSinkROS Pages: 1 -->
<svg width="162pt" height="220pt"
 viewBox="0.00 0.00 162.00 220.00" xmlns="http://www.w3.org/2000/svg" xmlns:xlink="http://www.w3.org/1999/xlink">
<g id="graph0" class="graph" transform="scale(1 1) rotate(0) translate(4 216)">
<title>semio::ros::HumanoidSinkROS</title>
<!-- Node1 -->
<g id="node1" class="node"><title>Node1</title>
<polygon fill="#bfbfbf" stroke="black" points="0,-0.5 0,-19.5 154,-19.5 154,-0.5 0,-0.5"/>
<text text-anchor="middle" x="77" y="-7.5" font-family="Helvetica,sans-Serif" font-size="10.00">semio::ros::HumanoidSinkROS</text>
</g>
<!-- Node2 -->
<g id="node2" class="node"><title>Node2</title>
<g id="a_node2"><a doxygen="/home/ekaszubski/workspace/semio-ai/libsemio/libsemio.tag:https://semio-ai.github.io/libsemio/" xlink:href="https://semio-ai.github.io/libsemio/classsemio_1_1HumanoidSink.html" target="_top" xlink:title="semio::HumanoidSink">
<polygon fill="none" stroke="black" points="20.5,-57.5 20.5,-76.5 133.5,-76.5 133.5,-57.5 20.5,-57.5"/>
<text text-anchor="middle" x="77" y="-64.5" font-family="Helvetica,sans-Serif" font-size="10.00">semio::HumanoidSink</text>
</a>
</g>
</g>
<!-- Node2&#45;&gt;Node1 -->
<g id="edge1" class="edge"><title>Node2&#45;&gt;Node1</title>
<path fill="none" stroke="midnightblue" d="M77,-47.1166C77,-37.8173 77,-27.0557 77,-19.7149"/>
<polygon fill="midnightblue" stroke="midnightblue" points="73.5001,-47.4062 77,-57.4062 80.5001,-47.4063 73.5001,-47.4062"/>
</g>
<!-- Node3 -->
<g id="node3" class="node"><title>Node3</title>
<g id="a_node3"><a doxygen="/home/ekaszubski/workspace/semio-ai/libsemio/libsemio.tag:https://semio-ai.github.io/libsemio/" xlink:href="https://semio-ai.github.io/libsemio/classsemio_1_1HumanoidMultiStageFilter.html" target="_top" xlink:title="semio::HumanoidMultiStage\lFilter">
<polygon fill="none" stroke="black" points="7,-124.5 7,-154.5 147,-154.5 147,-124.5 7,-124.5"/>
<text text-anchor="start" x="15" y="-142.5" font-family="Helvetica,sans-Serif" font-size="10.00">semio::HumanoidMultiStage</text>
<text text-anchor="middle" x="77" y="-131.5" font-family="Helvetica,sans-Serif" font-size="10.00">Filter</text>
</a>
</g>
</g>
<!-- Node3&#45;&gt;Node2 -->
<g id="edge2" class="edge"><title>Node3&#45;&gt;Node2</title>
<path fill="none" stroke="#9a32cd" stroke-dasharray="5,2" d="M77,-114.091C77,-101.214 77,-86.1974 77,-76.8932"/>
<polygon fill="#9a32cd" stroke="#9a32cd" points="73.5001,-114.233 77,-124.233 80.5001,-114.233 73.5001,-114.233"/>
<text text-anchor="middle" x="91" y="-98" font-family="Helvetica,sans-Serif" font-size="10.00"> _filter</text>
</g>
<!-- Node4 -->
<g id="node4" class="node"><title>Node4</title>
<g id="a_node4"><a doxygen="/home/ekaszubski/workspace/semio-ai/libsemio/libsemio.tag:https://semio-ai.github.io/libsemio/" xlink:href="https://semio-ai.github.io/libsemio/classsemio_1_1HumanoidFilter.html" target="_top" xlink:title="semio::HumanoidFilter">
<polygon fill="none" stroke="black" points="19.5,-192.5 19.5,-211.5 134.5,-211.5 134.5,-192.5 19.5,-192.5"/>
<text text-anchor="middle" x="77" y="-199.5" font-family="Helvetica,sans-Serif" font-size="10.00">semio::HumanoidFilter</text>
</a>
</g>
</g>
<!-- Node4&#45;&gt;Node3 -->
<g id="edge3" class="edge"><title>Node4&#45;&gt;Node3</title>
<path fill="none" stroke="midnightblue" d="M77,-182.215C77,-173.356 77,-162.958 77,-154.759"/>
<polygon fill="midnightblue" stroke="midnightblue" points="73.5001,-182.332 77,-192.332 80.5001,-182.332 73.5001,-182.332"/>
</g>
</g>
</svg>
