<?xml version="1.0" encoding="UTF-8" standalone="no"?>
<!DOCTYPE svg PUBLIC "-//W3C//DTD SVG 1.1//EN"
 "http://www.w3.org/Graphics/SVG/1.1/DTD/svg11.dtd">
<!-- Generated by graphviz version 2.38.0 (20140413.2041)
 -->
<!-- Title: SemioDeixisNode::spin Pages: 1 -->
<svg width="292pt" height="127pt"
 viewBox="0.00 0.00 292.00 126.50" xmlns="http://www.w3.org/2000/svg" xmlns:xlink="http://www.w3.org/1999/xlink">
<g id="graph0" class="graph" transform="scale(1 1) rotate(0) translate(4 122.5)">
<title>SemioDeixisNode::spin</title>
<!-- Node1 -->
<g id="node1" class="node"><title>Node1</title>
<polygon fill="#bfbfbf" stroke="black" points="0,-44.5 0,-63.5 119,-63.5 119,-44.5 0,-44.5"/>
<text text-anchor="middle" x="59.5" y="-51.5" font-family="Helvetica,sans-Serif" font-size="10.00">SemioDeixisNode::spin</text>
</g>
<!-- Node2 -->
<g id="node2" class="node"><title>Node2</title>
<g id="a_node2"><a doxygen="/home/ekaszubski/workspace/semio-ai/libsemio/libsemio.tag:https://semio-ai.github.io/libsemio/" xlink:href="https://semio-ai.github.io/libsemio/classsemio_1_1DeicticRecognizer.html#ac5352ff2c4773f0c7b335a81dbe08b6a" target="_top" xlink:title="semio::DeicticRecognizer\l::calculateResult">
<polygon fill="none" stroke="black" points="155,-88 155,-118 284,-118 284,-88 155,-88"/>
<text text-anchor="start" x="163" y="-106" font-family="Helvetica,sans-Serif" font-size="10.00">semio::DeicticRecognizer</text>
<text text-anchor="middle" x="219.5" y="-95" font-family="Helvetica,sans-Serif" font-size="10.00">::calculateResult</text>
</a>
</g>
</g>
<!-- Node1&#45;&gt;Node2 -->
<g id="edge1" class="edge"><title>Node1&#45;&gt;Node2</title>
<path fill="none" stroke="midnightblue" d="M91.3391,-63.564C110.906,-69.6321 136.846,-77.677 160.193,-84.9174"/>
<polygon fill="midnightblue" stroke="midnightblue" points="159.425,-88.3438 170.013,-87.963 161.499,-81.6579 159.425,-88.3438"/>
</g>
<!-- Node3 -->
<g id="node3" class="node"><title>Node3</title>
<g id="a_node3"><a doxygen="/home/ekaszubski/workspace/semio-ai/libsemio/libsemio.tag:https://semio-ai.github.io/libsemio/" xlink:href="https://semio-ai.github.io/libsemio/classsemio_1_1DeicticRecognizer.html#a9d19db46cf5142fb08c35eb87319b4d1" target="_top" xlink:title="semio::DeicticRecognizer\l::getHumanoids">
<polygon fill="none" stroke="black" points="155,-39 155,-69 284,-69 284,-39 155,-39"/>
<text text-anchor="start" x="163" y="-57" font-family="Helvetica,sans-Serif" font-size="10.00">semio::DeicticRecognizer</text>
<text text-anchor="middle" x="219.5" y="-46" font-family="Helvetica,sans-Serif" font-size="10.00">::getHumanoids</text>
</a>
</g>
</g>
<!-- Node1&#45;&gt;Node3 -->
<g id="edge2" class="edge"><title>Node1&#45;&gt;Node3</title>
<path fill="none" stroke="midnightblue" d="M119.333,-54C127.567,-54 136.114,-54 144.582,-54"/>
<polygon fill="midnightblue" stroke="midnightblue" points="144.847,-57.5001 154.847,-54 144.847,-50.5001 144.847,-57.5001"/>
</g>
<!-- Node4 -->
<g id="node4" class="node"><title>Node4</title>
<g id="a_node4"><a doxygen="/home/ekaszubski/workspace/semio-ai/libsemio/libsemio.tag:https://semio-ai.github.io/libsemio/" xlink:href="https://semio-ai.github.io/libsemio/classsemio_1_1TopNList.html#aca9788649257372b4e0f277858e02a9e" target="_top" xlink:title="semio::TopNList::values">
<polygon fill="none" stroke="black" points="158,-0.5 158,-19.5 281,-19.5 281,-0.5 158,-0.5"/>
<text text-anchor="middle" x="219.5" y="-7.5" font-family="Helvetica,sans-Serif" font-size="10.00">semio::TopNList::values</text>
</a>
</g>
</g>
<!-- Node1&#45;&gt;Node4 -->
<g id="edge3" class="edge"><title>Node1&#45;&gt;Node4</title>
<path fill="none" stroke="midnightblue" d="M94.7836,-44.4527C118.18,-37.9373 149.378,-29.2492 174.591,-22.2278"/>
<polygon fill="midnightblue" stroke="midnightblue" points="175.589,-25.5832 184.283,-19.5287 173.711,-18.8398 175.589,-25.5832"/>
</g>
</g>
</svg>
