<?xml version="1.0" encoding="UTF-8" standalone="no"?>
<!DOCTYPE svg PUBLIC "-//W3C//DTD SVG 1.1//EN"
 "http://www.w3.org/Graphics/SVG/1.1/DTD/svg11.dtd">
<!-- Generated by graphviz version 2.38.0 (20140413.2041)
 -->
<!-- Title: semio::ros::HumanoidSinkAdapter::getHumanoidSink Pages: 1 -->
<svg width="319pt" height="88pt"
 viewBox="0.00 0.00 319.00 88.00" xmlns="http://www.w3.org/2000/svg" xmlns:xlink="http://www.w3.org/1999/xlink">
<g id="graph0" class="graph" transform="scale(1 1) rotate(0) translate(4 84)">
<title>semio::ros::HumanoidSinkAdapter::getHumanoidSink</title>
<!-- Node1 -->
<g id="node1" class="node"><title>Node1</title>
<polygon fill="#bfbfbf" stroke="black" points="0,-24.5 0,-54.5 134,-54.5 134,-24.5 0,-24.5"/>
<text text-anchor="start" x="8" y="-42.5" font-family="Helvetica,sans-Serif" font-size="10.00">semio::ros::HumanoidSink</text>
<text text-anchor="middle" x="67" y="-31.5" font-family="Helvetica,sans-Serif" font-size="10.00">Adapter::getHumanoidSink</text>
</g>
<!-- Node2 -->
<g id="node2" class="node"><title>Node2</title>
<g id="a_node2"><a doxygen="/home/ekaszubski/workspace/semio-ai/libsemio/libsemio.tag:https://semio-ai.github.io/libsemio/" xlink:href="https://semio-ai.github.io/libsemio/classsemio_1_1HumanoidSmoothingFilter.html#a6f3a3e5415f0220fe882e1f7b50ad074" target="_top" xlink:title="semio::HumanoidSmoothing\lFilter::getSmoothing">
<polygon fill="none" stroke="black" points="170.5,-49.5 170.5,-79.5 310.5,-79.5 310.5,-49.5 170.5,-49.5"/>
<text text-anchor="start" x="178.5" y="-67.5" font-family="Helvetica,sans-Serif" font-size="10.00">semio::HumanoidSmoothing</text>
<text text-anchor="middle" x="240.5" y="-56.5" font-family="Helvetica,sans-Serif" font-size="10.00">Filter::getSmoothing</text>
</a>
</g>
</g>
<!-- Node1&#45;&gt;Node2 -->
<g id="edge1" class="edge"><title>Node1&#45;&gt;Node2</title>
<path fill="none" stroke="midnightblue" d="M134.306,-49.1657C142.775,-50.4001 151.51,-51.6735 160.159,-52.9342"/>
<polygon fill="midnightblue" stroke="midnightblue" points="159.849,-56.426 170.249,-54.4052 160.859,-49.4992 159.849,-56.426"/>
</g>
<!-- Node3 -->
<g id="node3" class="node"><title>Node3</title>
<g id="a_node3"><a doxygen="/home/ekaszubski/workspace/semio-ai/libsemio/libsemio.tag:https://semio-ai.github.io/libsemio/" xlink:href="https://semio-ai.github.io/libsemio/classsemio_1_1HumanoidStateFilter.html#a3616b8bd0fb4f86c01e89c670bd91601" target="_top" xlink:title="semio::HumanoidStateFilter\l::getStandardFilterHumanoid">
<polygon fill="none" stroke="black" points="170,-0.5 170,-30.5 311,-30.5 311,-0.5 170,-0.5"/>
<text text-anchor="start" x="178" y="-18.5" font-family="Helvetica,sans-Serif" font-size="10.00">semio::HumanoidStateFilter</text>
<text text-anchor="middle" x="240.5" y="-7.5" font-family="Helvetica,sans-Serif" font-size="10.00">::getStandardFilterHumanoid</text>
</a>
</g>
</g>
<!-- Node1&#45;&gt;Node3 -->
<g id="edge2" class="edge"><title>Node1&#45;&gt;Node3</title>
<path fill="none" stroke="midnightblue" d="M134.306,-30.221C142.707,-29.0454 151.371,-27.833 159.951,-26.6322"/>
<polygon fill="midnightblue" stroke="midnightblue" points="160.546,-30.0831 169.965,-25.2309 159.576,-23.1507 160.546,-30.0831"/>
</g>
</g>
</svg>
