<?xml version="1.0" encoding="UTF-8" standalone="no"?>
<!DOCTYPE svg PUBLIC "-//W3C//DTD SVG 1.1//EN"
 "http://www.w3.org/Graphics/SVG/1.1/DTD/svg11.dtd">
<!-- Generated by graphviz version 2.38.0 (20140413.2041)
 -->
<!-- Title: semio::ros::HumanoidSourceROS::fromROSMsg Pages: 1 -->
<svg width="330pt" height="88pt"
 viewBox="0.00 0.00 330.00 88.00" xmlns="http://www.w3.org/2000/svg" xmlns:xlink="http://www.w3.org/1999/xlink">
<g id="graph0" class="graph" transform="scale(1 1) rotate(0) translate(4 84)">
<title>semio::ros::HumanoidSourceROS::fromROSMsg</title>
<!-- Node1 -->
<g id="node1" class="node"><title>Node1</title>
<polygon fill="#bfbfbf" stroke="black" points="0,-24.5 0,-54.5 143,-54.5 143,-24.5 0,-24.5"/>
<text text-anchor="start" x="8" y="-42.5" font-family="Helvetica,sans-Serif" font-size="10.00">semio::ros::HumanoidSource</text>
<text text-anchor="middle" x="71.5" y="-31.5" font-family="Helvetica,sans-Serif" font-size="10.00">ROS::fromROSMsg</text>
</g>
<!-- Node2 -->
<g id="node2" class="node"><title>Node2</title>
<g id="a_node2"><a xlink:href="classsemio_1_1ros_1_1HumanoidSourceROS.html#ab9d36bf211a456f9d61739c0ad7f14c5" target="_top" xlink:title="Create a semio::Humanoid from a humanoid message. ">
<polygon fill="none" stroke="black" points="179,-49.5 179,-79.5 322,-79.5 322,-49.5 179,-49.5"/>
<text text-anchor="start" x="187" y="-67.5" font-family="Helvetica,sans-Serif" font-size="10.00">semio::ros::HumanoidSource</text>
<text text-anchor="middle" x="250.5" y="-56.5" font-family="Helvetica,sans-Serif" font-size="10.00">ROS::fromROSMsg</text>
</a>
</g>
</g>
<!-- Node1&#45;&gt;Node2 -->
<g id="edge1" class="edge"><title>Node1&#45;&gt;Node2</title>
<path fill="none" stroke="midnightblue" d="M153.214,-50.9003C161.784,-52.1108 170.453,-53.3351 178.894,-54.5274"/>
<polygon fill="midnightblue" stroke="midnightblue" points="153.609,-47.4215 143.218,-49.4884 152.63,-54.3527 153.609,-47.4215"/>
</g>
<!-- Node3 -->
<g id="node3" class="node"><title>Node3</title>
<g id="a_node3"><a xlink:href="classsemio_1_1ros_1_1HumanoidSourceROS.html#a83fb8d39e5005f57128081cc774390de" target="_top" xlink:title="Convert _last_humanoids_msg to a semio::HumanoidArray. ">
<polygon fill="none" stroke="black" points="179,-0.5 179,-30.5 322,-30.5 322,-0.5 179,-0.5"/>
<text text-anchor="start" x="187" y="-18.5" font-family="Helvetica,sans-Serif" font-size="10.00">semio::ros::HumanoidSource</text>
<text text-anchor="middle" x="250.5" y="-7.5" font-family="Helvetica,sans-Serif" font-size="10.00">ROS::updateFromSource</text>
</a>
</g>
</g>
<!-- Node1&#45;&gt;Node3 -->
<g id="edge2" class="edge"><title>Node1&#45;&gt;Node3</title>
<path fill="none" stroke="midnightblue" d="M153.214,-28.5557C161.784,-27.3936 170.453,-26.2183 178.894,-25.0737"/>
<polygon fill="midnightblue" stroke="midnightblue" points="152.657,-25.0991 143.218,-29.9111 153.598,-32.0356 152.657,-25.0991"/>
</g>
</g>
</svg>
