<?xml version="1.0" encoding="UTF-8" standalone="no"?>
<!DOCTYPE svg PUBLIC "-//W3C//DTD SVG 1.1//EN"
 "http://www.w3.org/Graphics/SVG/1.1/DTD/svg11.dtd">
<!-- Generated by graphviz version 2.38.0 (20140413.2041)
 -->
<!-- Title: main Pages: 1 -->
<svg width="409pt" height="137pt"
 viewBox="0.00 0.00 409.00 137.00" xmlns="http://www.w3.org/2000/svg" xmlns:xlink="http://www.w3.org/1999/xlink">
<g id="graph0" class="graph" transform="scale(1 1) rotate(0) translate(4 133)">
<title>main</title>
<!-- Node1 -->
<g id="node1" class="node"><title>Node1</title>
<polygon fill="#bfbfbf" stroke="black" points="0,-55 0,-74 38,-74 38,-55 0,-55"/>
<text text-anchor="middle" x="19" y="-62" font-family="Helvetica,sans-Serif" font-size="10.00">main</text>
</g>
<!-- Node2 -->
<g id="node2" class="node"><title>Node2</title>
<g id="a_node2"><a xlink:href="classsemio_1_1ros_1_1HumanoidSinkAdapter.html#a7d8570b194859722b8685bca5dc95f90" target="_top" xlink:title="Create a semio::HumanoidSink. ">
<polygon fill="none" stroke="black" points="82,-49.5 82,-79.5 216,-79.5 216,-49.5 82,-49.5"/>
<text text-anchor="start" x="90" y="-67.5" font-family="Helvetica,sans-Serif" font-size="10.00">semio::ros::HumanoidSink</text>
<text text-anchor="middle" x="149" y="-56.5" font-family="Helvetica,sans-Serif" font-size="10.00">Adapter::getHumanoidSink</text>
</a>
</g>
</g>
<!-- Node1&#45;&gt;Node2 -->
<g id="edge1" class="edge"><title>Node1&#45;&gt;Node2</title>
<path fill="none" stroke="midnightblue" d="M38.0678,-64.5C47.2574,-64.5 59.1174,-64.5 71.6334,-64.5"/>
<polygon fill="midnightblue" stroke="midnightblue" points="71.7731,-68.0001 81.7731,-64.5 71.7731,-61.0001 71.7731,-68.0001"/>
</g>
<!-- Node5 -->
<g id="node5" class="node"><title>Node5</title>
<g id="a_node5"><a xlink:href="classsemio_1_1ros_1_1HumanoidSourceAdapter.html#ab5e3c73791284d9d685e62303b1108e0" target="_top" xlink:title="Create a semio::HumanoidSource. ">
<polygon fill="none" stroke="black" points="76.5,-98.5 76.5,-128.5 221.5,-128.5 221.5,-98.5 76.5,-98.5"/>
<text text-anchor="start" x="84.5" y="-116.5" font-family="Helvetica,sans-Serif" font-size="10.00">semio::ros::HumanoidSource</text>
<text text-anchor="middle" x="149" y="-105.5" font-family="Helvetica,sans-Serif" font-size="10.00">Adapter::getHumanoidSource</text>
</a>
</g>
</g>
<!-- Node1&#45;&gt;Node5 -->
<g id="edge4" class="edge"><title>Node1&#45;&gt;Node5</title>
<path fill="none" stroke="midnightblue" d="M38.2572,-73.6176C48.6101,-78.6187 61.8809,-84.7492 74,-89.5 78.8274,-91.3924 83.8711,-93.2569 88.9577,-95.0594"/>
<polygon fill="midnightblue" stroke="midnightblue" points="88.152,-98.484 98.7467,-98.4403 90.4372,-91.8675 88.152,-98.484"/>
</g>
<!-- Node6 -->
<g id="node6" class="node"><title>Node6</title>
<g id="a_node6"><a xlink:href="classExampleAttentionTargetsNode.html#a8b6ac97c507387b4cc846fb7f125774f" target="_top" xlink:title="Main loop. ">
<polygon fill="none" stroke="black" points="74,-0.5 74,-30.5 224,-30.5 224,-0.5 74,-0.5"/>
<text text-anchor="start" x="82" y="-18.5" font-family="Helvetica,sans-Serif" font-size="10.00">ExampleAttentionTargetsNode</text>
<text text-anchor="middle" x="149" y="-7.5" font-family="Helvetica,sans-Serif" font-size="10.00">::spin</text>
</a>
</g>
</g>
<!-- Node1&#45;&gt;Node6 -->
<g id="edge7" class="edge"><title>Node1&#45;&gt;Node6</title>
<path fill="none" stroke="midnightblue" d="M38.2572,-55.3824C48.6101,-50.3813 61.8809,-44.2508 74,-39.5 78.8274,-37.6076 83.8711,-35.7431 88.9577,-33.9406"/>
<polygon fill="midnightblue" stroke="midnightblue" points="90.4372,-37.1325 98.7467,-30.5597 88.152,-30.516 90.4372,-37.1325"/>
</g>
<!-- Node3 -->
<g id="node3" class="node"><title>Node3</title>
<g id="a_node3"><a doxygen="/home/ekaszubski/workspace/semio-ai/libsemio/libsemio.tag:https://semio-ai.github.io/libsemio/" xlink:href="https://semio-ai.github.io/libsemio/classsemio_1_1HumanoidSmoothingFilter.html#a6f3a3e5415f0220fe882e1f7b50ad074" target="_top" xlink:title="semio::HumanoidSmoothing\lFilter::getSmoothing">
<polygon fill="none" stroke="black" points="260.5,-98.5 260.5,-128.5 400.5,-128.5 400.5,-98.5 260.5,-98.5"/>
<text text-anchor="start" x="268.5" y="-116.5" font-family="Helvetica,sans-Serif" font-size="10.00">semio::HumanoidSmoothing</text>
<text text-anchor="middle" x="330.5" y="-105.5" font-family="Helvetica,sans-Serif" font-size="10.00">Filter::getSmoothing</text>
</a>
</g>
</g>
<!-- Node2&#45;&gt;Node3 -->
<g id="edge2" class="edge"><title>Node2&#45;&gt;Node3</title>
<path fill="none" stroke="midnightblue" d="M205.321,-79.6014C224.091,-84.7253 245.229,-90.4956 264.672,-95.8032"/>
<polygon fill="midnightblue" stroke="midnightblue" points="263.793,-99.1914 274.362,-98.4484 265.637,-92.4384 263.793,-99.1914"/>
</g>
<!-- Node4 -->
<g id="node4" class="node"><title>Node4</title>
<g id="a_node4"><a doxygen="/home/ekaszubski/workspace/semio-ai/libsemio/libsemio.tag:https://semio-ai.github.io/libsemio/" xlink:href="https://semio-ai.github.io/libsemio/classsemio_1_1HumanoidStateFilter.html#a3616b8bd0fb4f86c01e89c670bd91601" target="_top" xlink:title="semio::HumanoidStateFilter\l::getStandardFilterHumanoid">
<polygon fill="none" stroke="black" points="260,-49.5 260,-79.5 401,-79.5 401,-49.5 260,-49.5"/>
<text text-anchor="start" x="268" y="-67.5" font-family="Helvetica,sans-Serif" font-size="10.00">semio::HumanoidStateFilter</text>
<text text-anchor="middle" x="330.5" y="-56.5" font-family="Helvetica,sans-Serif" font-size="10.00">::getStandardFilterHumanoid</text>
</a>
</g>
</g>
<!-- Node2&#45;&gt;Node4 -->
<g id="edge3" class="edge"><title>Node2&#45;&gt;Node4</title>
<path fill="none" stroke="midnightblue" d="M216.074,-64.5C227.019,-64.5 238.469,-64.5 249.709,-64.5"/>
<polygon fill="midnightblue" stroke="midnightblue" points="249.951,-68.0001 259.951,-64.5 249.951,-61.0001 249.951,-68.0001"/>
</g>
<!-- Node5&#45;&gt;Node3 -->
<g id="edge5" class="edge"><title>Node5&#45;&gt;Node3</title>
<path fill="none" stroke="midnightblue" d="M221.717,-113.5C231.04,-113.5 240.633,-113.5 250.072,-113.5"/>
<polygon fill="midnightblue" stroke="midnightblue" points="250.234,-117 260.234,-113.5 250.234,-110 250.234,-117"/>
</g>
<!-- Node5&#45;&gt;Node4 -->
<g id="edge6" class="edge"><title>Node5&#45;&gt;Node4</title>
<path fill="none" stroke="midnightblue" d="M205.321,-98.3986C224.091,-93.2747 245.229,-87.5044 264.672,-82.1968"/>
<polygon fill="midnightblue" stroke="midnightblue" points="265.637,-85.5616 274.362,-79.5516 263.793,-78.8086 265.637,-85.5616"/>
</g>
</g>
</svg>
