<?xml version="1.0" encoding="UTF-8" standalone="no"?>
<!DOCTYPE svg PUBLIC "-//W3C//DTD SVG 1.1//EN"
 "http://www.w3.org/Graphics/SVG/1.1/DTD/svg11.dtd">
<!-- Generated by graphviz version 2.38.0 (20140413.2041)
 -->
<!-- Title: main Pages: 1 -->
<svg width="404pt" height="137pt"
 viewBox="0.00 0.00 404.00 137.00" xmlns="http://www.w3.org/2000/svg" xmlns:xlink="http://www.w3.org/1999/xlink">
<g id="graph0" class="graph" transform="scale(1 1) rotate(0) translate(4 133)">
<title>main</title>
<!-- Node1 -->
<g id="node1" class="node"><title>Node1</title>
<polygon fill="#bfbfbf" stroke="black" points="0,-55 0,-74 38,-74 38,-55 0,-55"/>
<text text-anchor="middle" x="19" y="-62" font-family="Helvetica,sans-Serif" font-size="10.00">main</text>
</g>
<!-- Node2 -->
<g id="node2" class="node"><title>Node2</title>
<g id="a_node2"><a xlink:href="classsemio_1_1ros_1_1HumanoidSinkAdapter.html#a7d8570b194859722b8685bca5dc95f90" target="_top" xlink:title="Create a semio::HumanoidSink. ">
<polygon fill="none" stroke="black" points="79.5,-49.5 79.5,-79.5 213.5,-79.5 213.5,-49.5 79.5,-49.5"/>
<text text-anchor="start" x="87.5" y="-67.5" font-family="Helvetica,sans-Serif" font-size="10.00">semio::ros::HumanoidSink</text>
<text text-anchor="middle" x="146.5" y="-56.5" font-family="Helvetica,sans-Serif" font-size="10.00">Adapter::getHumanoidSink</text>
</a>
</g>
</g>
<!-- Node1&#45;&gt;Node2 -->
<g id="edge1" class="edge"><title>Node1&#45;&gt;Node2</title>
<path fill="none" stroke="midnightblue" d="M38.2488,-64.5C46.8194,-64.5 57.6719,-64.5 69.1629,-64.5"/>
<polygon fill="midnightblue" stroke="midnightblue" points="69.3842,-68.0001 79.3842,-64.5 69.3842,-61.0001 69.3842,-68.0001"/>
</g>
<!-- Node5 -->
<g id="node5" class="node"><title>Node5</title>
<g id="a_node5"><a xlink:href="classsemio_1_1ros_1_1HumanoidSourceAdapter.html#ab5e3c73791284d9d685e62303b1108e0" target="_top" xlink:title="Create a semio::HumanoidSource. ">
<polygon fill="none" stroke="black" points="74,-98.5 74,-128.5 219,-128.5 219,-98.5 74,-98.5"/>
<text text-anchor="start" x="82" y="-116.5" font-family="Helvetica,sans-Serif" font-size="10.00">semio::ros::HumanoidSource</text>
<text text-anchor="middle" x="146.5" y="-105.5" font-family="Helvetica,sans-Serif" font-size="10.00">Adapter::getHumanoidSource</text>
</a>
</g>
</g>
<!-- Node1&#45;&gt;Node5 -->
<g id="edge4" class="edge"><title>Node1&#45;&gt;Node5</title>
<path fill="none" stroke="midnightblue" d="M38.2761,-73.5697C48.635,-78.5559 61.9054,-84.6873 74,-89.5 78.7447,-91.388 83.7032,-93.2578 88.7002,-95.0711"/>
<polygon fill="midnightblue" stroke="midnightblue" points="87.7164,-98.4357 98.3112,-98.4784 90.0555,-91.8381 87.7164,-98.4357"/>
</g>
<!-- Node6 -->
<g id="node6" class="node"><title>Node6</title>
<g id="a_node6"><a xlink:href="classExampleDeicticTargetsNode.html#a4a582e61927ff04e12f8ff725fbab86f" target="_top" xlink:title="Main loop. ">
<polygon fill="none" stroke="black" points="75.5,-0.5 75.5,-30.5 217.5,-30.5 217.5,-0.5 75.5,-0.5"/>
<text text-anchor="start" x="83.5" y="-18.5" font-family="Helvetica,sans-Serif" font-size="10.00">ExampleDeicticTargetsNode</text>
<text text-anchor="middle" x="146.5" y="-7.5" font-family="Helvetica,sans-Serif" font-size="10.00">::spin</text>
</a>
</g>
</g>
<!-- Node1&#45;&gt;Node6 -->
<g id="edge7" class="edge"><title>Node1&#45;&gt;Node6</title>
<path fill="none" stroke="midnightblue" d="M38.2761,-55.4303C48.635,-50.4441 61.9054,-44.3127 74,-39.5 78.7447,-37.612 83.7032,-35.7422 88.7002,-33.9289"/>
<polygon fill="midnightblue" stroke="midnightblue" points="90.0555,-37.1619 98.3112,-30.5216 87.7164,-30.5643 90.0555,-37.1619"/>
</g>
<!-- Node3 -->
<g id="node3" class="node"><title>Node3</title>
<g id="a_node3"><a doxygen="/home/ekaszubski/workspace/semio-ai/libsemio/libsemio.tag:https://semio-ai.github.io/libsemio/" xlink:href="https://semio-ai.github.io/libsemio/classsemio_1_1HumanoidSmoothingFilter.html#a6f3a3e5415f0220fe882e1f7b50ad074" target="_top" xlink:title="semio::HumanoidSmoothing\lFilter::getSmoothing">
<polygon fill="none" stroke="black" points="255.5,-98.5 255.5,-128.5 395.5,-128.5 395.5,-98.5 255.5,-98.5"/>
<text text-anchor="start" x="263.5" y="-116.5" font-family="Helvetica,sans-Serif" font-size="10.00">semio::HumanoidSmoothing</text>
<text text-anchor="middle" x="325.5" y="-105.5" font-family="Helvetica,sans-Serif" font-size="10.00">Filter::getSmoothing</text>
</a>
</g>
</g>
<!-- Node2&#45;&gt;Node3 -->
<g id="edge2" class="edge"><title>Node2&#45;&gt;Node3</title>
<path fill="none" stroke="midnightblue" d="M202.05,-79.6014C220.474,-84.7019 241.212,-90.4429 260.312,-95.7305"/>
<polygon fill="midnightblue" stroke="midnightblue" points="259.559,-99.1535 270.13,-98.4484 261.426,-92.4072 259.559,-99.1535"/>
</g>
<!-- Node4 -->
<g id="node4" class="node"><title>Node4</title>
<g id="a_node4"><a doxygen="/home/ekaszubski/workspace/semio-ai/libsemio/libsemio.tag:https://semio-ai.github.io/libsemio/" xlink:href="https://semio-ai.github.io/libsemio/classsemio_1_1HumanoidStateFilter.html#a3616b8bd0fb4f86c01e89c670bd91601" target="_top" xlink:title="semio::HumanoidStateFilter\l::getStandardFilterHumanoid">
<polygon fill="none" stroke="black" points="255,-49.5 255,-79.5 396,-79.5 396,-49.5 255,-49.5"/>
<text text-anchor="start" x="263" y="-67.5" font-family="Helvetica,sans-Serif" font-size="10.00">semio::HumanoidStateFilter</text>
<text text-anchor="middle" x="325.5" y="-56.5" font-family="Helvetica,sans-Serif" font-size="10.00">::getStandardFilterHumanoid</text>
</a>
</g>
</g>
<!-- Node2&#45;&gt;Node4 -->
<g id="edge3" class="edge"><title>Node2&#45;&gt;Node4</title>
<path fill="none" stroke="midnightblue" d="M213.66,-64.5C223.749,-64.5 234.253,-64.5 244.598,-64.5"/>
<polygon fill="midnightblue" stroke="midnightblue" points="244.87,-68.0001 254.87,-64.5 244.87,-61.0001 244.87,-68.0001"/>
</g>
<!-- Node5&#45;&gt;Node3 -->
<g id="edge5" class="edge"><title>Node5&#45;&gt;Node3</title>
<path fill="none" stroke="midnightblue" d="M219.238,-113.5C227.778,-113.5 236.535,-113.5 245.174,-113.5"/>
<polygon fill="midnightblue" stroke="midnightblue" points="245.241,-117 255.241,-113.5 245.241,-110 245.241,-117"/>
</g>
<!-- Node5&#45;&gt;Node4 -->
<g id="edge6" class="edge"><title>Node5&#45;&gt;Node4</title>
<path fill="none" stroke="midnightblue" d="M202.05,-98.3986C220.474,-93.2981 241.212,-87.5571 260.312,-82.2695"/>
<polygon fill="midnightblue" stroke="midnightblue" points="261.426,-85.5928 270.13,-79.5516 259.559,-78.8465 261.426,-85.5928"/>
</g>
</g>
</svg>
