<?xml version="1.0" encoding="UTF-8" standalone="no"?>
<!DOCTYPE svg PUBLIC "-//W3C//DTD SVG 1.1//EN"
 "http://www.w3.org/Graphics/SVG/1.1/DTD/svg11.dtd">
<!-- Generated by graphviz version 2.38.0 (20140413.2041)
 -->
<!-- Title: semio_attention_ros/nodes/example_attention_targets_node.cpp Pages: 1 -->
<!--zoomable 452 -->
<svg id="main" version="1.1" xmlns="http://www.w3.org/2000/svg" xmlns:xlink="http://www.w3.org/1999/xlink" xml:space="preserve" onload="init(evt)">
<style type="text/css"><![CDATA[
.edge:hover path { stroke: red; }
.edge:hover polygon { stroke: red; fill: red; }
]]></style>
<script type="text/javascript"><![CDATA[
var edges = document.getElementsByTagName('g');
if (edges && edges.length) {
  for (var i=0;i<edges.length;i++) {
    if (edges[i].id.substr(0,4)=='edge') {
      edges[i].setAttribute('class','edge');
    }
  }
}
]]></script>
        <defs>
                <circle id="rim" cx="0" cy="0" r="7"/>
                <circle id="rim2" cx="0" cy="0" r="3.5"/>
                <g id="zoomPlus">
                        <use xlink:href="#rim" fill="#404040">
                                <set attributeName="fill" to="#808080" begin="zoomplus.mouseover" end="zoomplus.mouseout"/>
                        </use>
                        <path d="M-4,0h8M0,-4v8" fill="none" stroke="white" stroke-width="1.5" pointer-events="none"/>
                </g>
                <g id="zoomMin">
                        <use xlink:href="#rim" fill="#404040">
                                <set attributeName="fill" to="#808080" begin="zoomminus.mouseover" end="zoomminus.mouseout"/>
                        </use>
                        <path d="M-4,0h8" fill="none" stroke="white" stroke-width="1.5" pointer-events="none"/>
                </g>
                <g id="dirArrow">
                        <path fill="none" stroke="white" stroke-width="1.5" d="M0,-3.0v7 M-2.5,-0.5L0,-3.0L2.5,-0.5"/>
                </g>
               <g id="resetDef">
                       <use xlink:href="#rim2" fill="#404040">
                               <set attributeName="fill" to="#808080" begin="reset.mouseover" end="reset.mouseout"/>
                       </use>
               </g>
        </defs>

<script type="text/javascript">
var viewWidth = 793;
var viewHeight = 452;
var sectionId = 'dynsection-0';
</script>
<script xlink:href="svgpan.js"/>
<svg id="graph" class="graph">
<g id="viewport">
<title>semio_attention_ros/nodes/example_attention_targets_node.cpp</title>
<!-- Node1 -->
<g id="node1" class="node"><title>Node1</title>
<polygon fill="#bfbfbf" stroke="black" points="350.5,-402.5 350.5,-443.5 478.5,-443.5 478.5,-402.5 350.5,-402.5"/>
<text text-anchor="start" x="358.5" y="-431.5" font-family="Helvetica,sans-Serif" font-size="10.00">semio_attention_ros</text>
<text text-anchor="start" x="358.5" y="-420.5" font-family="Helvetica,sans-Serif" font-size="10.00">/nodes/example_attention</text>
<text text-anchor="middle" x="414.5" y="-409.5" font-family="Helvetica,sans-Serif" font-size="10.00">_targets_node.cpp</text>
</g>
<!-- Node2 -->
<g id="node2" class="node"><title>Node2</title>
<polygon fill="none" stroke="#bfbfbf" points="140,-341 140,-360 195,-360 195,-341 140,-341"/>
<text text-anchor="middle" x="167.5" y="-348" font-family="Helvetica,sans-Serif" font-size="10.00">ros/ros.h</text>
</g>
<!-- Node1&#45;&gt;Node2 -->
<g id="edge1" class="edge"><title>Node1&#45;&gt;Node2</title>
<path fill="none" stroke="midnightblue" d="M350.077,-406.823C308.239,-396.477 252.721,-381.822 204.5,-366 202.232,-365.256 199.902,-364.448 197.567,-363.607"/>
<polygon fill="midnightblue" stroke="midnightblue" points="198.685,-360.289 188.093,-360.045 196.222,-366.841 198.685,-360.289"/>
</g>
<!-- Node3 -->
<g id="node3" class="node"><title>Node3</title>
<polygon fill="none" stroke="#bfbfbf" points="213,-335.5 213,-365.5 346,-365.5 346,-335.5 213,-335.5"/>
<text text-anchor="start" x="221" y="-353.5" font-family="Helvetica,sans-Serif" font-size="10.00">semio_msgs_ros/Attention</text>
<text text-anchor="middle" x="279.5" y="-342.5" font-family="Helvetica,sans-Serif" font-size="10.00">Targets.h</text>
</g>
<!-- Node1&#45;&gt;Node3 -->
<g id="edge2" class="edge"><title>Node1&#45;&gt;Node3</title>
<path fill="none" stroke="midnightblue" d="M376.895,-402.362C357.72,-392.348 334.51,-380.228 315.559,-370.331"/>
<polygon fill="midnightblue" stroke="midnightblue" points="317.118,-367.197 306.634,-365.67 313.878,-373.402 317.118,-367.197"/>
</g>
<!-- Node4 -->
<g id="node4" class="node"><title>Node4</title>
<g id="a_node4"><a doxygen="/home/ekaszubski/workspace/semio-ai/libsemio/libsemio.tag:https://semio-ai.github.io/libsemio/" xlink:href="https://semio-ai.github.io/libsemio/attention__recognizer_8h.html" target="_top" xlink:title="semio/recognition/attention\l_recognizer.h">
<polygon fill="none" stroke="black" points="162.5,-268.5 162.5,-298.5 296.5,-298.5 296.5,-268.5 162.5,-268.5"/>
<text text-anchor="start" x="170.5" y="-286.5" font-family="Helvetica,sans-Serif" font-size="10.00">semio/recognition/attention</text>
<text text-anchor="middle" x="229.5" y="-275.5" font-family="Helvetica,sans-Serif" font-size="10.00">_recognizer.h</text>
</a>
</g>
</g>
<!-- Node1&#45;&gt;Node4 -->
<g id="edge3" class="edge"><title>Node1&#45;&gt;Node4</title>
<path fill="none" stroke="midnightblue" d="M405.426,-402.2C395.603,-382.721 378.241,-353.316 355.5,-335 337.515,-320.514 314.837,-309.719 293.693,-301.911"/>
<polygon fill="midnightblue" stroke="midnightblue" points="294.704,-298.557 284.109,-298.532 292.376,-305.158 294.704,-298.557"/>
</g>
<!-- Node15 -->
<g id="node15" class="node"><title>Node15</title>
<g id="a_node15"><a xlink:href="humanoid__source__adapter_8h.html" target="_top" xlink:title="semio/ros/humanoid\l_source_adapter.h">
<polygon fill="none" stroke="black" points="524.5,-335.5 524.5,-365.5 628.5,-365.5 628.5,-335.5 524.5,-335.5"/>
<text text-anchor="start" x="532.5" y="-353.5" font-family="Helvetica,sans-Serif" font-size="10.00">semio/ros/humanoid</text>
<text text-anchor="middle" x="576.5" y="-342.5" font-family="Helvetica,sans-Serif" font-size="10.00">_source_adapter.h</text>
</a>
</g>
</g>
<!-- Node1&#45;&gt;Node15 -->
<g id="edge19" class="edge"><title>Node1&#45;&gt;Node15</title>
<path fill="none" stroke="midnightblue" d="M459.626,-402.362C483.242,-392.085 511.956,-379.589 535.013,-369.555"/>
<polygon fill="midnightblue" stroke="midnightblue" points="536.42,-372.759 544.193,-365.56 533.627,-366.341 536.42,-372.759"/>
</g>
<!-- Node20 -->
<g id="node20" class="node"><title>Node20</title>
<g id="a_node20"><a xlink:href="humanoid__sink__adapter_8h.html" target="_top" xlink:title="semio/ros/humanoid\l_sink_adapter.h">
<polygon fill="none" stroke="black" points="402.5,-335.5 402.5,-365.5 506.5,-365.5 506.5,-335.5 402.5,-335.5"/>
<text text-anchor="start" x="410.5" y="-353.5" font-family="Helvetica,sans-Serif" font-size="10.00">semio/ros/humanoid</text>
<text text-anchor="middle" x="454.5" y="-342.5" font-family="Helvetica,sans-Serif" font-size="10.00">_sink_adapter.h</text>
</a>
</g>
</g>
<!-- Node1&#45;&gt;Node20 -->
<g id="edge25" class="edge"><title>Node1&#45;&gt;Node20</title>
<path fill="none" stroke="midnightblue" d="M425.642,-402.362C430.515,-393.774 436.266,-383.637 441.347,-374.682"/>
<polygon fill="midnightblue" stroke="midnightblue" points="444.444,-376.316 446.335,-365.892 438.356,-372.862 444.444,-376.316"/>
</g>
<!-- Node22 -->
<g id="node22" class="node"><title>Node22</title>
<g id="a_node22"><a doxygen="/home/ekaszubski/workspace/semio-ai/libsemio/libsemio.tag:https://semio-ai.github.io/libsemio/" xlink:href="https://semio-ai.github.io/libsemio/humanoid__source__virtual_8h.html" target="_top" xlink:title="semio/recognition/humanoid\l_source_virtual.h">
<polygon fill="none" stroke="black" points="646.5,-335.5 646.5,-365.5 784.5,-365.5 784.5,-335.5 646.5,-335.5"/>
<text text-anchor="start" x="654.5" y="-353.5" font-family="Helvetica,sans-Serif" font-size="10.00">semio/recognition/humanoid</text>
<text text-anchor="middle" x="715.5" y="-342.5" font-family="Helvetica,sans-Serif" font-size="10.00">_source_virtual.h</text>
</a>
</g>
</g>
<!-- Node1&#45;&gt;Node22 -->
<g id="edge30" class="edge"><title>Node1&#45;&gt;Node22</title>
<path fill="none" stroke="midnightblue" d="M478.703,-406.962C527.748,-395.475 595.261,-379.662 645.653,-367.859"/>
<polygon fill="midnightblue" stroke="midnightblue" points="646.554,-371.243 655.493,-365.555 644.958,-364.428 646.554,-371.243"/>
</g>
<!-- Node5 -->
<g id="node5" class="node"><title>Node5</title>
<g id="a_node5"><a doxygen="/home/ekaszubski/workspace/semio-ai/libsemio/libsemio.tag:https://semio-ai.github.io/libsemio/" xlink:href="https://semio-ai.github.io/libsemio/humanoid_8h.html" target="_top" xlink:title="semio/humanoid.h">
<polygon fill="none" stroke="black" points="335.5,-207 335.5,-226 431.5,-226 431.5,-207 335.5,-207"/>
<text text-anchor="middle" x="383.5" y="-214" font-family="Helvetica,sans-Serif" font-size="10.00">semio/humanoid.h</text>
</a>
</g>
</g>
<!-- Node4&#45;&gt;Node5 -->
<g id="edge4" class="edge"><title>Node4&#45;&gt;Node5</title>
<path fill="none" stroke="midnightblue" d="M262.916,-268.396C290.056,-256.941 327.969,-240.938 353.998,-229.952"/>
<polygon fill="midnightblue" stroke="midnightblue" points="355.493,-233.12 363.345,-226.007 352.771,-226.671 355.493,-233.12"/>
</g>
<!-- Node6 -->
<g id="node6" class="node"><title>Node6</title>
<g id="a_node6"><a doxygen="/home/ekaszubski/workspace/semio-ai/libsemio/libsemio.tag:https://semio-ai.github.io/libsemio/" xlink:href="https://semio-ai.github.io/libsemio/top__n__list_8h.html" target="_top" xlink:title="semio/recognition/top\l_n_list.h">
<polygon fill="none" stroke="black" points="310.5,-134.5 310.5,-164.5 420.5,-164.5 420.5,-134.5 310.5,-134.5"/>
<text text-anchor="start" x="318.5" y="-152.5" font-family="Helvetica,sans-Serif" font-size="10.00">semio/recognition/top</text>
<text text-anchor="middle" x="365.5" y="-141.5" font-family="Helvetica,sans-Serif" font-size="10.00">_n_list.h</text>
</a>
</g>
</g>
<!-- Node4&#45;&gt;Node6 -->
<g id="edge8" class="edge"><title>Node4&#45;&gt;Node6</title>
<path fill="none" stroke="midnightblue" d="M244.054,-268.374C267.981,-245.151 315.756,-198.781 343.724,-171.636"/>
<polygon fill="midnightblue" stroke="midnightblue" points="346.312,-174.001 351.05,-164.525 341.437,-168.978 346.312,-174.001"/>
</g>
<!-- Node9 -->
<g id="node9" class="node"><title>Node9</title>
<g id="a_node9"><a doxygen="/home/ekaszubski/workspace/semio-ai/libsemio/libsemio.tag:https://semio-ai.github.io/libsemio/" xlink:href="https://semio-ai.github.io/libsemio/pdf__util_8h.html" target="_top" xlink:title="semio/math/pdf_util.h">
<polygon fill="none" stroke="black" points="133.5,-207 133.5,-226 243.5,-226 243.5,-207 133.5,-207"/>
<text text-anchor="middle" x="188.5" y="-214" font-family="Helvetica,sans-Serif" font-size="10.00">semio/math/pdf_util.h</text>
</a>
</g>
</g>
<!-- Node4&#45;&gt;Node9 -->
<g id="edge9" class="edge"><title>Node4&#45;&gt;Node9</title>
<path fill="none" stroke="midnightblue" d="M220.604,-268.396C214.401,-258.562 206.084,-245.378 199.47,-234.892"/>
<polygon fill="midnightblue" stroke="midnightblue" points="202.28,-232.785 193.984,-226.195 196.359,-236.52 202.28,-232.785"/>
</g>
<!-- Node5&#45;&gt;Node6 -->
<g id="edge5" class="edge"><title>Node5&#45;&gt;Node6</title>
<path fill="none" stroke="midnightblue" d="M381.072,-206.734C378.78,-198.456 375.237,-185.662 372.109,-174.367"/>
<polygon fill="midnightblue" stroke="midnightblue" points="375.443,-173.292 369.402,-164.589 368.697,-175.16 375.443,-173.292"/>
</g>
<!-- Node8 -->
<g id="node8" class="node"><title>Node8</title>
<g id="a_node8"><a doxygen="/home/ekaszubski/workspace/semio-ai/libsemio/libsemio.tag:https://semio-ai.github.io/libsemio/" xlink:href="https://semio-ai.github.io/libsemio/humanoid__impl_8h.html" target="_top" xlink:title="semio/humanoid_impl.h">
<polygon fill="none" stroke="black" points="439,-140 439,-159 558,-159 558,-140 439,-140"/>
<text text-anchor="middle" x="498.5" y="-147" font-family="Helvetica,sans-Serif" font-size="10.00">semio/humanoid_impl.h</text>
</a>
</g>
</g>
<!-- Node5&#45;&gt;Node8 -->
<g id="edge7" class="edge"><title>Node5&#45;&gt;Node8</title>
<path fill="none" stroke="midnightblue" d="M399.009,-206.734C418.408,-195.769 451.826,-176.881 474.528,-164.049"/>
<polygon fill="midnightblue" stroke="midnightblue" points="476.253,-167.095 483.236,-159.127 472.808,-161.001 476.253,-167.095"/>
</g>
<!-- Node7 -->
<g id="node7" class="node"><title>Node7</title>
<g id="a_node7"><a doxygen="/home/ekaszubski/workspace/semio-ai/libsemio/libsemio.tag:https://semio-ai.github.io/libsemio/" xlink:href="https://semio-ai.github.io/libsemio/top__n__list__impl_8h.html" target="_top" xlink:title="semio/recognition/top\l_n_list_impl.h">
<polygon fill="none" stroke="black" points="459.5,-67.5 459.5,-97.5 569.5,-97.5 569.5,-67.5 459.5,-67.5"/>
<text text-anchor="start" x="467.5" y="-85.5" font-family="Helvetica,sans-Serif" font-size="10.00">semio/recognition/top</text>
<text text-anchor="middle" x="514.5" y="-74.5" font-family="Helvetica,sans-Serif" font-size="10.00">_n_list_impl.h</text>
</a>
</g>
</g>
<!-- Node6&#45;&gt;Node7 -->
<g id="edge6" class="edge"><title>Node6&#45;&gt;Node7</title>
<path fill="none" stroke="midnightblue" d="M397.831,-134.396C419.797,-124.814 449.055,-112.05 472.776,-101.702"/>
<polygon fill="midnightblue" stroke="midnightblue" points="474.466,-104.783 482.232,-97.5765 471.667,-98.367 474.466,-104.783"/>
</g>
<!-- Node10 -->
<g id="node10" class="node"><title>Node10</title>
<g id="a_node10"><a doxygen="/home/ekaszubski/workspace/semio-ai/libsemio/libsemio.tag:https://semio-ai.github.io/libsemio/" xlink:href="https://semio-ai.github.io/libsemio/probability__distribution_8h.html" target="_top" xlink:title="semio/math/probability\l_distribution.h">
<polygon fill="none" stroke="black" points="159,-0.5 159,-30.5 274,-30.5 274,-0.5 159,-0.5"/>
<text text-anchor="start" x="167" y="-18.5" font-family="Helvetica,sans-Serif" font-size="10.00">semio/math/probability</text>
<text text-anchor="middle" x="216.5" y="-7.5" font-family="Helvetica,sans-Serif" font-size="10.00">_distribution.h</text>
</a>
</g>
</g>
<!-- Node9&#45;&gt;Node10 -->
<g id="edge10" class="edge"><title>Node9&#45;&gt;Node10</title>
<path fill="none" stroke="midnightblue" d="M187.516,-206.967C185.12,-183.967 180.054,-118.916 192.5,-67 194.712,-57.7728 198.734,-48.2293 202.861,-39.9564"/>
<polygon fill="midnightblue" stroke="midnightblue" points="206.058,-41.3977 207.652,-30.9234 199.874,-38.1177 206.058,-41.3977"/>
</g>
<!-- Node11 -->
<g id="node11" class="node"><title>Node11</title>
<g id="a_node11"><a doxygen="/home/ekaszubski/workspace/semio-ai/libsemio/libsemio.tag:https://semio-ai.github.io/libsemio/" xlink:href="https://semio-ai.github.io/libsemio/gaussian_8h.html" target="_top" xlink:title="semio/math/gaussian.h">
<polygon fill="none" stroke="black" points="201.5,-73 201.5,-92 319.5,-92 319.5,-73 201.5,-73"/>
<text text-anchor="middle" x="260.5" y="-80" font-family="Helvetica,sans-Serif" font-size="10.00">semio/math/gaussian.h</text>
</a>
</g>
</g>
<!-- Node9&#45;&gt;Node11 -->
<g id="edge11" class="edge"><title>Node9&#45;&gt;Node11</title>
<path fill="none" stroke="midnightblue" d="M193.224,-206.839C204.922,-185.393 235.415,-129.489 251.012,-100.895"/>
<polygon fill="midnightblue" stroke="midnightblue" points="254.136,-102.476 255.852,-92.0212 247.991,-99.1241 254.136,-102.476"/>
</g>
<!-- Node12 -->
<g id="node12" class="node"><title>Node12</title>
<g id="a_node12"><a doxygen="/home/ekaszubski/workspace/semio-ai/libsemio/libsemio.tag:https://semio-ai.github.io/libsemio/" xlink:href="https://semio-ai.github.io/libsemio/uniform__distribution_8h.html" target="_top" xlink:title="semio/math/uniform\l_distribution.h">
<polygon fill="none" stroke="black" points="338,-67.5 338,-97.5 441,-97.5 441,-67.5 338,-67.5"/>
<text text-anchor="start" x="346" y="-85.5" font-family="Helvetica,sans-Serif" font-size="10.00">semio/math/uniform</text>
<text text-anchor="middle" x="389.5" y="-74.5" font-family="Helvetica,sans-Serif" font-size="10.00">_distribution.h</text>
</a>
</g>
</g>
<!-- Node9&#45;&gt;Node12 -->
<g id="edge13" class="edge"><title>Node9&#45;&gt;Node12</title>
<path fill="none" stroke="midnightblue" d="M199.775,-206.767C219.8,-191.394 263.084,-158.782 301.5,-134 318.452,-123.065 337.848,-111.807 354.109,-102.704"/>
<polygon fill="midnightblue" stroke="midnightblue" points="356.235,-105.526 363.279,-97.6114 352.837,-99.4065 356.235,-105.526"/>
</g>
<!-- Node13 -->
<g id="node13" class="node"><title>Node13</title>
<g id="a_node13"><a doxygen="/home/ekaszubski/workspace/semio-ai/libsemio/libsemio.tag:https://semio-ai.github.io/libsemio/" xlink:href="https://semio-ai.github.io/libsemio/von__mises_8h.html" target="_top" xlink:title="semio/math/von_mises.h">
<polygon fill="none" stroke="black" points="19.5,-73 19.5,-92 145.5,-92 145.5,-73 19.5,-73"/>
<text text-anchor="middle" x="82.5" y="-80" font-family="Helvetica,sans-Serif" font-size="10.00">semio/math/von_mises.h</text>
</a>
</g>
</g>
<!-- Node9&#45;&gt;Node13 -->
<g id="edge15" class="edge"><title>Node9&#45;&gt;Node13</title>
<path fill="none" stroke="midnightblue" d="M181.545,-206.839C164.173,-185.205 118.645,-128.51 95.8723,-100.152"/>
<polygon fill="midnightblue" stroke="midnightblue" points="98.3332,-97.6269 89.3428,-92.0212 92.8751,-102.01 98.3332,-97.6269"/>
</g>
<!-- Node14 -->
<g id="node14" class="node"><title>Node14</title>
<g id="a_node14"><a doxygen="/home/ekaszubski/workspace/semio-ai/libsemio/libsemio.tag:https://semio-ai.github.io/libsemio/" xlink:href="https://semio-ai.github.io/libsemio/wrapped__normal_8h.html" target="_top" xlink:title="semio/math/wrapped\l_normal.h">
<polygon fill="none" stroke="black" points="0,-134.5 0,-164.5 107,-164.5 107,-134.5 0,-134.5"/>
<text text-anchor="start" x="8" y="-152.5" font-family="Helvetica,sans-Serif" font-size="10.00">semio/math/wrapped</text>
<text text-anchor="middle" x="53.5" y="-141.5" font-family="Helvetica,sans-Serif" font-size="10.00">_normal.h</text>
</a>
</g>
</g>
<!-- Node9&#45;&gt;Node14 -->
<g id="edge17" class="edge"><title>Node9&#45;&gt;Node14</title>
<path fill="none" stroke="midnightblue" d="M170.573,-206.869C150.579,-197.242 117.652,-181.388 91.8016,-168.942"/>
<polygon fill="midnightblue" stroke="midnightblue" points="93.1636,-165.713 82.6352,-164.528 90.1269,-172.02 93.1636,-165.713"/>
</g>
<!-- Node11&#45;&gt;Node10 -->
<g id="edge12" class="edge"><title>Node11&#45;&gt;Node10</title>
<path fill="none" stroke="midnightblue" d="M254.566,-72.7338C248.734,-64.1183 239.59,-50.61 231.726,-38.9923"/>
<polygon fill="midnightblue" stroke="midnightblue" points="234.541,-36.9081 226.037,-30.589 228.744,-40.8321 234.541,-36.9081"/>
</g>
<!-- Node12&#45;&gt;Node10 -->
<g id="edge14" class="edge"><title>Node12&#45;&gt;Node10</title>
<path fill="none" stroke="midnightblue" d="M351.962,-67.396C326.004,-57.6432 291.276,-44.5949 263.481,-34.152"/>
<polygon fill="midnightblue" stroke="midnightblue" points="264.557,-30.8174 253.965,-30.5765 262.095,-37.3701 264.557,-30.8174"/>
</g>
<!-- Node13&#45;&gt;Node10 -->
<g id="edge16" class="edge"><title>Node13&#45;&gt;Node10</title>
<path fill="none" stroke="midnightblue" d="M100.294,-72.8685C120.14,-63.2417 152.824,-47.3878 178.482,-34.9415"/>
<polygon fill="midnightblue" stroke="midnightblue" points="180.111,-38.0416 187.581,-30.5281 177.056,-31.7434 180.111,-38.0416"/>
</g>
<!-- Node14&#45;&gt;Node13 -->
<g id="edge18" class="edge"><title>Node14&#45;&gt;Node13</title>
<path fill="none" stroke="midnightblue" d="M59.7926,-134.396C64.0905,-124.763 69.8228,-111.914 74.4526,-101.537"/>
<polygon fill="midnightblue" stroke="midnightblue" points="77.7427,-102.753 78.6209,-92.1945 71.3501,-99.9008 77.7427,-102.753"/>
</g>
<!-- Node16 -->
<g id="node16" class="node"><title>Node16</title>
<g id="a_node16"><a doxygen="/home/ekaszubski/workspace/semio-ai/libsemio/libsemio.tag:https://semio-ai.github.io/libsemio/" xlink:href="https://semio-ai.github.io/libsemio/humanoid__source_8h.html" target="_top" xlink:title="semio/recognition/humanoid\l_source.h">
<polygon fill="none" stroke="black" points="644.5,-268.5 644.5,-298.5 782.5,-298.5 782.5,-268.5 644.5,-268.5"/>
<text text-anchor="start" x="652.5" y="-286.5" font-family="Helvetica,sans-Serif" font-size="10.00">semio/recognition/humanoid</text>
<text text-anchor="middle" x="713.5" y="-275.5" font-family="Helvetica,sans-Serif" font-size="10.00">_source.h</text>
</a>
</g>
</g>
<!-- Node15&#45;&gt;Node16 -->
<g id="edge20" class="edge"><title>Node15&#45;&gt;Node16</title>
<path fill="none" stroke="midnightblue" d="M606.227,-335.396C626.244,-325.899 652.848,-313.276 674.554,-302.978"/>
<polygon fill="midnightblue" stroke="midnightblue" points="676.297,-306.025 683.831,-298.577 673.296,-299.701 676.297,-306.025"/>
</g>
<!-- Node18 -->
<g id="node18" class="node"><title>Node18</title>
<polygon fill="none" stroke="#bfbfbf" points="530.5,-274 530.5,-293 626.5,-293 626.5,-274 530.5,-274"/>
<text text-anchor="middle" x="578.5" y="-281" font-family="Helvetica,sans-Serif" font-size="10.00">ros/node_handle.h</text>
</g>
<!-- Node15&#45;&gt;Node18 -->
<g id="edge23" class="edge"><title>Node15&#45;&gt;Node18</title>
<path fill="none" stroke="midnightblue" d="M576.934,-335.396C577.221,-326.064 577.601,-313.714 577.915,-303.517"/>
<polygon fill="midnightblue" stroke="midnightblue" points="581.423,-303.297 578.232,-293.195 574.426,-303.082 581.423,-303.297"/>
</g>
<!-- Node19 -->
<g id="node19" class="node"><title>Node19</title>
<polygon fill="none" stroke="#bfbfbf" points="471,-274 471,-293 512,-293 512,-274 471,-274"/>
<text text-anchor="middle" x="491.5" y="-281" font-family="Helvetica,sans-Serif" font-size="10.00">string</text>
</g>
<!-- Node15&#45;&gt;Node19 -->
<g id="edge24" class="edge"><title>Node15&#45;&gt;Node19</title>
<path fill="none" stroke="midnightblue" d="M558.056,-335.396C544.147,-324.759 525.111,-310.203 510.96,-299.381"/>
<polygon fill="midnightblue" stroke="midnightblue" points="512.939,-296.489 502.87,-293.195 508.687,-302.049 512.939,-296.489"/>
</g>
<!-- Node16&#45;&gt;Node5 -->
<g id="edge21" class="edge"><title>Node16&#45;&gt;Node5</title>
<path fill="none" stroke="midnightblue" d="M644.321,-268.874C582.582,-256.713 493.451,-239.157 437.014,-228.041"/>
<polygon fill="midnightblue" stroke="midnightblue" points="437.359,-224.541 426.871,-226.043 436.006,-231.409 437.359,-224.541"/>
</g>
<!-- Node17 -->
<g id="node17" class="node"><title>Node17</title>
<g id="a_node17"><a doxygen="/home/ekaszubski/workspace/semio-ai/libsemio/libsemio.tag:https://semio-ai.github.io/libsemio/" xlink:href="https://semio-ai.github.io/libsemio/humanoid__source__impl_8h.html" target="_top" xlink:title="semio/recognition/humanoid\l_source_impl.h">
<polygon fill="none" stroke="black" points="644.5,-201.5 644.5,-231.5 782.5,-231.5 782.5,-201.5 644.5,-201.5"/>
<text text-anchor="start" x="652.5" y="-219.5" font-family="Helvetica,sans-Serif" font-size="10.00">semio/recognition/humanoid</text>
<text text-anchor="middle" x="713.5" y="-208.5" font-family="Helvetica,sans-Serif" font-size="10.00">_source_impl.h</text>
</a>
</g>
</g>
<!-- Node16&#45;&gt;Node17 -->
<g id="edge22" class="edge"><title>Node16&#45;&gt;Node17</title>
<path fill="none" stroke="midnightblue" d="M713.5,-268.396C713.5,-260.645 713.5,-250.812 713.5,-241.86"/>
<polygon fill="midnightblue" stroke="midnightblue" points="717,-241.576 713.5,-231.577 710,-241.577 717,-241.576"/>
</g>
<!-- Node20&#45;&gt;Node18 -->
<g id="edge28" class="edge"><title>Node20&#45;&gt;Node18</title>
<path fill="none" stroke="midnightblue" d="M481.406,-335.396C502.778,-324.193 532.446,-308.641 553.347,-297.685"/>
<polygon fill="midnightblue" stroke="midnightblue" points="555.039,-300.75 562.271,-293.007 551.789,-294.55 555.039,-300.75"/>
</g>
<!-- Node20&#45;&gt;Node19 -->
<g id="edge29" class="edge"><title>Node20&#45;&gt;Node19</title>
<path fill="none" stroke="midnightblue" d="M462.528,-335.396C468.126,-325.562 475.631,-312.378 481.6,-301.892"/>
<polygon fill="midnightblue" stroke="midnightblue" points="484.646,-303.617 486.551,-293.195 478.562,-300.154 484.646,-303.617"/>
</g>
<!-- Node21 -->
<g id="node21" class="node"><title>Node21</title>
<g id="a_node21"><a doxygen="/home/ekaszubski/workspace/semio-ai/libsemio/libsemio.tag:https://semio-ai.github.io/libsemio/" xlink:href="https://semio-ai.github.io/libsemio/humanoid__sink_8h.html" target="_top" xlink:title="semio/recognition/humanoid\l_sink.h">
<polygon fill="none" stroke="black" points="314.5,-268.5 314.5,-298.5 452.5,-298.5 452.5,-268.5 314.5,-268.5"/>
<text text-anchor="start" x="322.5" y="-286.5" font-family="Helvetica,sans-Serif" font-size="10.00">semio/recognition/humanoid</text>
<text text-anchor="middle" x="383.5" y="-275.5" font-family="Helvetica,sans-Serif" font-size="10.00">_sink.h</text>
</a>
</g>
</g>
<!-- Node20&#45;&gt;Node21 -->
<g id="edge26" class="edge"><title>Node20&#45;&gt;Node21</title>
<path fill="none" stroke="midnightblue" d="M439.094,-335.396C429.511,-326.623 417.015,-315.183 406.298,-305.371"/>
<polygon fill="midnightblue" stroke="midnightblue" points="408.615,-302.748 398.876,-298.577 403.888,-307.911 408.615,-302.748"/>
</g>
<!-- Node21&#45;&gt;Node5 -->
<g id="edge27" class="edge"><title>Node21&#45;&gt;Node5</title>
<path fill="none" stroke="midnightblue" d="M383.5,-268.396C383.5,-259.064 383.5,-246.714 383.5,-236.517"/>
<polygon fill="midnightblue" stroke="midnightblue" points="387,-236.195 383.5,-226.195 380,-236.195 387,-236.195"/>
</g>
<!-- Node22&#45;&gt;Node16 -->
<g id="edge31" class="edge"><title>Node22&#45;&gt;Node16</title>
<path fill="none" stroke="midnightblue" d="M715.066,-335.396C714.828,-327.645 714.525,-317.812 714.25,-308.86"/>
<polygon fill="midnightblue" stroke="midnightblue" points="717.739,-308.464 713.933,-298.577 710.742,-308.679 717.739,-308.464"/>
</g>
</g>
</svg>
        <g id="navigator" transform="translate(0 0)" fill="#404254">
                <rect fill="#f2f5e9" fill-opacity="0.5" stroke="#606060" stroke-width=".5" x="0" y="0" width="60" height="60"/>
                <use id="zoomplus" xlink:href="#zoomPlus" x="17" y="9" onmousedown="handleZoom(evt,'in')"/>
                <use id="zoomminus" xlink:href="#zoomMin" x="42" y="9" onmousedown="handleZoom(evt,'out')"/>
                <use id="reset" xlink:href="#resetDef" x="30" y="36" onmousedown="handleReset()"/>
                <g id="arrowUp" xlink:href="#dirArrow" transform="translate(30 24)" onmousedown="handlePan(0,-1)">
                  <use xlink:href="#rim" fill="#404040">
                        <set attributeName="fill" to="#808080" begin="arrowUp.mouseover" end="arrowUp.mouseout"/>
                  </use>
                  <path fill="none" stroke="white" stroke-width="1.5" d="M0,-3.0v7 M-2.5,-0.5L0,-3.0L2.5,-0.5"/>
                </g>
                <g id="arrowRight" xlink:href="#dirArrow" transform="rotate(90) translate(36 -43)" onmousedown="handlePan(1,0)">
                  <use xlink:href="#rim" fill="#404040">
                        <set attributeName="fill" to="#808080" begin="arrowRight.mouseover" end="arrowRight.mouseout"/>
                  </use>
                  <path fill="none" stroke="white" stroke-width="1.5" d="M0,-3.0v7 M-2.5,-0.5L0,-3.0L2.5,-0.5"/>
                </g>
                <g id="arrowDown" xlink:href="#dirArrow" transform="rotate(180) translate(-30 -48)" onmousedown="handlePan(0,1)">
                  <use xlink:href="#rim" fill="#404040">
                        <set attributeName="fill" to="#808080" begin="arrowDown.mouseover" end="arrowDown.mouseout"/>
                  </use>
                  <path fill="none" stroke="white" stroke-width="1.5" d="M0,-3.0v7 M-2.5,-0.5L0,-3.0L2.5,-0.5"/>
                </g>
                <g id="arrowLeft" xlink:href="#dirArrow" transform="rotate(270) translate(-36 17)" onmousedown="handlePan(-1,0)">
                  <use xlink:href="#rim" fill="#404040">
                        <set attributeName="fill" to="#808080" begin="arrowLeft.mouseover" end="arrowLeft.mouseout"/>
                  </use>
                  <path fill="none" stroke="white" stroke-width="1.5" d="M0,-3.0v7 M-2.5,-0.5L0,-3.0L2.5,-0.5"/>
                </g>
        </g>
        <svg viewBox="0 0 15 15" width="100%" height="30px" preserveAspectRatio="xMaxYMin meet">
         <g id="arrow_out" transform="scale(0.3 0.3)">
          <a xlink:href="example__attention__targets__node_8cpp__incl_org.svg" target="_base">
           <rect id="button" ry="5" rx="5" y="6" x="6" height="38" width="38"
                fill="#f2f5e9" fill-opacity="0.5" stroke="#606060" stroke-width="1.0"/>
           <path id="arrow"
             d="M 11.500037,31.436501 C 11.940474,20.09759 22.043105,11.32322 32.158766,21.979434 L 37.068811,17.246167 C 37.068811,17.246167 37.088388,32 37.088388,32 L 22.160133,31.978069 C 22.160133,31.978069 26.997745,27.140456 26.997745,27.140456 C 18.528582,18.264221 13.291696,25.230495 11.500037,31.436501 z"
             style="fill:#404040;"/>
          </a>
         </g>
        </svg>
</svg>
