<?xml version="1.0" encoding="UTF-8" standalone="no"?>
<!DOCTYPE svg PUBLIC "-//W3C//DTD SVG 1.1//EN"
 "http://www.w3.org/Graphics/SVG/1.1/DTD/svg11.dtd">
<!-- Generated by graphviz version 2.38.0 (20140413.2041)
 -->
<!-- Title: semio_deixis_ros/nodes/example_deictic_targets_node.cpp Pages: 1 -->
<svg width="793pt" height="452pt"
 viewBox="0.00 0.00 792.50 452.00" xmlns="http://www.w3.org/2000/svg" xmlns:xlink="http://www.w3.org/1999/xlink">
<g id="graph0" class="graph" transform="scale(1 1) rotate(0) translate(4 448)">
<title>semio_deixis_ros/nodes/example_deictic_targets_node.cpp</title>
<!-- Node1 -->
<g id="node1" class="node"><title>Node1</title>
<polygon fill="#bfbfbf" stroke="black" points="325,-402.5 325,-443.5 450,-443.5 450,-402.5 325,-402.5"/>
<text text-anchor="start" x="333" y="-431.5" font-family="Helvetica,sans-Serif" font-size="10.00">semio_deixis_ros/nodes</text>
<text text-anchor="start" x="333" y="-420.5" font-family="Helvetica,sans-Serif" font-size="10.00">/example_deictic_targets</text>
<text text-anchor="middle" x="387.5" y="-409.5" font-family="Helvetica,sans-Serif" font-size="10.00">_node.cpp</text>
</g>
<!-- Node2 -->
<g id="node2" class="node"><title>Node2</title>
<polygon fill="none" stroke="#bfbfbf" points="1,-341 1,-360 56,-360 56,-341 1,-341"/>
<text text-anchor="middle" x="28.5" y="-348" font-family="Helvetica,sans-Serif" font-size="10.00">ros/ros.h</text>
</g>
<!-- Node1&#45;&gt;Node2 -->
<g id="edge1" class="edge"><title>Node1&#45;&gt;Node2</title>
<path fill="none" stroke="midnightblue" d="M324.945,-414.913C259.453,-406.616 154.022,-390.77 65.5,-366 62.9109,-365.276 60.2527,-364.436 57.6064,-363.532"/>
<polygon fill="midnightblue" stroke="midnightblue" points="58.813,-360.247 48.2196,-360.075 56.3938,-366.815 58.813,-360.247"/>
</g>
<!-- Node3 -->
<g id="node3" class="node"><title>Node3</title>
<polygon fill="none" stroke="#bfbfbf" points="74.5,-341 74.5,-360 240.5,-360 240.5,-341 74.5,-341"/>
<text text-anchor="middle" x="157.5" y="-348" font-family="Helvetica,sans-Serif" font-size="10.00">semio_msgs_ros/DeicticTargets.h</text>
</g>
<!-- Node1&#45;&gt;Node3 -->
<g id="edge2" class="edge"><title>Node1&#45;&gt;Node3</title>
<path fill="none" stroke="midnightblue" d="M324.955,-402.829C283.428,-390.1 230.286,-373.811 195.132,-363.035"/>
<polygon fill="midnightblue" stroke="midnightblue" points="195.863,-359.598 185.276,-360.014 193.811,-366.291 195.863,-359.598"/>
</g>
<!-- Node4 -->
<g id="node4" class="node"><title>Node4</title>
<g id="a_node4"><a doxygen="/home/ekaszubski/workspace/semio-ai/libsemio/libsemio.tag:https://semio-ai.github.io/libsemio/" xlink:href="https://semio-ai.github.io/libsemio/deictic__recognizer_8h.html" target="_top" xlink:title="semio/recognition/deictic\l_recognizer.h">
<polygon fill="none" stroke="black" points="259,-335.5 259,-365.5 384,-365.5 384,-335.5 259,-335.5"/>
<text text-anchor="start" x="267" y="-353.5" font-family="Helvetica,sans-Serif" font-size="10.00">semio/recognition/deictic</text>
<text text-anchor="middle" x="321.5" y="-342.5" font-family="Helvetica,sans-Serif" font-size="10.00">_recognizer.h</text>
</a>
</g>
</g>
<!-- Node1&#45;&gt;Node4 -->
<g id="edge3" class="edge"><title>Node1&#45;&gt;Node4</title>
<path fill="none" stroke="midnightblue" d="M369.115,-402.362C360.652,-393.322 350.583,-382.566 341.888,-373.278"/>
<polygon fill="midnightblue" stroke="midnightblue" points="344.362,-370.8 334.973,-365.892 339.252,-375.584 344.362,-370.8"/>
</g>
<!-- Node16 -->
<g id="node16" class="node"><title>Node16</title>
<g id="a_node16"><a xlink:href="humanoid__source__adapter_8h.html" target="_top" xlink:title="semio/ros/humanoid\l_source_adapter.h">
<polygon fill="none" stroke="black" points="524.5,-335.5 524.5,-365.5 628.5,-365.5 628.5,-335.5 524.5,-335.5"/>
<text text-anchor="start" x="532.5" y="-353.5" font-family="Helvetica,sans-Serif" font-size="10.00">semio/ros/humanoid</text>
<text text-anchor="middle" x="576.5" y="-342.5" font-family="Helvetica,sans-Serif" font-size="10.00">_source_adapter.h</text>
</a>
</g>
</g>
<!-- Node1&#45;&gt;Node16 -->
<g id="edge20" class="edge"><title>Node1&#45;&gt;Node16</title>
<path fill="none" stroke="midnightblue" d="M439.896,-402.455C467.82,-392.039 501.91,-379.323 529.049,-369.2"/>
<polygon fill="midnightblue" stroke="midnightblue" points="530.562,-372.371 538.709,-365.597 528.116,-365.812 530.562,-372.371"/>
</g>
<!-- Node21 -->
<g id="node21" class="node"><title>Node21</title>
<g id="a_node21"><a xlink:href="humanoid__sink__adapter_8h.html" target="_top" xlink:title="semio/ros/humanoid\l_sink_adapter.h">
<polygon fill="none" stroke="black" points="402.5,-335.5 402.5,-365.5 506.5,-365.5 506.5,-335.5 402.5,-335.5"/>
<text text-anchor="start" x="410.5" y="-353.5" font-family="Helvetica,sans-Serif" font-size="10.00">semio/ros/humanoid</text>
<text text-anchor="middle" x="454.5" y="-342.5" font-family="Helvetica,sans-Serif" font-size="10.00">_sink_adapter.h</text>
</a>
</g>
</g>
<!-- Node1&#45;&gt;Node21 -->
<g id="edge26" class="edge"><title>Node1&#45;&gt;Node21</title>
<path fill="none" stroke="midnightblue" d="M406.163,-402.362C414.754,-393.322 424.977,-382.566 433.803,-373.278"/>
<polygon fill="midnightblue" stroke="midnightblue" points="436.471,-375.551 440.823,-365.892 431.397,-370.729 436.471,-375.551"/>
</g>
<!-- Node23 -->
<g id="node23" class="node"><title>Node23</title>
<g id="a_node23"><a doxygen="/home/ekaszubski/workspace/semio-ai/libsemio/libsemio.tag:https://semio-ai.github.io/libsemio/" xlink:href="https://semio-ai.github.io/libsemio/humanoid__source__virtual_8h.html" target="_top" xlink:title="semio/recognition/humanoid\l_source_virtual.h">
<polygon fill="none" stroke="black" points="646.5,-335.5 646.5,-365.5 784.5,-365.5 784.5,-335.5 646.5,-335.5"/>
<text text-anchor="start" x="654.5" y="-353.5" font-family="Helvetica,sans-Serif" font-size="10.00">semio/recognition/humanoid</text>
<text text-anchor="middle" x="715.5" y="-342.5" font-family="Helvetica,sans-Serif" font-size="10.00">_source_virtual.h</text>
</a>
</g>
</g>
<!-- Node1&#45;&gt;Node23 -->
<g id="edge31" class="edge"><title>Node1&#45;&gt;Node23</title>
<path fill="none" stroke="midnightblue" d="M450.354,-408.49C504.489,-396.854 582.749,-380.033 640.217,-367.681"/>
<polygon fill="midnightblue" stroke="midnightblue" points="641.292,-371.03 650.334,-365.507 639.821,-364.186 641.292,-371.03"/>
</g>
<!-- Node5 -->
<g id="node5" class="node"><title>Node5</title>
<g id="a_node5"><a doxygen="/home/ekaszubski/workspace/semio-ai/libsemio/libsemio.tag:https://semio-ai.github.io/libsemio/" xlink:href="https://semio-ai.github.io/libsemio/attention__recognizer_8h.html" target="_top" xlink:title="semio/recognition/attention\l_recognizer.h">
<polygon fill="none" stroke="black" points="162.5,-268.5 162.5,-298.5 296.5,-298.5 296.5,-268.5 162.5,-268.5"/>
<text text-anchor="start" x="170.5" y="-286.5" font-family="Helvetica,sans-Serif" font-size="10.00">semio/recognition/attention</text>
<text text-anchor="middle" x="229.5" y="-275.5" font-family="Helvetica,sans-Serif" font-size="10.00">_recognizer.h</text>
</a>
</g>
</g>
<!-- Node4&#45;&gt;Node5 -->
<g id="edge4" class="edge"><title>Node4&#45;&gt;Node5</title>
<path fill="none" stroke="midnightblue" d="M301.537,-335.396C288.758,-326.367 271.981,-314.514 257.834,-304.518"/>
<polygon fill="midnightblue" stroke="midnightblue" points="259.611,-301.488 249.424,-298.577 255.571,-307.205 259.611,-301.488"/>
</g>
<!-- Node6 -->
<g id="node6" class="node"><title>Node6</title>
<g id="a_node6"><a doxygen="/home/ekaszubski/workspace/semio-ai/libsemio/libsemio.tag:https://semio-ai.github.io/libsemio/" xlink:href="https://semio-ai.github.io/libsemio/humanoid_8h.html" target="_top" xlink:title="semio/humanoid.h">
<polygon fill="none" stroke="black" points="335.5,-207 335.5,-226 431.5,-226 431.5,-207 335.5,-207"/>
<text text-anchor="middle" x="383.5" y="-214" font-family="Helvetica,sans-Serif" font-size="10.00">semio/humanoid.h</text>
</a>
</g>
</g>
<!-- Node5&#45;&gt;Node6 -->
<g id="edge5" class="edge"><title>Node5&#45;&gt;Node6</title>
<path fill="none" stroke="midnightblue" d="M262.916,-268.396C290.056,-256.941 327.969,-240.938 353.998,-229.952"/>
<polygon fill="midnightblue" stroke="midnightblue" points="355.493,-233.12 363.345,-226.007 352.771,-226.671 355.493,-233.12"/>
</g>
<!-- Node7 -->
<g id="node7" class="node"><title>Node7</title>
<g id="a_node7"><a doxygen="/home/ekaszubski/workspace/semio-ai/libsemio/libsemio.tag:https://semio-ai.github.io/libsemio/" xlink:href="https://semio-ai.github.io/libsemio/top__n__list_8h.html" target="_top" xlink:title="semio/recognition/top\l_n_list.h">
<polygon fill="none" stroke="black" points="310.5,-134.5 310.5,-164.5 420.5,-164.5 420.5,-134.5 310.5,-134.5"/>
<text text-anchor="start" x="318.5" y="-152.5" font-family="Helvetica,sans-Serif" font-size="10.00">semio/recognition/top</text>
<text text-anchor="middle" x="365.5" y="-141.5" font-family="Helvetica,sans-Serif" font-size="10.00">_n_list.h</text>
</a>
</g>
</g>
<!-- Node5&#45;&gt;Node7 -->
<g id="edge9" class="edge"><title>Node5&#45;&gt;Node7</title>
<path fill="none" stroke="midnightblue" d="M244.054,-268.374C267.981,-245.151 315.756,-198.781 343.724,-171.636"/>
<polygon fill="midnightblue" stroke="midnightblue" points="346.312,-174.001 351.05,-164.525 341.437,-168.978 346.312,-174.001"/>
</g>
<!-- Node10 -->
<g id="node10" class="node"><title>Node10</title>
<g id="a_node10"><a doxygen="/home/ekaszubski/workspace/semio-ai/libsemio/libsemio.tag:https://semio-ai.github.io/libsemio/" xlink:href="https://semio-ai.github.io/libsemio/pdf__util_8h.html" target="_top" xlink:title="semio/math/pdf_util.h">
<polygon fill="none" stroke="black" points="133.5,-207 133.5,-226 243.5,-226 243.5,-207 133.5,-207"/>
<text text-anchor="middle" x="188.5" y="-214" font-family="Helvetica,sans-Serif" font-size="10.00">semio/math/pdf_util.h</text>
</a>
</g>
</g>
<!-- Node5&#45;&gt;Node10 -->
<g id="edge10" class="edge"><title>Node5&#45;&gt;Node10</title>
<path fill="none" stroke="midnightblue" d="M220.604,-268.396C214.401,-258.562 206.084,-245.378 199.47,-234.892"/>
<polygon fill="midnightblue" stroke="midnightblue" points="202.28,-232.785 193.984,-226.195 196.359,-236.52 202.28,-232.785"/>
</g>
<!-- Node6&#45;&gt;Node7 -->
<g id="edge6" class="edge"><title>Node6&#45;&gt;Node7</title>
<path fill="none" stroke="midnightblue" d="M381.072,-206.734C378.78,-198.456 375.237,-185.662 372.109,-174.367"/>
<polygon fill="midnightblue" stroke="midnightblue" points="375.443,-173.292 369.402,-164.589 368.697,-175.16 375.443,-173.292"/>
</g>
<!-- Node9 -->
<g id="node9" class="node"><title>Node9</title>
<g id="a_node9"><a doxygen="/home/ekaszubski/workspace/semio-ai/libsemio/libsemio.tag:https://semio-ai.github.io/libsemio/" xlink:href="https://semio-ai.github.io/libsemio/humanoid__impl_8h.html" target="_top" xlink:title="semio/humanoid_impl.h">
<polygon fill="none" stroke="black" points="439,-140 439,-159 558,-159 558,-140 439,-140"/>
<text text-anchor="middle" x="498.5" y="-147" font-family="Helvetica,sans-Serif" font-size="10.00">semio/humanoid_impl.h</text>
</a>
</g>
</g>
<!-- Node6&#45;&gt;Node9 -->
<g id="edge8" class="edge"><title>Node6&#45;&gt;Node9</title>
<path fill="none" stroke="midnightblue" d="M399.009,-206.734C418.408,-195.769 451.826,-176.881 474.528,-164.049"/>
<polygon fill="midnightblue" stroke="midnightblue" points="476.253,-167.095 483.236,-159.127 472.808,-161.001 476.253,-167.095"/>
</g>
<!-- Node8 -->
<g id="node8" class="node"><title>Node8</title>
<g id="a_node8"><a doxygen="/home/ekaszubski/workspace/semio-ai/libsemio/libsemio.tag:https://semio-ai.github.io/libsemio/" xlink:href="https://semio-ai.github.io/libsemio/top__n__list__impl_8h.html" target="_top" xlink:title="semio/recognition/top\l_n_list_impl.h">
<polygon fill="none" stroke="black" points="459.5,-67.5 459.5,-97.5 569.5,-97.5 569.5,-67.5 459.5,-67.5"/>
<text text-anchor="start" x="467.5" y="-85.5" font-family="Helvetica,sans-Serif" font-size="10.00">semio/recognition/top</text>
<text text-anchor="middle" x="514.5" y="-74.5" font-family="Helvetica,sans-Serif" font-size="10.00">_n_list_impl.h</text>
</a>
</g>
</g>
<!-- Node7&#45;&gt;Node8 -->
<g id="edge7" class="edge"><title>Node7&#45;&gt;Node8</title>
<path fill="none" stroke="midnightblue" d="M397.831,-134.396C419.797,-124.814 449.055,-112.05 472.776,-101.702"/>
<polygon fill="midnightblue" stroke="midnightblue" points="474.466,-104.783 482.232,-97.5765 471.667,-98.367 474.466,-104.783"/>
</g>
<!-- Node11 -->
<g id="node11" class="node"><title>Node11</title>
<g id="a_node11"><a doxygen="/home/ekaszubski/workspace/semio-ai/libsemio/libsemio.tag:https://semio-ai.github.io/libsemio/" xlink:href="https://semio-ai.github.io/libsemio/probability__distribution_8h.html" target="_top" xlink:title="semio/math/probability\l_distribution.h">
<polygon fill="none" stroke="black" points="159,-0.5 159,-30.5 274,-30.5 274,-0.5 159,-0.5"/>
<text text-anchor="start" x="167" y="-18.5" font-family="Helvetica,sans-Serif" font-size="10.00">semio/math/probability</text>
<text text-anchor="middle" x="216.5" y="-7.5" font-family="Helvetica,sans-Serif" font-size="10.00">_distribution.h</text>
</a>
</g>
</g>
<!-- Node10&#45;&gt;Node11 -->
<g id="edge11" class="edge"><title>Node10&#45;&gt;Node11</title>
<path fill="none" stroke="midnightblue" d="M187.516,-206.967C185.12,-183.967 180.054,-118.916 192.5,-67 194.712,-57.7728 198.734,-48.2293 202.861,-39.9564"/>
<polygon fill="midnightblue" stroke="midnightblue" points="206.058,-41.3977 207.652,-30.9234 199.874,-38.1177 206.058,-41.3977"/>
</g>
<!-- Node12 -->
<g id="node12" class="node"><title>Node12</title>
<g id="a_node12"><a doxygen="/home/ekaszubski/workspace/semio-ai/libsemio/libsemio.tag:https://semio-ai.github.io/libsemio/" xlink:href="https://semio-ai.github.io/libsemio/gaussian_8h.html" target="_top" xlink:title="semio/math/gaussian.h">
<polygon fill="none" stroke="black" points="201.5,-73 201.5,-92 319.5,-92 319.5,-73 201.5,-73"/>
<text text-anchor="middle" x="260.5" y="-80" font-family="Helvetica,sans-Serif" font-size="10.00">semio/math/gaussian.h</text>
</a>
</g>
</g>
<!-- Node10&#45;&gt;Node12 -->
<g id="edge12" class="edge"><title>Node10&#45;&gt;Node12</title>
<path fill="none" stroke="midnightblue" d="M193.224,-206.839C204.922,-185.393 235.415,-129.489 251.012,-100.895"/>
<polygon fill="midnightblue" stroke="midnightblue" points="254.136,-102.476 255.852,-92.0212 247.991,-99.1241 254.136,-102.476"/>
</g>
<!-- Node13 -->
<g id="node13" class="node"><title>Node13</title>
<g id="a_node13"><a doxygen="/home/ekaszubski/workspace/semio-ai/libsemio/libsemio.tag:https://semio-ai.github.io/libsemio/" xlink:href="https://semio-ai.github.io/libsemio/uniform__distribution_8h.html" target="_top" xlink:title="semio/math/uniform\l_distribution.h">
<polygon fill="none" stroke="black" points="338,-67.5 338,-97.5 441,-97.5 441,-67.5 338,-67.5"/>
<text text-anchor="start" x="346" y="-85.5" font-family="Helvetica,sans-Serif" font-size="10.00">semio/math/uniform</text>
<text text-anchor="middle" x="389.5" y="-74.5" font-family="Helvetica,sans-Serif" font-size="10.00">_distribution.h</text>
</a>
</g>
</g>
<!-- Node10&#45;&gt;Node13 -->
<g id="edge14" class="edge"><title>Node10&#45;&gt;Node13</title>
<path fill="none" stroke="midnightblue" d="M199.775,-206.767C219.8,-191.394 263.084,-158.782 301.5,-134 318.452,-123.065 337.848,-111.807 354.109,-102.704"/>
<polygon fill="midnightblue" stroke="midnightblue" points="356.235,-105.526 363.279,-97.6114 352.837,-99.4065 356.235,-105.526"/>
</g>
<!-- Node14 -->
<g id="node14" class="node"><title>Node14</title>
<g id="a_node14"><a doxygen="/home/ekaszubski/workspace/semio-ai/libsemio/libsemio.tag:https://semio-ai.github.io/libsemio/" xlink:href="https://semio-ai.github.io/libsemio/von__mises_8h.html" target="_top" xlink:title="semio/math/von_mises.h">
<polygon fill="none" stroke="black" points="19.5,-73 19.5,-92 145.5,-92 145.5,-73 19.5,-73"/>
<text text-anchor="middle" x="82.5" y="-80" font-family="Helvetica,sans-Serif" font-size="10.00">semio/math/von_mises.h</text>
</a>
</g>
</g>
<!-- Node10&#45;&gt;Node14 -->
<g id="edge16" class="edge"><title>Node10&#45;&gt;Node14</title>
<path fill="none" stroke="midnightblue" d="M181.545,-206.839C164.173,-185.205 118.645,-128.51 95.8723,-100.152"/>
<polygon fill="midnightblue" stroke="midnightblue" points="98.3332,-97.6269 89.3428,-92.0212 92.8751,-102.01 98.3332,-97.6269"/>
</g>
<!-- Node15 -->
<g id="node15" class="node"><title>Node15</title>
<g id="a_node15"><a doxygen="/home/ekaszubski/workspace/semio-ai/libsemio/libsemio.tag:https://semio-ai.github.io/libsemio/" xlink:href="https://semio-ai.github.io/libsemio/wrapped__normal_8h.html" target="_top" xlink:title="semio/math/wrapped\l_normal.h">
<polygon fill="none" stroke="black" points="-7.10543e-15,-134.5 -7.10543e-15,-164.5 107,-164.5 107,-134.5 -7.10543e-15,-134.5"/>
<text text-anchor="start" x="8" y="-152.5" font-family="Helvetica,sans-Serif" font-size="10.00">semio/math/wrapped</text>
<text text-anchor="middle" x="53.5" y="-141.5" font-family="Helvetica,sans-Serif" font-size="10.00">_normal.h</text>
</a>
</g>
</g>
<!-- Node10&#45;&gt;Node15 -->
<g id="edge18" class="edge"><title>Node10&#45;&gt;Node15</title>
<path fill="none" stroke="midnightblue" d="M170.573,-206.869C150.579,-197.242 117.652,-181.388 91.8016,-168.942"/>
<polygon fill="midnightblue" stroke="midnightblue" points="93.1636,-165.713 82.6352,-164.528 90.1269,-172.02 93.1636,-165.713"/>
</g>
<!-- Node12&#45;&gt;Node11 -->
<g id="edge13" class="edge"><title>Node12&#45;&gt;Node11</title>
<path fill="none" stroke="midnightblue" d="M254.566,-72.7338C248.734,-64.1183 239.59,-50.61 231.726,-38.9923"/>
<polygon fill="midnightblue" stroke="midnightblue" points="234.541,-36.9081 226.037,-30.589 228.744,-40.8321 234.541,-36.9081"/>
</g>
<!-- Node13&#45;&gt;Node11 -->
<g id="edge15" class="edge"><title>Node13&#45;&gt;Node11</title>
<path fill="none" stroke="midnightblue" d="M351.962,-67.396C326.004,-57.6432 291.276,-44.5949 263.481,-34.152"/>
<polygon fill="midnightblue" stroke="midnightblue" points="264.557,-30.8174 253.965,-30.5765 262.095,-37.3701 264.557,-30.8174"/>
</g>
<!-- Node14&#45;&gt;Node11 -->
<g id="edge17" class="edge"><title>Node14&#45;&gt;Node11</title>
<path fill="none" stroke="midnightblue" d="M100.294,-72.8685C120.14,-63.2417 152.824,-47.3878 178.482,-34.9415"/>
<polygon fill="midnightblue" stroke="midnightblue" points="180.111,-38.0416 187.581,-30.5281 177.056,-31.7434 180.111,-38.0416"/>
</g>
<!-- Node15&#45;&gt;Node14 -->
<g id="edge19" class="edge"><title>Node15&#45;&gt;Node14</title>
<path fill="none" stroke="midnightblue" d="M59.7926,-134.396C64.0905,-124.763 69.8228,-111.914 74.4526,-101.537"/>
<polygon fill="midnightblue" stroke="midnightblue" points="77.7427,-102.753 78.6209,-92.1945 71.3501,-99.9008 77.7427,-102.753"/>
</g>
<!-- Node17 -->
<g id="node17" class="node"><title>Node17</title>
<g id="a_node17"><a doxygen="/home/ekaszubski/workspace/semio-ai/libsemio/libsemio.tag:https://semio-ai.github.io/libsemio/" xlink:href="https://semio-ai.github.io/libsemio/humanoid__source_8h.html" target="_top" xlink:title="semio/recognition/humanoid\l_source.h">
<polygon fill="none" stroke="black" points="644.5,-268.5 644.5,-298.5 782.5,-298.5 782.5,-268.5 644.5,-268.5"/>
<text text-anchor="start" x="652.5" y="-286.5" font-family="Helvetica,sans-Serif" font-size="10.00">semio/recognition/humanoid</text>
<text text-anchor="middle" x="713.5" y="-275.5" font-family="Helvetica,sans-Serif" font-size="10.00">_source.h</text>
</a>
</g>
</g>
<!-- Node16&#45;&gt;Node17 -->
<g id="edge21" class="edge"><title>Node16&#45;&gt;Node17</title>
<path fill="none" stroke="midnightblue" d="M606.227,-335.396C626.244,-325.899 652.848,-313.276 674.554,-302.978"/>
<polygon fill="midnightblue" stroke="midnightblue" points="676.297,-306.025 683.831,-298.577 673.296,-299.701 676.297,-306.025"/>
</g>
<!-- Node19 -->
<g id="node19" class="node"><title>Node19</title>
<polygon fill="none" stroke="#bfbfbf" points="530.5,-274 530.5,-293 626.5,-293 626.5,-274 530.5,-274"/>
<text text-anchor="middle" x="578.5" y="-281" font-family="Helvetica,sans-Serif" font-size="10.00">ros/node_handle.h</text>
</g>
<!-- Node16&#45;&gt;Node19 -->
<g id="edge24" class="edge"><title>Node16&#45;&gt;Node19</title>
<path fill="none" stroke="midnightblue" d="M576.934,-335.396C577.221,-326.064 577.601,-313.714 577.915,-303.517"/>
<polygon fill="midnightblue" stroke="midnightblue" points="581.423,-303.297 578.232,-293.195 574.426,-303.082 581.423,-303.297"/>
</g>
<!-- Node20 -->
<g id="node20" class="node"><title>Node20</title>
<polygon fill="none" stroke="#bfbfbf" points="471,-274 471,-293 512,-293 512,-274 471,-274"/>
<text text-anchor="middle" x="491.5" y="-281" font-family="Helvetica,sans-Serif" font-size="10.00">string</text>
</g>
<!-- Node16&#45;&gt;Node20 -->
<g id="edge25" class="edge"><title>Node16&#45;&gt;Node20</title>
<path fill="none" stroke="midnightblue" d="M558.056,-335.396C544.147,-324.759 525.111,-310.203 510.96,-299.381"/>
<polygon fill="midnightblue" stroke="midnightblue" points="512.939,-296.489 502.87,-293.195 508.687,-302.049 512.939,-296.489"/>
</g>
<!-- Node17&#45;&gt;Node6 -->
<g id="edge22" class="edge"><title>Node17&#45;&gt;Node6</title>
<path fill="none" stroke="midnightblue" d="M644.321,-268.874C582.582,-256.713 493.451,-239.157 437.014,-228.041"/>
<polygon fill="midnightblue" stroke="midnightblue" points="437.359,-224.541 426.871,-226.043 436.006,-231.409 437.359,-224.541"/>
</g>
<!-- Node18 -->
<g id="node18" class="node"><title>Node18</title>
<g id="a_node18"><a doxygen="/home/ekaszubski/workspace/semio-ai/libsemio/libsemio.tag:https://semio-ai.github.io/libsemio/" xlink:href="https://semio-ai.github.io/libsemio/humanoid__source__impl_8h.html" target="_top" xlink:title="semio/recognition/humanoid\l_source_impl.h">
<polygon fill="none" stroke="black" points="644.5,-201.5 644.5,-231.5 782.5,-231.5 782.5,-201.5 644.5,-201.5"/>
<text text-anchor="start" x="652.5" y="-219.5" font-family="Helvetica,sans-Serif" font-size="10.00">semio/recognition/humanoid</text>
<text text-anchor="middle" x="713.5" y="-208.5" font-family="Helvetica,sans-Serif" font-size="10.00">_source_impl.h</text>
</a>
</g>
</g>
<!-- Node17&#45;&gt;Node18 -->
<g id="edge23" class="edge"><title>Node17&#45;&gt;Node18</title>
<path fill="none" stroke="midnightblue" d="M713.5,-268.396C713.5,-260.645 713.5,-250.812 713.5,-241.86"/>
<polygon fill="midnightblue" stroke="midnightblue" points="717,-241.576 713.5,-231.577 710,-241.577 717,-241.576"/>
</g>
<!-- Node21&#45;&gt;Node19 -->
<g id="edge29" class="edge"><title>Node21&#45;&gt;Node19</title>
<path fill="none" stroke="midnightblue" d="M481.406,-335.396C502.778,-324.193 532.446,-308.641 553.347,-297.685"/>
<polygon fill="midnightblue" stroke="midnightblue" points="555.039,-300.75 562.271,-293.007 551.789,-294.55 555.039,-300.75"/>
</g>
<!-- Node21&#45;&gt;Node20 -->
<g id="edge30" class="edge"><title>Node21&#45;&gt;Node20</title>
<path fill="none" stroke="midnightblue" d="M462.528,-335.396C468.126,-325.562 475.631,-312.378 481.6,-301.892"/>
<polygon fill="midnightblue" stroke="midnightblue" points="484.646,-303.617 486.551,-293.195 478.562,-300.154 484.646,-303.617"/>
</g>
<!-- Node22 -->
<g id="node22" class="node"><title>Node22</title>
<g id="a_node22"><a doxygen="/home/ekaszubski/workspace/semio-ai/libsemio/libsemio.tag:https://semio-ai.github.io/libsemio/" xlink:href="https://semio-ai.github.io/libsemio/humanoid__sink_8h.html" target="_top" xlink:title="semio/recognition/humanoid\l_sink.h">
<polygon fill="none" stroke="black" points="314.5,-268.5 314.5,-298.5 452.5,-298.5 452.5,-268.5 314.5,-268.5"/>
<text text-anchor="start" x="322.5" y="-286.5" font-family="Helvetica,sans-Serif" font-size="10.00">semio/recognition/humanoid</text>
<text text-anchor="middle" x="383.5" y="-275.5" font-family="Helvetica,sans-Serif" font-size="10.00">_sink.h</text>
</a>
</g>
</g>
<!-- Node21&#45;&gt;Node22 -->
<g id="edge27" class="edge"><title>Node21&#45;&gt;Node22</title>
<path fill="none" stroke="midnightblue" d="M439.094,-335.396C429.511,-326.623 417.015,-315.183 406.298,-305.371"/>
<polygon fill="midnightblue" stroke="midnightblue" points="408.615,-302.748 398.876,-298.577 403.888,-307.911 408.615,-302.748"/>
</g>
<!-- Node22&#45;&gt;Node6 -->
<g id="edge28" class="edge"><title>Node22&#45;&gt;Node6</title>
<path fill="none" stroke="midnightblue" d="M383.5,-268.396C383.5,-259.064 383.5,-246.714 383.5,-236.517"/>
<polygon fill="midnightblue" stroke="midnightblue" points="387,-236.195 383.5,-226.195 380,-236.195 387,-236.195"/>
</g>
<!-- Node23&#45;&gt;Node17 -->
<g id="edge32" class="edge"><title>Node23&#45;&gt;Node17</title>
<path fill="none" stroke="midnightblue" d="M715.066,-335.396C714.828,-327.645 714.525,-317.812 714.25,-308.86"/>
<polygon fill="midnightblue" stroke="midnightblue" points="717.739,-308.464 713.933,-298.577 710.742,-308.679 717.739,-308.464"/>
</g>
</g>
</svg>
