<?xml version="1.0" encoding="UTF-8" standalone="no"?>
<!DOCTYPE svg PUBLIC "-//W3C//DTD SVG 1.1//EN"
 "http://www.w3.org/Graphics/SVG/1.1/DTD/svg11.dtd">
<!-- Generated by graphviz version 2.38.0 (20140413.2041)
 -->
<!-- Title: semio_humanoid_ros/src/humanoid_sink_adapter.cpp Pages: 1 -->
<svg width="490pt" height="363pt"
 viewBox="0.00 0.00 489.50 363.00" xmlns="http://www.w3.org/2000/svg" xmlns:xlink="http://www.w3.org/1999/xlink">
<g id="graph0" class="graph" transform="scale(1 1) rotate(0) translate(4 359)">
<title>semio_humanoid_ros/src/humanoid_sink_adapter.cpp</title>
<!-- Node1 -->
<g id="node1" class="node"><title>Node1</title>
<polygon fill="#bfbfbf" stroke="black" points="227,-324.5 227,-354.5 385,-354.5 385,-324.5 227,-324.5"/>
<text text-anchor="start" x="235" y="-342.5" font-family="Helvetica,sans-Serif" font-size="10.00">semio_humanoid_ros</text>
<text text-anchor="middle" x="306" y="-331.5" font-family="Helvetica,sans-Serif" font-size="10.00">/src/humanoid_sink_adapter.cpp</text>
</g>
<!-- Node2 -->
<g id="node2" class="node"><title>Node2</title>
<g id="a_node2"><a xlink:href="humanoid__sink__adapter_8h.html" target="_top" xlink:title="semio/ros/humanoid\l_sink_adapter.h">
<polygon fill="none" stroke="black" points="318,-257.5 318,-287.5 422,-287.5 422,-257.5 318,-257.5"/>
<text text-anchor="start" x="326" y="-275.5" font-family="Helvetica,sans-Serif" font-size="10.00">semio/ros/humanoid</text>
<text text-anchor="middle" x="370" y="-264.5" font-family="Helvetica,sans-Serif" font-size="10.00">_sink_adapter.h</text>
</a>
</g>
</g>
<!-- Node1&#45;&gt;Node2 -->
<g id="edge1" class="edge"><title>Node1&#45;&gt;Node2</title>
<path fill="none" stroke="midnightblue" d="M319.887,-324.396C328.358,-315.793 339.353,-304.626 348.885,-294.945"/>
<polygon fill="midnightblue" stroke="midnightblue" points="351.618,-297.158 356.14,-287.577 346.63,-292.247 351.618,-297.158"/>
</g>
<!-- Node10 -->
<g id="node10" class="node"><title>Node10</title>
<g id="a_node10"><a xlink:href="humanoid__sink__ros_8h.html" target="_top" xlink:title="semio/ros/humanoid\l_sink_ros.h">
<polygon fill="none" stroke="black" points="190,-257.5 190,-287.5 294,-287.5 294,-257.5 190,-257.5"/>
<text text-anchor="start" x="198" y="-275.5" font-family="Helvetica,sans-Serif" font-size="10.00">semio/ros/humanoid</text>
<text text-anchor="middle" x="242" y="-264.5" font-family="Helvetica,sans-Serif" font-size="10.00">_sink_ros.h</text>
</a>
</g>
</g>
<!-- Node1&#45;&gt;Node10 -->
<g id="edge9" class="edge"><title>Node1&#45;&gt;Node10</title>
<path fill="none" stroke="midnightblue" d="M292.113,-324.396C283.642,-315.793 272.647,-304.626 263.115,-294.945"/>
<polygon fill="midnightblue" stroke="midnightblue" points="265.37,-292.247 255.86,-287.577 260.382,-297.158 265.37,-292.247"/>
</g>
<!-- Node3 -->
<g id="node3" class="node"><title>Node3</title>
<g id="a_node3"><a doxygen="/home/ekaszubski/workspace/semio-ai/libsemio/libsemio.tag:https://semio-ai.github.io/libsemio/" xlink:href="https://semio-ai.github.io/libsemio/humanoid__sink_8h.html" target="_top" xlink:title="semio/recognition/humanoid\l_sink.h">
<polygon fill="none" stroke="black" points="170,-190.5 170,-220.5 308,-220.5 308,-190.5 170,-190.5"/>
<text text-anchor="start" x="178" y="-208.5" font-family="Helvetica,sans-Serif" font-size="10.00">semio/recognition/humanoid</text>
<text text-anchor="middle" x="239" y="-197.5" font-family="Helvetica,sans-Serif" font-size="10.00">_sink.h</text>
</a>
</g>
</g>
<!-- Node2&#45;&gt;Node3 -->
<g id="edge2" class="edge"><title>Node2&#45;&gt;Node3</title>
<path fill="none" stroke="midnightblue" d="M341.575,-257.396C322.52,-247.941 297.224,-235.39 276.52,-225.117"/>
<polygon fill="midnightblue" stroke="midnightblue" points="277.883,-221.886 267.37,-220.577 274.772,-228.157 277.883,-221.886"/>
</g>
<!-- Node8 -->
<g id="node8" class="node"><title>Node8</title>
<polygon fill="none" stroke="#bfbfbf" points="326,-196 326,-215 422,-215 422,-196 326,-196"/>
<text text-anchor="middle" x="374" y="-203" font-family="Helvetica,sans-Serif" font-size="10.00">ros/node_handle.h</text>
</g>
<!-- Node2&#45;&gt;Node8 -->
<g id="edge7" class="edge"><title>Node2&#45;&gt;Node8</title>
<path fill="none" stroke="midnightblue" d="M370.868,-257.396C371.448,-247.963 372.219,-235.448 372.85,-225.189"/>
<polygon fill="midnightblue" stroke="midnightblue" points="376.344,-225.391 373.465,-215.195 369.357,-224.961 376.344,-225.391"/>
</g>
<!-- Node9 -->
<g id="node9" class="node"><title>Node9</title>
<polygon fill="none" stroke="#bfbfbf" points="440.5,-196 440.5,-215 481.5,-215 481.5,-196 440.5,-196"/>
<text text-anchor="middle" x="461" y="-203" font-family="Helvetica,sans-Serif" font-size="10.00">string</text>
</g>
<!-- Node2&#45;&gt;Node9 -->
<g id="edge8" class="edge"><title>Node2&#45;&gt;Node9</title>
<path fill="none" stroke="midnightblue" d="M389.746,-257.396C404.865,-246.597 425.641,-231.756 440.858,-220.887"/>
<polygon fill="midnightblue" stroke="midnightblue" points="442.987,-223.667 449.09,-215.007 438.918,-217.971 442.987,-223.667"/>
</g>
<!-- Node4 -->
<g id="node4" class="node"><title>Node4</title>
<g id="a_node4"><a doxygen="/home/ekaszubski/workspace/semio-ai/libsemio/libsemio.tag:https://semio-ai.github.io/libsemio/" xlink:href="https://semio-ai.github.io/libsemio/humanoid_8h.html" target="_top" xlink:title="semio/humanoid.h">
<polygon fill="none" stroke="black" points="191,-134.5 191,-153.5 287,-153.5 287,-134.5 191,-134.5"/>
<text text-anchor="middle" x="239" y="-141.5" font-family="Helvetica,sans-Serif" font-size="10.00">semio/humanoid.h</text>
</a>
</g>
</g>
<!-- Node3&#45;&gt;Node4 -->
<g id="edge3" class="edge"><title>Node3&#45;&gt;Node4</title>
<path fill="none" stroke="midnightblue" d="M239,-190.399C239,-182.466 239,-172.458 239,-163.858"/>
<polygon fill="midnightblue" stroke="midnightblue" points="242.5,-163.658 239,-153.658 235.5,-163.658 242.5,-163.658"/>
</g>
<!-- Node5 -->
<g id="node5" class="node"><title>Node5</title>
<g id="a_node5"><a doxygen="/home/ekaszubski/workspace/semio-ai/libsemio/libsemio.tag:https://semio-ai.github.io/libsemio/" xlink:href="https://semio-ai.github.io/libsemio/top__n__list_8h.html" target="_top" xlink:title="semio/recognition/top\l_n_list.h">
<polygon fill="none" stroke="black" points="118,-67.5 118,-97.5 228,-97.5 228,-67.5 118,-67.5"/>
<text text-anchor="start" x="126" y="-85.5" font-family="Helvetica,sans-Serif" font-size="10.00">semio/recognition/top</text>
<text text-anchor="middle" x="173" y="-74.5" font-family="Helvetica,sans-Serif" font-size="10.00">_n_list.h</text>
</a>
</g>
</g>
<!-- Node4&#45;&gt;Node5 -->
<g id="edge4" class="edge"><title>Node4&#45;&gt;Node5</title>
<path fill="none" stroke="midnightblue" d="M229.544,-134.475C220.856,-126.643 207.624,-114.714 196.145,-104.366"/>
<polygon fill="midnightblue" stroke="midnightblue" points="198.326,-101.619 188.555,-97.523 193.639,-106.818 198.326,-101.619"/>
</g>
<!-- Node7 -->
<g id="node7" class="node"><title>Node7</title>
<g id="a_node7"><a doxygen="/home/ekaszubski/workspace/semio-ai/libsemio/libsemio.tag:https://semio-ai.github.io/libsemio/" xlink:href="https://semio-ai.github.io/libsemio/humanoid__impl_8h.html" target="_top" xlink:title="semio/humanoid_impl.h">
<polygon fill="none" stroke="black" points="246.5,-73 246.5,-92 365.5,-92 365.5,-73 246.5,-73"/>
<text text-anchor="middle" x="306" y="-80" font-family="Helvetica,sans-Serif" font-size="10.00">semio/humanoid_impl.h</text>
</a>
</g>
</g>
<!-- Node4&#45;&gt;Node7 -->
<g id="edge6" class="edge"><title>Node4&#45;&gt;Node7</title>
<path fill="none" stroke="midnightblue" d="M248.599,-134.475C259.048,-125.197 275.968,-110.171 288.736,-98.831"/>
<polygon fill="midnightblue" stroke="midnightblue" points="291.265,-101.266 296.418,-92.0091 286.617,-96.0323 291.265,-101.266"/>
</g>
<!-- Node6 -->
<g id="node6" class="node"><title>Node6</title>
<g id="a_node6"><a doxygen="/home/ekaszubski/workspace/semio-ai/libsemio/libsemio.tag:https://semio-ai.github.io/libsemio/" xlink:href="https://semio-ai.github.io/libsemio/top__n__list__impl_8h.html" target="_top" xlink:title="semio/recognition/top\l_n_list_impl.h">
<polygon fill="none" stroke="black" points="118,-0.5 118,-30.5 228,-30.5 228,-0.5 118,-0.5"/>
<text text-anchor="start" x="126" y="-18.5" font-family="Helvetica,sans-Serif" font-size="10.00">semio/recognition/top</text>
<text text-anchor="middle" x="173" y="-7.5" font-family="Helvetica,sans-Serif" font-size="10.00">_n_list_impl.h</text>
</a>
</g>
</g>
<!-- Node5&#45;&gt;Node6 -->
<g id="edge5" class="edge"><title>Node5&#45;&gt;Node6</title>
<path fill="none" stroke="midnightblue" d="M173,-67.396C173,-59.6448 173,-49.8122 173,-40.8601"/>
<polygon fill="midnightblue" stroke="midnightblue" points="176.5,-40.5765 173,-30.5765 169.5,-40.5765 176.5,-40.5765"/>
</g>
<!-- Node10&#45;&gt;Node3 -->
<g id="edge10" class="edge"><title>Node10&#45;&gt;Node3</title>
<path fill="none" stroke="midnightblue" d="M241.349,-257.396C240.991,-249.645 240.537,-239.812 240.124,-230.86"/>
<polygon fill="midnightblue" stroke="midnightblue" points="243.607,-230.404 239.65,-220.577 236.615,-230.727 243.607,-230.404"/>
</g>
<!-- Node10&#45;&gt;Node8 -->
<g id="edge11" class="edge"><title>Node10&#45;&gt;Node8</title>
<path fill="none" stroke="midnightblue" d="M270.642,-257.396C293.495,-246.142 325.259,-230.501 347.524,-219.538"/>
<polygon fill="midnightblue" stroke="midnightblue" points="349.299,-222.565 356.724,-215.007 346.207,-216.285 349.299,-222.565"/>
</g>
<!-- Node11 -->
<g id="node11" class="node"><title>Node11</title>
<polygon fill="none" stroke="#bfbfbf" points="0,-196 0,-215 152,-215 152,-196 0,-196"/>
<text text-anchor="middle" x="76" y="-203" font-family="Helvetica,sans-Serif" font-size="10.00">semio_msgs_ros/Humanoids.h</text>
</g>
<!-- Node10&#45;&gt;Node11 -->
<g id="edge12" class="edge"><title>Node10&#45;&gt;Node11</title>
<path fill="none" stroke="midnightblue" d="M205.98,-257.396C176.467,-245.84 135.137,-229.656 107.062,-218.663"/>
<polygon fill="midnightblue" stroke="midnightblue" points="108.313,-215.394 97.7256,-215.007 105.761,-221.912 108.313,-215.394"/>
</g>
</g>
</svg>
