<?xml version="1.0" encoding="UTF-8" standalone="no"?>
<!DOCTYPE svg PUBLIC "-//W3C//DTD SVG 1.1//EN"
 "http://www.w3.org/Graphics/SVG/1.1/DTD/svg11.dtd">
<!-- Generated by graphviz version 2.38.0 (20140413.2041)
 -->
<!-- Title: semio_humanoid_ros/include/semio/ros/humanoid_sink_adapter.h Pages: 1 -->
<svg width="596pt" height="128pt"
 viewBox="0.00 0.00 596.00 128.00" xmlns="http://www.w3.org/2000/svg" xmlns:xlink="http://www.w3.org/1999/xlink">
<g id="graph0" class="graph" transform="scale(1 1) rotate(0) translate(4 124)">
<title>semio_humanoid_ros/include/semio/ros/humanoid_sink_adapter.h</title>
<!-- Node1 -->
<g id="node1" class="node"><title>Node1</title>
<polygon fill="#bfbfbf" stroke="black" points="209.5,-78.5 209.5,-119.5 350.5,-119.5 350.5,-78.5 209.5,-78.5"/>
<text text-anchor="start" x="217.5" y="-107.5" font-family="Helvetica,sans-Serif" font-size="10.00">semio_humanoid_ros</text>
<text text-anchor="start" x="217.5" y="-96.5" font-family="Helvetica,sans-Serif" font-size="10.00">/include/semio/ros/humanoid</text>
<text text-anchor="middle" x="280" y="-85.5" font-family="Helvetica,sans-Serif" font-size="10.00">_sink_adapter.h</text>
</g>
<!-- Node2 -->
<g id="node2" class="node"><title>Node2</title>
<g id="a_node2"><a xlink:href="example__attention__targets__node_8cpp.html" target="_top" xlink:title="semio_attention_ros\l/nodes/example_attention\l_targets_node.cpp">
<polygon fill="none" stroke="black" points="0,-0.5 0,-41.5 128,-41.5 128,-0.5 0,-0.5"/>
<text text-anchor="start" x="8" y="-29.5" font-family="Helvetica,sans-Serif" font-size="10.00">semio_attention_ros</text>
<text text-anchor="start" x="8" y="-18.5" font-family="Helvetica,sans-Serif" font-size="10.00">/nodes/example_attention</text>
<text text-anchor="middle" x="64" y="-7.5" font-family="Helvetica,sans-Serif" font-size="10.00">_targets_node.cpp</text>
</a>
</g>
</g>
<!-- Node1&#45;&gt;Node2 -->
<g id="edge1" class="edge"><title>Node1&#45;&gt;Node2</title>
<path fill="none" stroke="midnightblue" d="M214.707,-75.0264C184.299,-64.3275 148.508,-51.7343 119.437,-41.5056"/>
<polygon fill="midnightblue" stroke="midnightblue" points="213.78,-78.4106 224.375,-78.4281 216.103,-71.8074 213.78,-78.4106"/>
</g>
<!-- Node3 -->
<g id="node3" class="node"><title>Node3</title>
<g id="a_node3"><a xlink:href="example__deictic__targets__node_8cpp.html" target="_top" xlink:title="semio_deixis_ros/nodes\l/example_deictic_targets\l_node.cpp">
<polygon fill="none" stroke="black" points="146.5,-0.5 146.5,-41.5 271.5,-41.5 271.5,-0.5 146.5,-0.5"/>
<text text-anchor="start" x="154.5" y="-29.5" font-family="Helvetica,sans-Serif" font-size="10.00">semio_deixis_ros/nodes</text>
<text text-anchor="start" x="154.5" y="-18.5" font-family="Helvetica,sans-Serif" font-size="10.00">/example_deictic_targets</text>
<text text-anchor="middle" x="209" y="-7.5" font-family="Helvetica,sans-Serif" font-size="10.00">_node.cpp</text>
</a>
</g>
</g>
<!-- Node1&#45;&gt;Node3 -->
<g id="edge2" class="edge"><title>Node1&#45;&gt;Node3</title>
<path fill="none" stroke="midnightblue" d="M254.698,-70.9158C245.624,-61.2029 235.578,-50.4502 227.222,-41.5056"/>
<polygon fill="midnightblue" stroke="midnightblue" points="252.332,-73.5101 261.716,-78.4281 257.447,-68.7314 252.332,-73.5101"/>
</g>
<!-- Node4 -->
<g id="node4" class="node"><title>Node4</title>
<g id="a_node4"><a xlink:href="semio__humanoid__server__node_8cpp.html" target="_top" xlink:title="semio_humanoid_ros\l/nodes/semio_humanoid\l_server_node.cpp">
<polygon fill="none" stroke="black" points="290,-0.5 290,-41.5 412,-41.5 412,-0.5 290,-0.5"/>
<text text-anchor="start" x="298" y="-29.5" font-family="Helvetica,sans-Serif" font-size="10.00">semio_humanoid_ros</text>
<text text-anchor="start" x="298" y="-18.5" font-family="Helvetica,sans-Serif" font-size="10.00">/nodes/semio_humanoid</text>
<text text-anchor="middle" x="351" y="-7.5" font-family="Helvetica,sans-Serif" font-size="10.00">_server_node.cpp</text>
</a>
</g>
</g>
<!-- Node1&#45;&gt;Node4 -->
<g id="edge3" class="edge"><title>Node1&#45;&gt;Node4</title>
<path fill="none" stroke="midnightblue" d="M305.302,-70.9158C314.376,-61.2029 324.422,-50.4502 332.778,-41.5056"/>
<polygon fill="midnightblue" stroke="midnightblue" points="302.553,-68.7314 298.284,-78.4281 307.668,-73.5101 302.553,-68.7314"/>
</g>
<!-- Node5 -->
<g id="node5" class="node"><title>Node5</title>
<g id="a_node5"><a xlink:href="humanoid__sink__adapter_8cpp.html" target="_top" xlink:title="semio_humanoid_ros\l/src/humanoid_sink_adapter.cpp">
<polygon fill="none" stroke="black" points="430,-6 430,-36 588,-36 588,-6 430,-6"/>
<text text-anchor="start" x="438" y="-24" font-family="Helvetica,sans-Serif" font-size="10.00">semio_humanoid_ros</text>
<text text-anchor="middle" x="509" y="-13" font-family="Helvetica,sans-Serif" font-size="10.00">/src/humanoid_sink_adapter.cpp</text>
</a>
</g>
</g>
<!-- Node1&#45;&gt;Node5 -->
<g id="edge4" class="edge"><title>Node1&#45;&gt;Node5</title>
<path fill="none" stroke="midnightblue" d="M348.526,-75.2577C386.852,-62.5383 433.418,-47.0841 466.495,-36.1065"/>
<polygon fill="midnightblue" stroke="midnightblue" points="347.362,-71.9564 338.973,-78.4281 349.567,-78.6 347.362,-71.9564"/>
</g>
</g>
</svg>
