<?xml version="1.0" encoding="UTF-8" standalone="no"?>
<!DOCTYPE svg PUBLIC "-//W3C//DTD SVG 1.1//EN"
 "http://www.w3.org/Graphics/SVG/1.1/DTD/svg11.dtd">
<!-- Generated by graphviz version 2.38.0 (20140413.2041)
 -->
<!-- Title: semio_humanoid_ros/src/humanoid_source_adapter.cpp Pages: 1 -->
<!--zoomable 385 -->
<svg id="main" version="1.1" xmlns="http://www.w3.org/2000/svg" xmlns:xlink="http://www.w3.org/1999/xlink" xml:space="preserve" onload="init(evt)">
<style type="text/css"><![CDATA[
.edge:hover path { stroke: red; }
.edge:hover polygon { stroke: red; fill: red; }
]]></style>
<script type="text/javascript"><![CDATA[
var edges = document.getElementsByTagName('g');
if (edges && edges.length) {
  for (var i=0;i<edges.length;i++) {
    if (edges[i].id.substr(0,4)=='edge') {
      edges[i].setAttribute('class','edge');
    }
  }
}
]]></script>
        <defs>
                <circle id="rim" cx="0" cy="0" r="7"/>
                <circle id="rim2" cx="0" cy="0" r="3.5"/>
                <g id="zoomPlus">
                        <use xlink:href="#rim" fill="#404040">
                                <set attributeName="fill" to="#808080" begin="zoomplus.mouseover" end="zoomplus.mouseout"/>
                        </use>
                        <path d="M-4,0h8M0,-4v8" fill="none" stroke="white" stroke-width="1.5" pointer-events="none"/>
                </g>
                <g id="zoomMin">
                        <use xlink:href="#rim" fill="#404040">
                                <set attributeName="fill" to="#808080" begin="zoomminus.mouseover" end="zoomminus.mouseout"/>
                        </use>
                        <path d="M-4,0h8" fill="none" stroke="white" stroke-width="1.5" pointer-events="none"/>
                </g>
                <g id="dirArrow">
                        <path fill="none" stroke="white" stroke-width="1.5" d="M0,-3.0v7 M-2.5,-0.5L0,-3.0L2.5,-0.5"/>
                </g>
               <g id="resetDef">
                       <use xlink:href="#rim2" fill="#404040">
                               <set attributeName="fill" to="#808080" begin="reset.mouseover" end="reset.mouseout"/>
                       </use>
               </g>
        </defs>

<script type="text/javascript">
var viewWidth = 870;
var viewHeight = 385;
var sectionId = 'dynsection-0';
</script>
<script xlink:href="svgpan.js"/>
<svg id="graph" class="graph">
<g id="viewport">
<title>semio_humanoid_ros/src/humanoid_source_adapter.cpp</title>
<!-- Node1 -->
<g id="node1" class="node"><title>Node1</title>
<polygon fill="#bfbfbf" stroke="black" points="402.5,-335.5 402.5,-376.5 515.5,-376.5 515.5,-335.5 402.5,-335.5"/>
<text text-anchor="start" x="410.5" y="-364.5" font-family="Helvetica,sans-Serif" font-size="10.00">semio_humanoid_ros</text>
<text text-anchor="start" x="410.5" y="-353.5" font-family="Helvetica,sans-Serif" font-size="10.00">/src/humanoid_source</text>
<text text-anchor="middle" x="459" y="-342.5" font-family="Helvetica,sans-Serif" font-size="10.00">_adapter.cpp</text>
</g>
<!-- Node2 -->
<g id="node2" class="node"><title>Node2</title>
<g id="a_node2"><a xlink:href="humanoid__source__adapter_8h.html" target="_top" xlink:title="semio/ros/humanoid\l_source_adapter.h">
<polygon fill="none" stroke="black" points="746,-268.5 746,-298.5 850,-298.5 850,-268.5 746,-268.5"/>
<text text-anchor="start" x="754" y="-286.5" font-family="Helvetica,sans-Serif" font-size="10.00">semio/ros/humanoid</text>
<text text-anchor="middle" x="798" y="-275.5" font-family="Helvetica,sans-Serif" font-size="10.00">_source_adapter.h</text>
</a>
</g>
</g>
<!-- Node1&#45;&gt;Node2 -->
<g id="edge1" class="edge"><title>Node1&#45;&gt;Node2</title>
<path fill="none" stroke="midnightblue" d="M515.559,-344.202C569.619,-333.746 653.657,-317.143 735.78,-299.228"/>
<polygon fill="midnightblue" stroke="midnightblue" points="736.764,-302.596 745.784,-297.037 735.266,-295.758 736.764,-302.596"/>
</g>
<!-- Node11 -->
<g id="node11" class="node"><title>Node11</title>
<g id="a_node11"><a xlink:href="humanoid__source__ros_8h.html" target="_top" xlink:title="semio/ros/humanoid\l_source_ros.h">
<polygon fill="none" stroke="black" points="624,-268.5 624,-298.5 728,-298.5 728,-268.5 624,-268.5"/>
<text text-anchor="start" x="632" y="-286.5" font-family="Helvetica,sans-Serif" font-size="10.00">semio/ros/humanoid</text>
<text text-anchor="middle" x="676" y="-275.5" font-family="Helvetica,sans-Serif" font-size="10.00">_source_ros.h</text>
</a>
</g>
</g>
<!-- Node1&#45;&gt;Node11 -->
<g id="edge10" class="edge"><title>Node1&#45;&gt;Node11</title>
<path fill="none" stroke="midnightblue" d="M515.731,-336.569C548.848,-325.81 590.369,-312.32 622.851,-301.767"/>
<polygon fill="midnightblue" stroke="midnightblue" points="624.193,-305.011 632.622,-298.593 622.03,-298.354 624.193,-305.011"/>
</g>
<!-- Node13 -->
<g id="node13" class="node"><title>Node13</title>
<g id="a_node13"><a doxygen="/home/ekaszubski/workspace/semio-ai/libsemio/libsemio.tag:https://semio-ai.github.io/libsemio/" xlink:href="https://semio-ai.github.io/libsemio/humanoid__source__virtual_8h.html" target="_top" xlink:title="semio/recognition/humanoid\l_source_virtual.h">
<polygon fill="none" stroke="black" points="312,-268.5 312,-298.5 450,-298.5 450,-268.5 312,-268.5"/>
<text text-anchor="start" x="320" y="-286.5" font-family="Helvetica,sans-Serif" font-size="10.00">semio/recognition/humanoid</text>
<text text-anchor="middle" x="381" y="-275.5" font-family="Helvetica,sans-Serif" font-size="10.00">_source_virtual.h</text>
</a>
</g>
</g>
<!-- Node1&#45;&gt;Node13 -->
<g id="edge14" class="edge"><title>Node1&#45;&gt;Node13</title>
<path fill="none" stroke="midnightblue" d="M437.273,-335.362C427.071,-326.141 414.894,-315.135 404.48,-305.722"/>
<polygon fill="midnightblue" stroke="midnightblue" points="406.688,-303 396.923,-298.892 401.994,-308.194 406.688,-303"/>
</g>
<!-- Node14 -->
<g id="node14" class="node"><title>Node14</title>
<g id="a_node14"><a doxygen="/home/ekaszubski/workspace/semio-ai/libsemio/libsemio.tag:https://semio-ai.github.io/libsemio/" xlink:href="https://semio-ai.github.io/libsemio/humanoid__source__NiTE_8h.html" target="_top" xlink:title="semio/recognition/humanoid\l_source_NiTE.h">
<polygon fill="none" stroke="black" points="468,-268.5 468,-298.5 606,-298.5 606,-268.5 468,-268.5"/>
<text text-anchor="start" x="476" y="-286.5" font-family="Helvetica,sans-Serif" font-size="10.00">semio/recognition/humanoid</text>
<text text-anchor="middle" x="537" y="-275.5" font-family="Helvetica,sans-Serif" font-size="10.00">_source_NiTE.h</text>
</a>
</g>
</g>
<!-- Node1&#45;&gt;Node14 -->
<g id="edge16" class="edge"><title>Node1&#45;&gt;Node14</title>
<path fill="none" stroke="midnightblue" d="M480.727,-335.362C490.929,-326.141 503.106,-315.135 513.52,-305.722"/>
<polygon fill="midnightblue" stroke="midnightblue" points="516.006,-308.194 521.077,-298.892 511.312,-303 516.006,-308.194"/>
</g>
<!-- Node15 -->
<g id="node15" class="node"><title>Node15</title>
<g id="a_node15"><a doxygen="/home/ekaszubski/workspace/semio-ai/libsemio/libsemio.tag:https://semio-ai.github.io/libsemio/" xlink:href="https://semio-ai.github.io/libsemio/humanoid__source__openface_8h.html" target="_top" xlink:title="semio/recognition/humanoid\l_source_openface.h">
<polygon fill="none" stroke="black" points="0,-268.5 0,-298.5 138,-298.5 138,-268.5 0,-268.5"/>
<text text-anchor="start" x="8" y="-286.5" font-family="Helvetica,sans-Serif" font-size="10.00">semio/recognition/humanoid</text>
<text text-anchor="middle" x="69" y="-275.5" font-family="Helvetica,sans-Serif" font-size="10.00">_source_openface.h</text>
</a>
</g>
</g>
<!-- Node1&#45;&gt;Node15 -->
<g id="edge18" class="edge"><title>Node1&#45;&gt;Node15</title>
<path fill="none" stroke="midnightblue" d="M402.333,-344.938C341.938,-334.189 243.224,-316.551 148.372,-299.245"/>
<polygon fill="midnightblue" stroke="midnightblue" points="148.784,-295.762 138.318,-297.409 147.527,-302.649 148.784,-295.762"/>
</g>
<!-- Node16 -->
<g id="node16" class="node"><title>Node16</title>
<g id="a_node16"><a doxygen="/home/ekaszubski/workspace/semio-ai/libsemio/libsemio.tag:https://semio-ai.github.io/libsemio/" xlink:href="https://semio-ai.github.io/libsemio/humanoid__source__fullbody_8h.html" target="_top" xlink:title="semio/recognition/humanoid\l_source_fullbody.h">
<polygon fill="none" stroke="black" points="156,-268.5 156,-298.5 294,-298.5 294,-268.5 156,-268.5"/>
<text text-anchor="start" x="164" y="-286.5" font-family="Helvetica,sans-Serif" font-size="10.00">semio/recognition/humanoid</text>
<text text-anchor="middle" x="225" y="-275.5" font-family="Helvetica,sans-Serif" font-size="10.00">_source_fullbody.h</text>
</a>
</g>
</g>
<!-- Node1&#45;&gt;Node16 -->
<g id="edge20" class="edge"><title>Node1&#45;&gt;Node16</title>
<path fill="none" stroke="midnightblue" d="M402.355,-337.934C365.759,-326.908 318.314,-312.614 281.706,-301.584"/>
<polygon fill="midnightblue" stroke="midnightblue" points="282.27,-298.099 271.686,-298.566 280.251,-304.802 282.27,-298.099"/>
</g>
<!-- Node3 -->
<g id="node3" class="node"><title>Node3</title>
<g id="a_node3"><a doxygen="/home/ekaszubski/workspace/semio-ai/libsemio/libsemio.tag:https://semio-ai.github.io/libsemio/" xlink:href="https://semio-ai.github.io/libsemio/humanoid__source_8h.html" target="_top" xlink:title="semio/recognition/humanoid\l_source.h">
<polygon fill="none" stroke="black" points="346,-201.5 346,-231.5 484,-231.5 484,-201.5 346,-201.5"/>
<text text-anchor="start" x="354" y="-219.5" font-family="Helvetica,sans-Serif" font-size="10.00">semio/recognition/humanoid</text>
<text text-anchor="middle" x="415" y="-208.5" font-family="Helvetica,sans-Serif" font-size="10.00">_source.h</text>
</a>
</g>
</g>
<!-- Node2&#45;&gt;Node3 -->
<g id="edge2" class="edge"><title>Node2&#45;&gt;Node3</title>
<path fill="none" stroke="midnightblue" d="M745.815,-269.813C742.838,-269.177 739.884,-268.568 737,-268 654.656,-251.782 559.644,-237.405 494.282,-228.18"/>
<polygon fill="midnightblue" stroke="midnightblue" points="494.443,-224.668 484.053,-226.744 493.47,-231.6 494.443,-224.668"/>
</g>
<!-- Node9 -->
<g id="node9" class="node"><title>Node9</title>
<polygon fill="none" stroke="#bfbfbf" points="706,-207 706,-226 802,-226 802,-207 706,-207"/>
<text text-anchor="middle" x="754" y="-214" font-family="Helvetica,sans-Serif" font-size="10.00">ros/node_handle.h</text>
</g>
<!-- Node2&#45;&gt;Node9 -->
<g id="edge8" class="edge"><title>Node2&#45;&gt;Node9</title>
<path fill="none" stroke="midnightblue" d="M788.453,-268.396C781.728,-258.462 772.689,-245.108 765.556,-234.572"/>
<polygon fill="midnightblue" stroke="midnightblue" points="768.39,-232.514 759.886,-226.195 762.593,-236.438 768.39,-232.514"/>
</g>
<!-- Node10 -->
<g id="node10" class="node"><title>Node10</title>
<polygon fill="none" stroke="#bfbfbf" points="820.5,-207 820.5,-226 861.5,-226 861.5,-207 820.5,-207"/>
<text text-anchor="middle" x="841" y="-214" font-family="Helvetica,sans-Serif" font-size="10.00">string</text>
</g>
<!-- Node2&#45;&gt;Node10 -->
<g id="edge9" class="edge"><title>Node2&#45;&gt;Node10</title>
<path fill="none" stroke="midnightblue" d="M807.33,-268.396C813.902,-258.462 822.736,-245.108 829.706,-234.572"/>
<polygon fill="midnightblue" stroke="midnightblue" points="832.65,-236.466 835.248,-226.195 826.812,-232.604 832.65,-236.466"/>
</g>
<!-- Node4 -->
<g id="node4" class="node"><title>Node4</title>
<g id="a_node4"><a doxygen="/home/ekaszubski/workspace/semio-ai/libsemio/libsemio.tag:https://semio-ai.github.io/libsemio/" xlink:href="https://semio-ai.github.io/libsemio/humanoid_8h.html" target="_top" xlink:title="semio/humanoid.h">
<polygon fill="none" stroke="black" points="300,-140 300,-159 396,-159 396,-140 300,-140"/>
<text text-anchor="middle" x="348" y="-147" font-family="Helvetica,sans-Serif" font-size="10.00">semio/humanoid.h</text>
</a>
</g>
</g>
<!-- Node3&#45;&gt;Node4 -->
<g id="edge3" class="edge"><title>Node3&#45;&gt;Node4</title>
<path fill="none" stroke="midnightblue" d="M400.462,-201.396C389.808,-191.06 375.34,-177.024 364.295,-166.309"/>
<polygon fill="midnightblue" stroke="midnightblue" points="366.577,-163.646 356.962,-159.195 361.702,-168.67 366.577,-163.646"/>
</g>
<!-- Node8 -->
<g id="node8" class="node"><title>Node8</title>
<g id="a_node8"><a doxygen="/home/ekaszubski/workspace/semio-ai/libsemio/libsemio.tag:https://semio-ai.github.io/libsemio/" xlink:href="https://semio-ai.github.io/libsemio/humanoid__source__impl_8h.html" target="_top" xlink:title="semio/recognition/humanoid\l_source_impl.h">
<polygon fill="none" stroke="black" points="414,-134.5 414,-164.5 552,-164.5 552,-134.5 414,-134.5"/>
<text text-anchor="start" x="422" y="-152.5" font-family="Helvetica,sans-Serif" font-size="10.00">semio/recognition/humanoid</text>
<text text-anchor="middle" x="483" y="-141.5" font-family="Helvetica,sans-Serif" font-size="10.00">_source_impl.h</text>
</a>
</g>
</g>
<!-- Node3&#45;&gt;Node8 -->
<g id="edge7" class="edge"><title>Node3&#45;&gt;Node8</title>
<path fill="none" stroke="midnightblue" d="M429.755,-201.396C438.844,-192.708 450.669,-181.405 460.866,-171.658"/>
<polygon fill="midnightblue" stroke="midnightblue" points="463.463,-174.016 468.274,-164.577 458.627,-168.956 463.463,-174.016"/>
</g>
<!-- Node5 -->
<g id="node5" class="node"><title>Node5</title>
<g id="a_node5"><a doxygen="/home/ekaszubski/workspace/semio-ai/libsemio/libsemio.tag:https://semio-ai.github.io/libsemio/" xlink:href="https://semio-ai.github.io/libsemio/top__n__list_8h.html" target="_top" xlink:title="semio/recognition/top\l_n_list.h">
<polygon fill="none" stroke="black" points="227,-67.5 227,-97.5 337,-97.5 337,-67.5 227,-67.5"/>
<text text-anchor="start" x="235" y="-85.5" font-family="Helvetica,sans-Serif" font-size="10.00">semio/recognition/top</text>
<text text-anchor="middle" x="282" y="-74.5" font-family="Helvetica,sans-Serif" font-size="10.00">_n_list.h</text>
</a>
</g>
</g>
<!-- Node4&#45;&gt;Node5 -->
<g id="edge4" class="edge"><title>Node4&#45;&gt;Node5</title>
<path fill="none" stroke="midnightblue" d="M339.099,-139.734C330.008,-130.78 315.551,-116.543 303.46,-104.635"/>
<polygon fill="midnightblue" stroke="midnightblue" points="305.887,-102.112 296.306,-97.589 300.975,-107.1 305.887,-102.112"/>
</g>
<!-- Node7 -->
<g id="node7" class="node"><title>Node7</title>
<g id="a_node7"><a doxygen="/home/ekaszubski/workspace/semio-ai/libsemio/libsemio.tag:https://semio-ai.github.io/libsemio/" xlink:href="https://semio-ai.github.io/libsemio/humanoid__impl_8h.html" target="_top" xlink:title="semio/humanoid_impl.h">
<polygon fill="none" stroke="black" points="355.5,-73 355.5,-92 474.5,-92 474.5,-73 355.5,-73"/>
<text text-anchor="middle" x="415" y="-80" font-family="Helvetica,sans-Serif" font-size="10.00">semio/humanoid_impl.h</text>
</a>
</g>
</g>
<!-- Node4&#45;&gt;Node7 -->
<g id="edge6" class="edge"><title>Node4&#45;&gt;Node7</title>
<path fill="none" stroke="midnightblue" d="M357.036,-139.734C367.685,-129.403 385.585,-112.037 398.681,-99.3315"/>
<polygon fill="midnightblue" stroke="midnightblue" points="401.367,-101.603 406.107,-92.1273 396.493,-96.5784 401.367,-101.603"/>
</g>
<!-- Node6 -->
<g id="node6" class="node"><title>Node6</title>
<g id="a_node6"><a doxygen="/home/ekaszubski/workspace/semio-ai/libsemio/libsemio.tag:https://semio-ai.github.io/libsemio/" xlink:href="https://semio-ai.github.io/libsemio/top__n__list__impl_8h.html" target="_top" xlink:title="semio/recognition/top\l_n_list_impl.h">
<polygon fill="none" stroke="black" points="227,-0.5 227,-30.5 337,-30.5 337,-0.5 227,-0.5"/>
<text text-anchor="start" x="235" y="-18.5" font-family="Helvetica,sans-Serif" font-size="10.00">semio/recognition/top</text>
<text text-anchor="middle" x="282" y="-7.5" font-family="Helvetica,sans-Serif" font-size="10.00">_n_list_impl.h</text>
</a>
</g>
</g>
<!-- Node5&#45;&gt;Node6 -->
<g id="edge5" class="edge"><title>Node5&#45;&gt;Node6</title>
<path fill="none" stroke="midnightblue" d="M282,-67.396C282,-59.6448 282,-49.8122 282,-40.8601"/>
<polygon fill="midnightblue" stroke="midnightblue" points="285.5,-40.5765 282,-30.5765 278.5,-40.5765 285.5,-40.5765"/>
</g>
<!-- Node11&#45;&gt;Node3 -->
<g id="edge11" class="edge"><title>Node11&#45;&gt;Node3</title>
<path fill="none" stroke="midnightblue" d="M623.81,-269.503C582.872,-259.307 525.62,-245.049 481.416,-234.04"/>
<polygon fill="midnightblue" stroke="midnightblue" points="482.173,-230.622 471.623,-231.602 480.481,-237.414 482.173,-230.622"/>
</g>
<!-- Node11&#45;&gt;Node9 -->
<g id="edge12" class="edge"><title>Node11&#45;&gt;Node9</title>
<path fill="none" stroke="midnightblue" d="M692.925,-268.396C705.568,-257.86 722.827,-243.477 735.774,-232.689"/>
<polygon fill="midnightblue" stroke="midnightblue" points="738.125,-235.285 743.567,-226.195 733.644,-229.908 738.125,-235.285"/>
</g>
<!-- Node12 -->
<g id="node12" class="node"><title>Node12</title>
<polygon fill="none" stroke="#bfbfbf" points="536,-207 536,-226 688,-226 688,-207 536,-207"/>
<text text-anchor="middle" x="612" y="-214" font-family="Helvetica,sans-Serif" font-size="10.00">semio_msgs_ros/Humanoids.h</text>
</g>
<!-- Node11&#45;&gt;Node12 -->
<g id="edge13" class="edge"><title>Node11&#45;&gt;Node12</title>
<path fill="none" stroke="midnightblue" d="M662.113,-268.396C652.035,-258.161 638.384,-244.296 627.874,-233.622"/>
<polygon fill="midnightblue" stroke="midnightblue" points="630.071,-230.865 620.561,-226.195 625.083,-235.776 630.071,-230.865"/>
</g>
<!-- Node13&#45;&gt;Node3 -->
<g id="edge15" class="edge"><title>Node13&#45;&gt;Node3</title>
<path fill="none" stroke="midnightblue" d="M388.377,-268.396C392.61,-260.304 398.029,-249.944 402.872,-240.685"/>
<polygon fill="midnightblue" stroke="midnightblue" points="406.103,-242.06 407.637,-231.577 399.901,-238.815 406.103,-242.06"/>
</g>
<!-- Node14&#45;&gt;Node3 -->
<g id="edge17" class="edge"><title>Node14&#45;&gt;Node3</title>
<path fill="none" stroke="midnightblue" d="M510.528,-268.396C492.942,-259.026 469.647,-246.615 450.464,-236.395"/>
<polygon fill="midnightblue" stroke="midnightblue" points="451.892,-233.19 441.421,-231.577 448.6,-239.368 451.892,-233.19"/>
</g>
<!-- Node15&#45;&gt;Node3 -->
<g id="edge19" class="edge"><title>Node15&#45;&gt;Node3</title>
<path fill="none" stroke="midnightblue" d="M138.187,-269.503C195.233,-258.786 276.177,-243.579 335.807,-232.377"/>
<polygon fill="midnightblue" stroke="midnightblue" points="336.751,-235.761 345.933,-230.475 335.459,-228.882 336.751,-235.761"/>
</g>
<!-- Node16&#45;&gt;Node3 -->
<g id="edge21" class="edge"><title>Node16&#45;&gt;Node3</title>
<path fill="none" stroke="midnightblue" d="M266.227,-268.396C294.984,-258.558 333.543,-245.367 364.2,-234.879"/>
<polygon fill="midnightblue" stroke="midnightblue" points="365.525,-238.125 373.853,-231.577 363.259,-231.502 365.525,-238.125"/>
</g>
</g>
</svg>
        <g id="navigator" transform="translate(0 0)" fill="#404254">
                <rect fill="#f2f5e9" fill-opacity="0.5" stroke="#606060" stroke-width=".5" x="0" y="0" width="60" height="60"/>
                <use id="zoomplus" xlink:href="#zoomPlus" x="17" y="9" onmousedown="handleZoom(evt,'in')"/>
                <use id="zoomminus" xlink:href="#zoomMin" x="42" y="9" onmousedown="handleZoom(evt,'out')"/>
                <use id="reset" xlink:href="#resetDef" x="30" y="36" onmousedown="handleReset()"/>
                <g id="arrowUp" xlink:href="#dirArrow" transform="translate(30 24)" onmousedown="handlePan(0,-1)">
                  <use xlink:href="#rim" fill="#404040">
                        <set attributeName="fill" to="#808080" begin="arrowUp.mouseover" end="arrowUp.mouseout"/>
                  </use>
                  <path fill="none" stroke="white" stroke-width="1.5" d="M0,-3.0v7 M-2.5,-0.5L0,-3.0L2.5,-0.5"/>
                </g>
                <g id="arrowRight" xlink:href="#dirArrow" transform="rotate(90) translate(36 -43)" onmousedown="handlePan(1,0)">
                  <use xlink:href="#rim" fill="#404040">
                        <set attributeName="fill" to="#808080" begin="arrowRight.mouseover" end="arrowRight.mouseout"/>
                  </use>
                  <path fill="none" stroke="white" stroke-width="1.5" d="M0,-3.0v7 M-2.5,-0.5L0,-3.0L2.5,-0.5"/>
                </g>
                <g id="arrowDown" xlink:href="#dirArrow" transform="rotate(180) translate(-30 -48)" onmousedown="handlePan(0,1)">
                  <use xlink:href="#rim" fill="#404040">
                        <set attributeName="fill" to="#808080" begin="arrowDown.mouseover" end="arrowDown.mouseout"/>
                  </use>
                  <path fill="none" stroke="white" stroke-width="1.5" d="M0,-3.0v7 M-2.5,-0.5L0,-3.0L2.5,-0.5"/>
                </g>
                <g id="arrowLeft" xlink:href="#dirArrow" transform="rotate(270) translate(-36 17)" onmousedown="handlePan(-1,0)">
                  <use xlink:href="#rim" fill="#404040">
                        <set attributeName="fill" to="#808080" begin="arrowLeft.mouseover" end="arrowLeft.mouseout"/>
                  </use>
                  <path fill="none" stroke="white" stroke-width="1.5" d="M0,-3.0v7 M-2.5,-0.5L0,-3.0L2.5,-0.5"/>
                </g>
        </g>
        <svg viewBox="0 0 15 15" width="100%" height="30px" preserveAspectRatio="xMaxYMin meet">
         <g id="arrow_out" transform="scale(0.3 0.3)">
          <a xlink:href="humanoid__source__adapter_8cpp__incl_org.svg" target="_base">
           <rect id="button" ry="5" rx="5" y="6" x="6" height="38" width="38"
                fill="#f2f5e9" fill-opacity="0.5" stroke="#606060" stroke-width="1.0"/>
           <path id="arrow"
             d="M 11.500037,31.436501 C 11.940474,20.09759 22.043105,11.32322 32.158766,21.979434 L 37.068811,17.246167 C 37.068811,17.246167 37.088388,32 37.088388,32 L 22.160133,31.978069 C 22.160133,31.978069 26.997745,27.140456 26.997745,27.140456 C 18.528582,18.264221 13.291696,25.230495 11.500037,31.436501 z"
             style="fill:#404040;"/>
          </a>
         </g>
        </svg>
</svg>
