<?xml version="1.0" encoding="UTF-8" standalone="no"?>
<!DOCTYPE svg PUBLIC "-//W3C//DTD SVG 1.1//EN"
 "http://www.w3.org/Graphics/SVG/1.1/DTD/svg11.dtd">
<!-- Generated by graphviz version 2.38.0 (20140413.2041)
 -->
<!-- Title: semio_humanoid_ros/include/semio/ros/humanoid_sink_ros.h Pages: 1 -->
<svg width="464pt" height="128pt"
 viewBox="0.00 0.00 463.50 128.00" xmlns="http://www.w3.org/2000/svg" xmlns:xlink="http://www.w3.org/1999/xlink">
<g id="graph0" class="graph" transform="scale(1 1) rotate(0) translate(4 124)">
<title>semio_humanoid_ros/include/semio/ros/humanoid_sink_ros.h</title>
<!-- Node1 -->
<g id="node1" class="node"><title>Node1</title>
<polygon fill="#bfbfbf" stroke="black" points="148.5,-78.5 148.5,-119.5 289.5,-119.5 289.5,-78.5 148.5,-78.5"/>
<text text-anchor="start" x="156.5" y="-107.5" font-family="Helvetica,sans-Serif" font-size="10.00">semio_humanoid_ros</text>
<text text-anchor="start" x="156.5" y="-96.5" font-family="Helvetica,sans-Serif" font-size="10.00">/include/semio/ros/humanoid</text>
<text text-anchor="middle" x="219" y="-85.5" font-family="Helvetica,sans-Serif" font-size="10.00">_sink_ros.h</text>
</g>
<!-- Node2 -->
<g id="node2" class="node"><title>Node2</title>
<g id="a_node2"><a xlink:href="semio__humanoid__server__node_8cpp.html" target="_top" xlink:title="semio_humanoid_ros\l/nodes/semio_humanoid\l_server_node.cpp">
<polygon fill="none" stroke="black" points="0,-0.5 0,-41.5 122,-41.5 122,-0.5 0,-0.5"/>
<text text-anchor="start" x="8" y="-29.5" font-family="Helvetica,sans-Serif" font-size="10.00">semio_humanoid_ros</text>
<text text-anchor="start" x="8" y="-18.5" font-family="Helvetica,sans-Serif" font-size="10.00">/nodes/semio_humanoid</text>
<text text-anchor="middle" x="61" y="-7.5" font-family="Helvetica,sans-Serif" font-size="10.00">_server_node.cpp</text>
</a>
</g>
</g>
<!-- Node1&#45;&gt;Node2 -->
<g id="edge1" class="edge"><title>Node1&#45;&gt;Node2</title>
<path fill="none" stroke="midnightblue" d="M169.206,-74.0487C147.415,-63.5665 122.172,-51.4244 101.551,-41.5056"/>
<polygon fill="midnightblue" stroke="midnightblue" points="167.782,-77.2474 178.311,-78.4281 170.817,-70.9392 167.782,-77.2474"/>
</g>
<!-- Node3 -->
<g id="node3" class="node"><title>Node3</title>
<g id="a_node3"><a xlink:href="humanoid__sink__adapter_8cpp.html" target="_top" xlink:title="semio_humanoid_ros\l/src/humanoid_sink_adapter.cpp">
<polygon fill="none" stroke="black" points="140,-6 140,-36 298,-36 298,-6 140,-6"/>
<text text-anchor="start" x="148" y="-24" font-family="Helvetica,sans-Serif" font-size="10.00">semio_humanoid_ros</text>
<text text-anchor="middle" x="219" y="-13" font-family="Helvetica,sans-Serif" font-size="10.00">/src/humanoid_sink_adapter.cpp</text>
</a>
</g>
</g>
<!-- Node1&#45;&gt;Node3 -->
<g id="edge2" class="edge"><title>Node1&#45;&gt;Node3</title>
<path fill="none" stroke="midnightblue" d="M219,-68.2829C219,-57.2536 219,-45.2457 219,-36.2254"/>
<polygon fill="midnightblue" stroke="midnightblue" points="215.5,-68.4281 219,-78.4281 222.5,-68.4281 215.5,-68.4281"/>
</g>
<!-- Node4 -->
<g id="node4" class="node"><title>Node4</title>
<g id="a_node4"><a xlink:href="humanoid__sink__ros_8cpp.html" target="_top" xlink:title="semio_humanoid_ros\l/src/humanoid_sink_ros.cpp">
<polygon fill="none" stroke="black" points="316.5,-6 316.5,-36 455.5,-36 455.5,-6 316.5,-6"/>
<text text-anchor="start" x="324.5" y="-24" font-family="Helvetica,sans-Serif" font-size="10.00">semio_humanoid_ros</text>
<text text-anchor="middle" x="386" y="-13" font-family="Helvetica,sans-Serif" font-size="10.00">/src/humanoid_sink_ros.cpp</text>
</a>
</g>
</g>
<!-- Node1&#45;&gt;Node4 -->
<g id="edge3" class="edge"><title>Node1&#45;&gt;Node4</title>
<path fill="none" stroke="midnightblue" d="M271.116,-74.2824C298.643,-61.7554 331.494,-46.8051 355.003,-36.1065"/>
<polygon fill="midnightblue" stroke="midnightblue" points="269.659,-71.1003 262.007,-78.4281 272.558,-77.4715 269.659,-71.1003"/>
</g>
</g>
</svg>
