<?xml version="1.0" encoding="UTF-8" standalone="no"?>
<!DOCTYPE svg PUBLIC "-//W3C//DTD SVG 1.1//EN"
 "http://www.w3.org/Graphics/SVG/1.1/DTD/svg11.dtd">
<!-- Generated by graphviz version 2.38.0 (20140413.2041)
 -->
<!-- Title: semio_humanoid_ros/include/semio/ros/humanoid_sink_adapter.h Pages: 1 -->
<svg width="372pt" height="307pt"
 viewBox="0.00 0.00 371.50 307.00" xmlns="http://www.w3.org/2000/svg" xmlns:xlink="http://www.w3.org/1999/xlink">
<g id="graph0" class="graph" transform="scale(1 1) rotate(0) translate(4 303)">
<title>semio_humanoid_ros/include/semio/ros/humanoid_sink_adapter.h</title>
<!-- Node1 -->
<g id="node1" class="node"><title>Node1</title>
<polygon fill="#bfbfbf" stroke="black" points="185.5,-257.5 185.5,-298.5 326.5,-298.5 326.5,-257.5 185.5,-257.5"/>
<text text-anchor="start" x="193.5" y="-286.5" font-family="Helvetica,sans-Serif" font-size="10.00">semio_humanoid_ros</text>
<text text-anchor="start" x="193.5" y="-275.5" font-family="Helvetica,sans-Serif" font-size="10.00">/include/semio/ros/humanoid</text>
<text text-anchor="middle" x="256" y="-264.5" font-family="Helvetica,sans-Serif" font-size="10.00">_sink_adapter.h</text>
</g>
<!-- Node2 -->
<g id="node2" class="node"><title>Node2</title>
<g id="a_node2"><a doxygen="/home/ekaszubski/workspace/semio-ai/libsemio/libsemio.tag:https://semio-ai.github.io/libsemio/" xlink:href="https://semio-ai.github.io/libsemio/humanoid__sink_8h.html" target="_top" xlink:title="semio/recognition/humanoid\l_sink.h">
<polygon fill="none" stroke="black" points="52,-190.5 52,-220.5 190,-220.5 190,-190.5 52,-190.5"/>
<text text-anchor="start" x="60" y="-208.5" font-family="Helvetica,sans-Serif" font-size="10.00">semio/recognition/humanoid</text>
<text text-anchor="middle" x="121" y="-197.5" font-family="Helvetica,sans-Serif" font-size="10.00">_sink.h</text>
</a>
</g>
</g>
<!-- Node1&#45;&gt;Node2 -->
<g id="edge1" class="edge"><title>Node1&#45;&gt;Node2</title>
<path fill="none" stroke="midnightblue" d="M218.395,-257.362C199.22,-247.348 176.01,-235.228 157.059,-225.331"/>
<polygon fill="midnightblue" stroke="midnightblue" points="158.618,-222.197 148.134,-220.67 155.378,-228.402 158.618,-222.197"/>
</g>
<!-- Node7 -->
<g id="node7" class="node"><title>Node7</title>
<polygon fill="none" stroke="#bfbfbf" points="208,-196 208,-215 304,-215 304,-196 208,-196"/>
<text text-anchor="middle" x="256" y="-203" font-family="Helvetica,sans-Serif" font-size="10.00">ros/node_handle.h</text>
</g>
<!-- Node1&#45;&gt;Node7 -->
<g id="edge6" class="edge"><title>Node1&#45;&gt;Node7</title>
<path fill="none" stroke="midnightblue" d="M256,-257.362C256,-247.297 256,-235.104 256,-225.18"/>
<polygon fill="midnightblue" stroke="midnightblue" points="259.5,-225.173 256,-215.173 252.5,-225.173 259.5,-225.173"/>
</g>
<!-- Node8 -->
<g id="node8" class="node"><title>Node8</title>
<polygon fill="none" stroke="#bfbfbf" points="322.5,-196 322.5,-215 363.5,-215 363.5,-196 322.5,-196"/>
<text text-anchor="middle" x="343" y="-203" font-family="Helvetica,sans-Serif" font-size="10.00">string</text>
</g>
<!-- Node1&#45;&gt;Node8 -->
<g id="edge7" class="edge"><title>Node1&#45;&gt;Node8</title>
<path fill="none" stroke="midnightblue" d="M280.234,-257.362C294.124,-246.107 311.297,-232.19 324.167,-221.761"/>
<polygon fill="midnightblue" stroke="midnightblue" points="326.731,-224.189 332.297,-215.173 322.324,-218.75 326.731,-224.189"/>
</g>
<!-- Node3 -->
<g id="node3" class="node"><title>Node3</title>
<g id="a_node3"><a doxygen="/home/ekaszubski/workspace/semio-ai/libsemio/libsemio.tag:https://semio-ai.github.io/libsemio/" xlink:href="https://semio-ai.github.io/libsemio/humanoid_8h.html" target="_top" xlink:title="semio/humanoid.h">
<polygon fill="none" stroke="black" points="73,-134.5 73,-153.5 169,-153.5 169,-134.5 73,-134.5"/>
<text text-anchor="middle" x="121" y="-141.5" font-family="Helvetica,sans-Serif" font-size="10.00">semio/humanoid.h</text>
</a>
</g>
</g>
<!-- Node2&#45;&gt;Node3 -->
<g id="edge2" class="edge"><title>Node2&#45;&gt;Node3</title>
<path fill="none" stroke="midnightblue" d="M121,-190.399C121,-182.466 121,-172.458 121,-163.858"/>
<polygon fill="midnightblue" stroke="midnightblue" points="124.5,-163.658 121,-153.658 117.5,-163.658 124.5,-163.658"/>
</g>
<!-- Node4 -->
<g id="node4" class="node"><title>Node4</title>
<g id="a_node4"><a doxygen="/home/ekaszubski/workspace/semio-ai/libsemio/libsemio.tag:https://semio-ai.github.io/libsemio/" xlink:href="https://semio-ai.github.io/libsemio/top__n__list_8h.html" target="_top" xlink:title="semio/recognition/top\l_n_list.h">
<polygon fill="none" stroke="black" points="0,-67.5 0,-97.5 110,-97.5 110,-67.5 0,-67.5"/>
<text text-anchor="start" x="8" y="-85.5" font-family="Helvetica,sans-Serif" font-size="10.00">semio/recognition/top</text>
<text text-anchor="middle" x="55" y="-74.5" font-family="Helvetica,sans-Serif" font-size="10.00">_n_list.h</text>
</a>
</g>
</g>
<!-- Node3&#45;&gt;Node4 -->
<g id="edge3" class="edge"><title>Node3&#45;&gt;Node4</title>
<path fill="none" stroke="midnightblue" d="M111.544,-134.475C102.856,-126.643 89.6244,-114.714 78.145,-104.366"/>
<polygon fill="midnightblue" stroke="midnightblue" points="80.3258,-101.619 70.5549,-97.523 75.6387,-106.818 80.3258,-101.619"/>
</g>
<!-- Node6 -->
<g id="node6" class="node"><title>Node6</title>
<g id="a_node6"><a doxygen="/home/ekaszubski/workspace/semio-ai/libsemio/libsemio.tag:https://semio-ai.github.io/libsemio/" xlink:href="https://semio-ai.github.io/libsemio/humanoid__impl_8h.html" target="_top" xlink:title="semio/humanoid_impl.h">
<polygon fill="none" stroke="black" points="128.5,-73 128.5,-92 247.5,-92 247.5,-73 128.5,-73"/>
<text text-anchor="middle" x="188" y="-80" font-family="Helvetica,sans-Serif" font-size="10.00">semio/humanoid_impl.h</text>
</a>
</g>
</g>
<!-- Node3&#45;&gt;Node6 -->
<g id="edge5" class="edge"><title>Node3&#45;&gt;Node6</title>
<path fill="none" stroke="midnightblue" d="M130.599,-134.475C141.048,-125.197 157.968,-110.171 170.736,-98.831"/>
<polygon fill="midnightblue" stroke="midnightblue" points="173.265,-101.266 178.418,-92.0091 168.617,-96.0323 173.265,-101.266"/>
</g>
<!-- Node5 -->
<g id="node5" class="node"><title>Node5</title>
<g id="a_node5"><a doxygen="/home/ekaszubski/workspace/semio-ai/libsemio/libsemio.tag:https://semio-ai.github.io/libsemio/" xlink:href="https://semio-ai.github.io/libsemio/top__n__list__impl_8h.html" target="_top" xlink:title="semio/recognition/top\l_n_list_impl.h">
<polygon fill="none" stroke="black" points="0,-0.5 0,-30.5 110,-30.5 110,-0.5 0,-0.5"/>
<text text-anchor="start" x="8" y="-18.5" font-family="Helvetica,sans-Serif" font-size="10.00">semio/recognition/top</text>
<text text-anchor="middle" x="55" y="-7.5" font-family="Helvetica,sans-Serif" font-size="10.00">_n_list_impl.h</text>
</a>
</g>
</g>
<!-- Node4&#45;&gt;Node5 -->
<g id="edge4" class="edge"><title>Node4&#45;&gt;Node5</title>
<path fill="none" stroke="midnightblue" d="M55,-67.396C55,-59.6448 55,-49.8122 55,-40.8601"/>
<polygon fill="midnightblue" stroke="midnightblue" points="58.5001,-40.5765 55,-30.5765 51.5001,-40.5765 58.5001,-40.5765"/>
</g>
</g>
</svg>
