<?xml version="1.0" encoding="UTF-8" standalone="no"?>
<!DOCTYPE svg PUBLIC "-//W3C//DTD SVG 1.1//EN"
 "http://www.w3.org/Graphics/SVG/1.1/DTD/svg11.dtd">
<!-- Generated by graphviz version 2.38.0 (20140413.2041)
 -->
<!-- Title: semio_humanoid_ros/include/semio/ros/humanoid_source_adapter.h Pages: 1 -->
<svg width="828pt" height="128pt"
 viewBox="0.00 0.00 827.50 128.00" xmlns="http://www.w3.org/2000/svg" xmlns:xlink="http://www.w3.org/1999/xlink">
<g id="graph0" class="graph" transform="scale(1 1) rotate(0) translate(4 124)">
<title>semio_humanoid_ros/include/semio/ros/humanoid_source_adapter.h</title>
<!-- Node1 -->
<g id="node1" class="node"><title>Node1</title>
<polygon fill="#bfbfbf" stroke="black" points="345.5,-78.5 345.5,-119.5 486.5,-119.5 486.5,-78.5 345.5,-78.5"/>
<text text-anchor="start" x="353.5" y="-107.5" font-family="Helvetica,sans-Serif" font-size="10.00">semio_humanoid_ros</text>
<text text-anchor="start" x="353.5" y="-96.5" font-family="Helvetica,sans-Serif" font-size="10.00">/include/semio/ros/humanoid</text>
<text text-anchor="middle" x="416" y="-85.5" font-family="Helvetica,sans-Serif" font-size="10.00">_source_adapter.h</text>
</g>
<!-- Node2 -->
<g id="node2" class="node"><title>Node2</title>
<g id="a_node2"><a xlink:href="example__attention__targets__node_8cpp.html" target="_top" xlink:title="semio_attention_ros\l/nodes/example_attention\l_targets_node.cpp">
<polygon fill="none" stroke="black" points="0,-0.5 0,-41.5 128,-41.5 128,-0.5 0,-0.5"/>
<text text-anchor="start" x="8" y="-29.5" font-family="Helvetica,sans-Serif" font-size="10.00">semio_attention_ros</text>
<text text-anchor="start" x="8" y="-18.5" font-family="Helvetica,sans-Serif" font-size="10.00">/nodes/example_attention</text>
<text text-anchor="middle" x="64" y="-7.5" font-family="Helvetica,sans-Serif" font-size="10.00">_targets_node.cpp</text>
</a>
</g>
</g>
<!-- Node1&#45;&gt;Node2 -->
<g id="edge1" class="edge"><title>Node1&#45;&gt;Node2</title>
<path fill="none" stroke="midnightblue" d="M335.629,-83.3977C279.712,-72.8651 203.549,-57.7751 137,-42 134.059,-41.3029 131.057,-40.5696 128.03,-39.8123"/>
<polygon fill="midnightblue" stroke="midnightblue" points="335.002,-86.8411 345.476,-85.2448 336.293,-79.961 335.002,-86.8411"/>
</g>
<!-- Node3 -->
<g id="node3" class="node"><title>Node3</title>
<g id="a_node3"><a xlink:href="semio__attention__node_8cpp.html" target="_top" xlink:title="semio_attention_ros\l/nodes/semio_attention\l_node.cpp">
<polygon fill="none" stroke="black" points="146,-0.5 146,-41.5 264,-41.5 264,-0.5 146,-0.5"/>
<text text-anchor="start" x="154" y="-29.5" font-family="Helvetica,sans-Serif" font-size="10.00">semio_attention_ros</text>
<text text-anchor="start" x="154" y="-18.5" font-family="Helvetica,sans-Serif" font-size="10.00">/nodes/semio_attention</text>
<text text-anchor="middle" x="205" y="-7.5" font-family="Helvetica,sans-Serif" font-size="10.00">_node.cpp</text>
</a>
</g>
</g>
<!-- Node1&#45;&gt;Node3 -->
<g id="edge2" class="edge"><title>Node1&#45;&gt;Node3</title>
<path fill="none" stroke="midnightblue" d="M352.218,-75.0264C322.515,-64.3275 287.552,-51.7343 259.154,-41.5056"/>
<polygon fill="midnightblue" stroke="midnightblue" points="351.068,-78.3322 361.662,-78.4281 353.44,-71.7464 351.068,-78.3322"/>
</g>
<!-- Node4 -->
<g id="node4" class="node"><title>Node4</title>
<g id="a_node4"><a xlink:href="example__deictic__targets__node_8cpp.html" target="_top" xlink:title="semio_deixis_ros/nodes\l/example_deictic_targets\l_node.cpp">
<polygon fill="none" stroke="black" points="282.5,-0.5 282.5,-41.5 407.5,-41.5 407.5,-0.5 282.5,-0.5"/>
<text text-anchor="start" x="290.5" y="-29.5" font-family="Helvetica,sans-Serif" font-size="10.00">semio_deixis_ros/nodes</text>
<text text-anchor="start" x="290.5" y="-18.5" font-family="Helvetica,sans-Serif" font-size="10.00">/example_deictic_targets</text>
<text text-anchor="middle" x="345" y="-7.5" font-family="Helvetica,sans-Serif" font-size="10.00">_node.cpp</text>
</a>
</g>
</g>
<!-- Node1&#45;&gt;Node4 -->
<g id="edge3" class="edge"><title>Node1&#45;&gt;Node4</title>
<path fill="none" stroke="midnightblue" d="M390.698,-70.9158C381.624,-61.2029 371.578,-50.4502 363.222,-41.5056"/>
<polygon fill="midnightblue" stroke="midnightblue" points="388.332,-73.5101 397.716,-78.4281 393.447,-68.7314 388.332,-73.5101"/>
</g>
<!-- Node5 -->
<g id="node5" class="node"><title>Node5</title>
<g id="a_node5"><a xlink:href="semio__deixis__node_8cpp.html" target="_top" xlink:title="semio_deixis_ros/nodes\l/semio_deixis_node.cpp">
<polygon fill="none" stroke="black" points="426,-6 426,-36 548,-36 548,-6 426,-6"/>
<text text-anchor="start" x="434" y="-24" font-family="Helvetica,sans-Serif" font-size="10.00">semio_deixis_ros/nodes</text>
<text text-anchor="middle" x="487" y="-13" font-family="Helvetica,sans-Serif" font-size="10.00">/semio_deixis_node.cpp</text>
</a>
</g>
</g>
<!-- Node1&#45;&gt;Node5 -->
<g id="edge4" class="edge"><title>Node1&#45;&gt;Node5</title>
<path fill="none" stroke="midnightblue" d="M441.233,-70.9896C452.196,-59.2546 464.589,-45.9897 473.711,-36.2254"/>
<polygon fill="midnightblue" stroke="midnightblue" points="438.553,-68.7314 434.284,-78.4281 443.668,-73.5101 438.553,-68.7314"/>
</g>
<!-- Node6 -->
<g id="node6" class="node"><title>Node6</title>
<g id="a_node6"><a xlink:href="semio__humanoid__server__node_8cpp.html" target="_top" xlink:title="semio_humanoid_ros\l/nodes/semio_humanoid\l_server_node.cpp">
<polygon fill="none" stroke="black" points="566,-0.5 566,-41.5 688,-41.5 688,-0.5 566,-0.5"/>
<text text-anchor="start" x="574" y="-29.5" font-family="Helvetica,sans-Serif" font-size="10.00">semio_humanoid_ros</text>
<text text-anchor="start" x="574" y="-18.5" font-family="Helvetica,sans-Serif" font-size="10.00">/nodes/semio_humanoid</text>
<text text-anchor="middle" x="627" y="-7.5" font-family="Helvetica,sans-Serif" font-size="10.00">_server_node.cpp</text>
</a>
</g>
</g>
<!-- Node1&#45;&gt;Node6 -->
<g id="edge5" class="edge"><title>Node1&#45;&gt;Node6</title>
<path fill="none" stroke="midnightblue" d="M479.782,-75.0264C509.485,-64.3275 544.448,-51.7343 572.846,-41.5056"/>
<polygon fill="midnightblue" stroke="midnightblue" points="478.56,-71.7464 470.338,-78.4281 480.932,-78.3322 478.56,-71.7464"/>
</g>
<!-- Node7 -->
<g id="node7" class="node"><title>Node7</title>
<g id="a_node7"><a xlink:href="humanoid__source__adapter_8cpp.html" target="_top" xlink:title="semio_humanoid_ros\l/src/humanoid_source\l_adapter.cpp">
<polygon fill="none" stroke="black" points="706.5,-0.5 706.5,-41.5 819.5,-41.5 819.5,-0.5 706.5,-0.5"/>
<text text-anchor="start" x="714.5" y="-29.5" font-family="Helvetica,sans-Serif" font-size="10.00">semio_humanoid_ros</text>
<text text-anchor="start" x="714.5" y="-18.5" font-family="Helvetica,sans-Serif" font-size="10.00">/src/humanoid_source</text>
<text text-anchor="middle" x="763" y="-7.5" font-family="Helvetica,sans-Serif" font-size="10.00">_adapter.cpp</text>
</a>
</g>
</g>
<!-- Node1&#45;&gt;Node7 -->
<g id="edge6" class="edge"><title>Node1&#45;&gt;Node7</title>
<path fill="none" stroke="midnightblue" d="M496.514,-84.1098C552.95,-73.8491 629.972,-58.7922 697,-42 700.02,-41.2435 703.107,-40.4344 706.216,-39.5911"/>
<polygon fill="midnightblue" stroke="midnightblue" points="495.796,-80.6828 486.578,-85.9055 497.041,-87.5712 495.796,-80.6828"/>
</g>
</g>
</svg>
