<?xml version="1.0" encoding="UTF-8" standalone="no"?>
<!DOCTYPE svg PUBLIC "-//W3C//DTD SVG 1.1//EN"
 "http://www.w3.org/Graphics/SVG/1.1/DTD/svg11.dtd">
<!-- Generated by graphviz version 2.38.0 (20140413.2041)
 -->
<!-- Title: main Pages: 1 -->
<svg width="404pt" height="225pt"
 viewBox="0.00 0.00 404.00 224.50" xmlns="http://www.w3.org/2000/svg" xmlns:xlink="http://www.w3.org/1999/xlink">
<g id="graph0" class="graph" transform="scale(1 1) rotate(0) translate(4 220.5)">
<title>main</title>
<!-- Node1 -->
<g id="node1" class="node"><title>Node1</title>
<polygon fill="#bfbfbf" stroke="black" points="0,-117.5 0,-136.5 38,-136.5 38,-117.5 0,-117.5"/>
<text text-anchor="middle" x="19" y="-124.5" font-family="Helvetica,sans-Serif" font-size="10.00">main</text>
</g>
<!-- Node2 -->
<g id="node2" class="node"><title>Node2</title>
<g id="a_node2"><a xlink:href="classsemio_1_1ros_1_1HumanoidSourceAdapter.html#ab5e3c73791284d9d685e62303b1108e0" target="_top" xlink:title="Create a semio::HumanoidSource. ">
<polygon fill="none" stroke="black" points="74,-137 74,-167 219,-167 219,-137 74,-137"/>
<text text-anchor="start" x="82" y="-155" font-family="Helvetica,sans-Serif" font-size="10.00">semio::ros::HumanoidSource</text>
<text text-anchor="middle" x="146.5" y="-144" font-family="Helvetica,sans-Serif" font-size="10.00">Adapter::getHumanoidSource</text>
</a>
</g>
</g>
<!-- Node1&#45;&gt;Node2 -->
<g id="edge1" class="edge"><title>Node1&#45;&gt;Node2</title>
<path fill="none" stroke="midnightblue" d="M38.2488,-130.635C45.464,-132.073 54.2964,-133.832 63.7656,-135.718"/>
<polygon fill="midnightblue" stroke="midnightblue" points="63.3317,-139.201 73.8228,-137.722 64.6993,-132.335 63.3317,-139.201"/>
</g>
<!-- Node5 -->
<g id="node5" class="node"><title>Node5</title>
<g id="a_node5"><a xlink:href="classSemioDeixisNode.html#add1bb7723e7c13ad1038da6e2d0da57f" target="_top" xlink:title="Main loop. ">
<polygon fill="none" stroke="black" points="87,-68.5 87,-87.5 206,-87.5 206,-68.5 87,-68.5"/>
<text text-anchor="middle" x="146.5" y="-75.5" font-family="Helvetica,sans-Serif" font-size="10.00">SemioDeixisNode::spin</text>
</a>
</g>
</g>
<!-- Node1&#45;&gt;Node5 -->
<g id="edge4" class="edge"><title>Node1&#45;&gt;Node5</title>
<path fill="none" stroke="midnightblue" d="M38.2488,-119.875C57.2839,-112.443 87.5752,-100.616 111.118,-91.4239"/>
<polygon fill="midnightblue" stroke="midnightblue" points="112.701,-94.5636 120.743,-87.6662 110.155,-88.0429 112.701,-94.5636"/>
</g>
<!-- Node3 -->
<g id="node3" class="node"><title>Node3</title>
<g id="a_node3"><a doxygen="/home/ekaszubski/workspace/semio-ai/libsemio/libsemio.tag:https://semio-ai.github.io/libsemio/" xlink:href="https://semio-ai.github.io/libsemio/classsemio_1_1HumanoidSmoothingFilter.html#a6f3a3e5415f0220fe882e1f7b50ad074" target="_top" xlink:title="semio::HumanoidSmoothing\lFilter::getSmoothing">
<polygon fill="none" stroke="black" points="255.5,-186 255.5,-216 395.5,-216 395.5,-186 255.5,-186"/>
<text text-anchor="start" x="263.5" y="-204" font-family="Helvetica,sans-Serif" font-size="10.00">semio::HumanoidSmoothing</text>
<text text-anchor="middle" x="325.5" y="-193" font-family="Helvetica,sans-Serif" font-size="10.00">Filter::getSmoothing</text>
</a>
</g>
</g>
<!-- Node2&#45;&gt;Node3 -->
<g id="edge2" class="edge"><title>Node2&#45;&gt;Node3</title>
<path fill="none" stroke="midnightblue" d="M202.05,-167.101C220.474,-172.202 241.212,-177.943 260.312,-183.23"/>
<polygon fill="midnightblue" stroke="midnightblue" points="259.559,-186.653 270.13,-185.948 261.426,-179.907 259.559,-186.653"/>
</g>
<!-- Node4 -->
<g id="node4" class="node"><title>Node4</title>
<g id="a_node4"><a doxygen="/home/ekaszubski/workspace/semio-ai/libsemio/libsemio.tag:https://semio-ai.github.io/libsemio/" xlink:href="https://semio-ai.github.io/libsemio/classsemio_1_1HumanoidStateFilter.html#a3616b8bd0fb4f86c01e89c670bd91601" target="_top" xlink:title="semio::HumanoidStateFilter\l::getStandardFilterHumanoid">
<polygon fill="none" stroke="black" points="255,-137 255,-167 396,-167 396,-137 255,-137"/>
<text text-anchor="start" x="263" y="-155" font-family="Helvetica,sans-Serif" font-size="10.00">semio::HumanoidStateFilter</text>
<text text-anchor="middle" x="325.5" y="-144" font-family="Helvetica,sans-Serif" font-size="10.00">::getStandardFilterHumanoid</text>
</a>
</g>
</g>
<!-- Node2&#45;&gt;Node4 -->
<g id="edge3" class="edge"><title>Node2&#45;&gt;Node4</title>
<path fill="none" stroke="midnightblue" d="M219.238,-152C227.617,-152 236.205,-152 244.685,-152"/>
<polygon fill="midnightblue" stroke="midnightblue" points="244.955,-155.5 254.955,-152 244.955,-148.5 244.955,-155.5"/>
</g>
<!-- Node6 -->
<g id="node6" class="node"><title>Node6</title>
<g id="a_node6"><a doxygen="/home/ekaszubski/workspace/semio-ai/libsemio/libsemio.tag:https://semio-ai.github.io/libsemio/" xlink:href="https://semio-ai.github.io/libsemio/classsemio_1_1DeicticRecognizer.html#a9d19db46cf5142fb08c35eb87319b4d1" target="_top" xlink:title="semio::DeicticRecognizer\l::getHumanoids">
<polygon fill="none" stroke="black" points="261,-88 261,-118 390,-118 390,-88 261,-88"/>
<text text-anchor="start" x="269" y="-106" font-family="Helvetica,sans-Serif" font-size="10.00">semio::DeicticRecognizer</text>
<text text-anchor="middle" x="325.5" y="-95" font-family="Helvetica,sans-Serif" font-size="10.00">::getHumanoids</text>
</a>
</g>
</g>
<!-- Node5&#45;&gt;Node6 -->
<g id="edge5" class="edge"><title>Node5&#45;&gt;Node6</title>
<path fill="none" stroke="midnightblue" d="M206.438,-86.3246C220.656,-88.3327 236.023,-90.5033 250.822,-92.5934"/>
<polygon fill="midnightblue" stroke="midnightblue" points="250.563,-96.0916 260.954,-94.0246 251.542,-89.1604 250.563,-96.0916"/>
</g>
<!-- Node7 -->
<g id="node7" class="node"><title>Node7</title>
<g id="a_node7"><a doxygen="/home/ekaszubski/workspace/semio-ai/libsemio/libsemio.tag:https://semio-ai.github.io/libsemio/" xlink:href="https://semio-ai.github.io/libsemio/classsemio_1_1DeicticRecognizer.html#ac5352ff2c4773f0c7b335a81dbe08b6a" target="_top" xlink:title="semio::DeicticRecognizer\l::calculateResult">
<polygon fill="none" stroke="black" points="261,-39 261,-69 390,-69 390,-39 261,-39"/>
<text text-anchor="start" x="269" y="-57" font-family="Helvetica,sans-Serif" font-size="10.00">semio::DeicticRecognizer</text>
<text text-anchor="middle" x="325.5" y="-46" font-family="Helvetica,sans-Serif" font-size="10.00">::calculateResult</text>
</a>
</g>
</g>
<!-- Node5&#45;&gt;Node7 -->
<g id="edge6" class="edge"><title>Node5&#45;&gt;Node7</title>
<path fill="none" stroke="midnightblue" d="M206.438,-70.0083C220.656,-68.0806 236.023,-65.9969 250.822,-63.9903"/>
<polygon fill="midnightblue" stroke="midnightblue" points="251.515,-67.4283 260.954,-62.6163 250.575,-60.4918 251.515,-67.4283"/>
</g>
<!-- Node8 -->
<g id="node8" class="node"><title>Node8</title>
<g id="a_node8"><a doxygen="/home/ekaszubski/workspace/semio-ai/libsemio/libsemio.tag:https://semio-ai.github.io/libsemio/" xlink:href="https://semio-ai.github.io/libsemio/classsemio_1_1TopNList.html#aca9788649257372b4e0f277858e02a9e" target="_top" xlink:title="semio::TopNList::values">
<polygon fill="none" stroke="black" points="264,-0.5 264,-19.5 387,-19.5 387,-0.5 264,-0.5"/>
<text text-anchor="middle" x="325.5" y="-7.5" font-family="Helvetica,sans-Serif" font-size="10.00">semio::TopNList::values</text>
</a>
</g>
</g>
<!-- Node5&#45;&gt;Node8 -->
<g id="edge7" class="edge"><title>Node5&#45;&gt;Node8</title>
<path fill="none" stroke="midnightblue" d="M166.147,-68.3861C187.289,-57.7505 222.985,-40.5874 255,-29 261.48,-26.6546 268.39,-24.4387 275.245,-22.4052"/>
<polygon fill="midnightblue" stroke="midnightblue" points="276.538,-25.6758 285.191,-19.5626 274.614,-18.9453 276.538,-25.6758"/>
</g>
</g>
</svg>
