<?xml version="1.0" encoding="UTF-8" standalone="no"?>
<!DOCTYPE svg PUBLIC "-//W3C//DTD SVG 1.1//EN"
 "http://www.w3.org/Graphics/SVG/1.1/DTD/svg11.dtd">
<!-- Generated by graphviz version 2.38.0 (20140413.2041)
 -->
<!-- Title: semio_attention_ros/nodes/semio_attention_node.cpp Pages: 1 -->
<!--zoomable 452 -->
<svg id="main" version="1.1" xmlns="http://www.w3.org/2000/svg" xmlns:xlink="http://www.w3.org/1999/xlink" xml:space="preserve" onload="init(evt)">
<style type="text/css"><![CDATA[
.edge:hover path { stroke: red; }
.edge:hover polygon { stroke: red; fill: red; }
]]></style>
<script type="text/javascript"><![CDATA[
var edges = document.getElementsByTagName('g');
if (edges && edges.length) {
  for (var i=0;i<edges.length;i++) {
    if (edges[i].id.substr(0,4)=='edge') {
      edges[i].setAttribute('class','edge');
    }
  }
}
]]></script>
        <defs>
                <circle id="rim" cx="0" cy="0" r="7"/>
                <circle id="rim2" cx="0" cy="0" r="3.5"/>
                <g id="zoomPlus">
                        <use xlink:href="#rim" fill="#404040">
                                <set attributeName="fill" to="#808080" begin="zoomplus.mouseover" end="zoomplus.mouseout"/>
                        </use>
                        <path d="M-4,0h8M0,-4v8" fill="none" stroke="white" stroke-width="1.5" pointer-events="none"/>
                </g>
                <g id="zoomMin">
                        <use xlink:href="#rim" fill="#404040">
                                <set attributeName="fill" to="#808080" begin="zoomminus.mouseover" end="zoomminus.mouseout"/>
                        </use>
                        <path d="M-4,0h8" fill="none" stroke="white" stroke-width="1.5" pointer-events="none"/>
                </g>
                <g id="dirArrow">
                        <path fill="none" stroke="white" stroke-width="1.5" d="M0,-3.0v7 M-2.5,-0.5L0,-3.0L2.5,-0.5"/>
                </g>
               <g id="resetDef">
                       <use xlink:href="#rim2" fill="#404040">
                               <set attributeName="fill" to="#808080" begin="reset.mouseover" end="reset.mouseout"/>
                       </use>
               </g>
        </defs>

<script type="text/javascript">
var viewWidth = 777;
var viewHeight = 452;
var sectionId = 'dynsection-0';
</script>
<script xlink:href="svgpan.js"/>
<svg id="graph" class="graph">
<g id="viewport">
<title>semio_attention_ros/nodes/semio_attention_node.cpp</title>
<!-- Node1 -->
<g id="node1" class="node"><title>Node1</title>
<polygon fill="#bfbfbf" stroke="black" points="253.174,-402.5 253.174,-443.5 371.174,-443.5 371.174,-402.5 253.174,-402.5"/>
<text text-anchor="start" x="261.174" y="-431.5" font-family="Helvetica,sans-Serif" font-size="10.00">semio_attention_ros</text>
<text text-anchor="start" x="261.174" y="-420.5" font-family="Helvetica,sans-Serif" font-size="10.00">/nodes/semio_attention</text>
<text text-anchor="middle" x="312.174" y="-409.5" font-family="Helvetica,sans-Serif" font-size="10.00">_node.cpp</text>
</g>
<!-- Node2 -->
<g id="node2" class="node"><title>Node2</title>
<polygon fill="none" stroke="#bfbfbf" points="21.6739,-341 21.6739,-360 76.6739,-360 76.6739,-341 21.6739,-341"/>
<text text-anchor="middle" x="49.1739" y="-348" font-family="Helvetica,sans-Serif" font-size="10.00">ros/ros.h</text>
</g>
<!-- Node1&#45;&gt;Node2 -->
<g id="edge1" class="edge"><title>Node1&#45;&gt;Node2</title>
<path fill="none" stroke="midnightblue" d="M253.054,-409.573C207.112,-399.384 142.025,-383.78 86.1739,-366 83.8997,-365.276 81.5644,-364.483 79.2262,-363.653"/>
<polygon fill="midnightblue" stroke="midnightblue" points="80.3385,-360.332 69.746,-360.112 77.8891,-366.889 80.3385,-360.332"/>
</g>
<!-- Node3 -->
<g id="node3" class="node"><title>Node3</title>
<polygon fill="none" stroke="#bfbfbf" points="94.6739,-335.5 94.6739,-365.5 227.674,-365.5 227.674,-335.5 94.6739,-335.5"/>
<text text-anchor="start" x="102.674" y="-353.5" font-family="Helvetica,sans-Serif" font-size="10.00">semio_msgs_ros/Attention</text>
<text text-anchor="middle" x="161.174" y="-342.5" font-family="Helvetica,sans-Serif" font-size="10.00">RecognitionResult.h</text>
</g>
<!-- Node1&#45;&gt;Node3 -->
<g id="edge2" class="edge"><title>Node1&#45;&gt;Node3</title>
<path fill="none" stroke="midnightblue" d="M270.112,-402.362C248.371,-392.211 221.995,-379.897 200.642,-369.927"/>
<polygon fill="midnightblue" stroke="midnightblue" points="202.066,-366.729 191.524,-365.67 199.104,-373.072 202.066,-366.729"/>
</g>
<!-- Node4 -->
<g id="node4" class="node"><title>Node4</title>
<polygon fill="none" stroke="#bfbfbf" points="245.674,-335.5 245.674,-365.5 378.674,-365.5 378.674,-335.5 245.674,-335.5"/>
<text text-anchor="start" x="253.674" y="-353.5" font-family="Helvetica,sans-Serif" font-size="10.00">semio_msgs_ros/Attention</text>
<text text-anchor="middle" x="312.174" y="-342.5" font-family="Helvetica,sans-Serif" font-size="10.00">Targets.h</text>
</g>
<!-- Node1&#45;&gt;Node4 -->
<g id="edge3" class="edge"><title>Node1&#45;&gt;Node4</title>
<path fill="none" stroke="midnightblue" d="M312.174,-402.362C312.174,-394.226 312.174,-384.7 312.174,-376.105"/>
<polygon fill="midnightblue" stroke="midnightblue" points="315.674,-375.892 312.174,-365.892 308.674,-375.892 315.674,-375.892"/>
</g>
<!-- Node5 -->
<g id="node5" class="node"><title>Node5</title>
<g id="a_node5"><a doxygen="/home/ekaszubski/workspace/semio-ai/libsemio/libsemio.tag:https://semio-ai.github.io/libsemio/" xlink:href="https://semio-ai.github.io/libsemio/attention__recognizer_8h.html" target="_top" xlink:title="semio/recognition/attention\l_recognizer.h">
<polygon fill="none" stroke="black" points="305.174,-268.5 305.174,-298.5 439.174,-298.5 439.174,-268.5 305.174,-268.5"/>
<text text-anchor="start" x="313.174" y="-286.5" font-family="Helvetica,sans-Serif" font-size="10.00">semio/recognition/attention</text>
<text text-anchor="middle" x="372.174" y="-275.5" font-family="Helvetica,sans-Serif" font-size="10.00">_recognizer.h</text>
</a>
</g>
</g>
<!-- Node1&#45;&gt;Node5 -->
<g id="edge4" class="edge"><title>Node1&#45;&gt;Node5</title>
<path fill="none" stroke="midnightblue" d="M352.606,-402.307C366.502,-393.308 380.487,-381.213 388.174,-366 397.416,-347.711 391.466,-324.613 384.344,-307.68"/>
<polygon fill="midnightblue" stroke="midnightblue" points="387.482,-306.126 380.121,-298.506 381.123,-309.053 387.482,-306.126"/>
</g>
<!-- Node16 -->
<g id="node16" class="node"><title>Node16</title>
<g id="a_node16"><a xlink:href="humanoid__source__adapter_8h.html" target="_top" xlink:title="semio/ros/humanoid\l_source_adapter.h">
<polygon fill="none" stroke="black" points="505.174,-335.5 505.174,-365.5 609.174,-365.5 609.174,-335.5 505.174,-335.5"/>
<text text-anchor="start" x="513.174" y="-353.5" font-family="Helvetica,sans-Serif" font-size="10.00">semio/ros/humanoid</text>
<text text-anchor="middle" x="557.174" y="-342.5" font-family="Helvetica,sans-Serif" font-size="10.00">_source_adapter.h</text>
</a>
</g>
</g>
<!-- Node1&#45;&gt;Node16 -->
<g id="edge20" class="edge"><title>Node1&#45;&gt;Node16</title>
<path fill="none" stroke="midnightblue" d="M371.482,-404.934C409.962,-393.861 459.898,-379.492 498.293,-368.443"/>
<polygon fill="midnightblue" stroke="midnightblue" points="499.651,-371.695 508.294,-365.566 497.716,-364.967 499.651,-371.695"/>
</g>
<!-- Node6 -->
<g id="node6" class="node"><title>Node6</title>
<g id="a_node6"><a doxygen="/home/ekaszubski/workspace/semio-ai/libsemio/libsemio.tag:https://semio-ai.github.io/libsemio/" xlink:href="https://semio-ai.github.io/libsemio/humanoid_8h.html" target="_top" xlink:title="semio/humanoid.h">
<polygon fill="none" stroke="black" points="485.174,-207 485.174,-226 581.174,-226 581.174,-207 485.174,-207"/>
<text text-anchor="middle" x="533.174" y="-214" font-family="Helvetica,sans-Serif" font-size="10.00">semio/humanoid.h</text>
</a>
</g>
</g>
<!-- Node5&#45;&gt;Node6 -->
<g id="edge5" class="edge"><title>Node5&#45;&gt;Node6</title>
<path fill="none" stroke="midnightblue" d="M407.109,-268.396C435.608,-256.89 475.468,-240.797 502.69,-229.807"/>
<polygon fill="midnightblue" stroke="midnightblue" points="504.14,-232.996 512.103,-226.007 501.52,-226.505 504.14,-232.996"/>
</g>
<!-- Node7 -->
<g id="node7" class="node"><title>Node7</title>
<g id="a_node7"><a doxygen="/home/ekaszubski/workspace/semio-ai/libsemio/libsemio.tag:https://semio-ai.github.io/libsemio/" xlink:href="https://semio-ai.github.io/libsemio/top__n__list_8h.html" target="_top" xlink:title="semio/recognition/top\l_n_list.h">
<polygon fill="none" stroke="black" points="414.174,-134.5 414.174,-164.5 524.174,-164.5 524.174,-134.5 414.174,-134.5"/>
<text text-anchor="start" x="422.174" y="-152.5" font-family="Helvetica,sans-Serif" font-size="10.00">semio/recognition/top</text>
<text text-anchor="middle" x="469.174" y="-141.5" font-family="Helvetica,sans-Serif" font-size="10.00">_n_list.h</text>
</a>
</g>
</g>
<!-- Node5&#45;&gt;Node7 -->
<g id="edge9" class="edge"><title>Node5&#45;&gt;Node7</title>
<path fill="none" stroke="midnightblue" d="M382.555,-268.374C399.401,-245.448 432.824,-199.966 452.868,-172.689"/>
<polygon fill="midnightblue" stroke="midnightblue" points="455.767,-174.656 458.868,-164.525 450.126,-170.51 455.767,-174.656"/>
</g>
<!-- Node10 -->
<g id="node10" class="node"><title>Node10</title>
<g id="a_node10"><a doxygen="/home/ekaszubski/workspace/semio-ai/libsemio/libsemio.tag:https://semio-ai.github.io/libsemio/" xlink:href="https://semio-ai.github.io/libsemio/pdf__util_8h.html" target="_top" xlink:title="semio/math/pdf_util.h">
<polygon fill="none" stroke="black" points="168.174,-207 168.174,-226 278.174,-226 278.174,-207 168.174,-207"/>
<text text-anchor="middle" x="223.174" y="-214" font-family="Helvetica,sans-Serif" font-size="10.00">semio/math/pdf_util.h</text>
</a>
</g>
</g>
<!-- Node5&#45;&gt;Node10 -->
<g id="edge10" class="edge"><title>Node5&#45;&gt;Node10</title>
<path fill="none" stroke="midnightblue" d="M339.843,-268.396C313.699,-256.991 277.225,-241.079 252.052,-230.098"/>
<polygon fill="midnightblue" stroke="midnightblue" points="253.24,-226.798 242.675,-226.007 250.441,-233.214 253.24,-226.798"/>
</g>
<!-- Node6&#45;&gt;Node7 -->
<g id="edge6" class="edge"><title>Node6&#45;&gt;Node7</title>
<path fill="none" stroke="midnightblue" d="M524.543,-206.734C515.81,-197.865 501.973,-183.811 490.316,-171.972"/>
<polygon fill="midnightblue" stroke="midnightblue" points="492.556,-169.259 483.046,-164.589 487.568,-174.17 492.556,-169.259"/>
</g>
<!-- Node9 -->
<g id="node9" class="node"><title>Node9</title>
<g id="a_node9"><a doxygen="/home/ekaszubski/workspace/semio-ai/libsemio/libsemio.tag:https://semio-ai.github.io/libsemio/" xlink:href="https://semio-ai.github.io/libsemio/humanoid__impl_8h.html" target="_top" xlink:title="semio/humanoid_impl.h">
<polygon fill="none" stroke="black" points="542.674,-140 542.674,-159 661.674,-159 661.674,-140 542.674,-140"/>
<text text-anchor="middle" x="602.174" y="-147" font-family="Helvetica,sans-Serif" font-size="10.00">semio/humanoid_impl.h</text>
</a>
</g>
</g>
<!-- Node6&#45;&gt;Node9 -->
<g id="edge8" class="edge"><title>Node6&#45;&gt;Node9</title>
<path fill="none" stroke="midnightblue" d="M542.48,-206.734C553.446,-196.403 571.881,-179.037 585.368,-166.332"/>
<polygon fill="midnightblue" stroke="midnightblue" points="588.137,-168.532 593.016,-159.127 583.337,-163.437 588.137,-168.532"/>
</g>
<!-- Node8 -->
<g id="node8" class="node"><title>Node8</title>
<g id="a_node8"><a doxygen="/home/ekaszubski/workspace/semio-ai/libsemio/libsemio.tag:https://semio-ai.github.io/libsemio/" xlink:href="https://semio-ai.github.io/libsemio/top__n__list__impl_8h.html" target="_top" xlink:title="semio/recognition/top\l_n_list_impl.h">
<polygon fill="none" stroke="black" points="416.174,-67.5 416.174,-97.5 526.174,-97.5 526.174,-67.5 416.174,-67.5"/>
<text text-anchor="start" x="424.174" y="-85.5" font-family="Helvetica,sans-Serif" font-size="10.00">semio/recognition/top</text>
<text text-anchor="middle" x="471.174" y="-74.5" font-family="Helvetica,sans-Serif" font-size="10.00">_n_list_impl.h</text>
</a>
</g>
</g>
<!-- Node7&#45;&gt;Node8 -->
<g id="edge7" class="edge"><title>Node7&#45;&gt;Node8</title>
<path fill="none" stroke="midnightblue" d="M469.608,-134.396C469.846,-126.645 470.149,-116.812 470.424,-107.86"/>
<polygon fill="midnightblue" stroke="midnightblue" points="473.932,-107.679 470.741,-97.5765 466.935,-107.464 473.932,-107.679"/>
</g>
<!-- Node11 -->
<g id="node11" class="node"><title>Node11</title>
<g id="a_node11"><a doxygen="/home/ekaszubski/workspace/semio-ai/libsemio/libsemio.tag:https://semio-ai.github.io/libsemio/" xlink:href="https://semio-ai.github.io/libsemio/probability__distribution_8h.html" target="_top" xlink:title="semio/math/probability\l_distribution.h">
<polygon fill="none" stroke="black" points="79.6739,-0.5 79.6739,-30.5 194.674,-30.5 194.674,-0.5 79.6739,-0.5"/>
<text text-anchor="start" x="87.6739" y="-18.5" font-family="Helvetica,sans-Serif" font-size="10.00">semio/math/probability</text>
<text text-anchor="middle" x="137.174" y="-7.5" font-family="Helvetica,sans-Serif" font-size="10.00">_distribution.h</text>
</a>
</g>
</g>
<!-- Node10&#45;&gt;Node11 -->
<g id="edge11" class="edge"><title>Node10&#45;&gt;Node11</title>
<path fill="none" stroke="midnightblue" d="M182.651,-206.943C130.952,-193.611 43.6329,-162.419 5.17393,-98 -14.3588,-65.2827 28.0145,-43.8359 69.8344,-31.1949"/>
<polygon fill="midnightblue" stroke="midnightblue" points="70.9219,-34.5241 79.5674,-28.4 68.9898,-27.796 70.9219,-34.5241"/>
</g>
<!-- Node12 -->
<g id="node12" class="node"><title>Node12</title>
<g id="a_node12"><a doxygen="/home/ekaszubski/workspace/semio-ai/libsemio/libsemio.tag:https://semio-ai.github.io/libsemio/" xlink:href="https://semio-ai.github.io/libsemio/gaussian_8h.html" target="_top" xlink:title="semio/math/gaussian.h">
<polygon fill="none" stroke="black" points="14.1739,-73 14.1739,-92 132.174,-92 132.174,-73 14.1739,-73"/>
<text text-anchor="middle" x="73.1739" y="-80" font-family="Helvetica,sans-Serif" font-size="10.00">semio/math/gaussian.h</text>
</a>
</g>
</g>
<!-- Node10&#45;&gt;Node12 -->
<g id="edge12" class="edge"><title>Node10&#45;&gt;Node12</title>
<path fill="none" stroke="midnightblue" d="M213.332,-206.839C188.323,-184.831 122.079,-126.536 90.4523,-98.7049"/>
<polygon fill="midnightblue" stroke="midnightblue" points="92.6765,-96 82.8571,-92.0212 88.052,-101.255 92.6765,-96"/>
</g>
<!-- Node13 -->
<g id="node13" class="node"><title>Node13</title>
<g id="a_node13"><a doxygen="/home/ekaszubski/workspace/semio-ai/libsemio/libsemio.tag:https://semio-ai.github.io/libsemio/" xlink:href="https://semio-ai.github.io/libsemio/uniform__distribution_8h.html" target="_top" xlink:title="semio/math/uniform\l_distribution.h">
<polygon fill="none" stroke="black" points="150.674,-67.5 150.674,-97.5 253.674,-97.5 253.674,-67.5 150.674,-67.5"/>
<text text-anchor="start" x="158.674" y="-85.5" font-family="Helvetica,sans-Serif" font-size="10.00">semio/math/uniform</text>
<text text-anchor="middle" x="202.174" y="-74.5" font-family="Helvetica,sans-Serif" font-size="10.00">_distribution.h</text>
</a>
</g>
</g>
<!-- Node10&#45;&gt;Node13 -->
<g id="edge14" class="edge"><title>Node10&#45;&gt;Node13</title>
<path fill="none" stroke="midnightblue" d="M221.796,-206.839C218.643,-187.019 210.808,-137.769 206.047,-107.844"/>
<polygon fill="midnightblue" stroke="midnightblue" points="209.474,-107.109 204.446,-97.7832 202.561,-108.209 209.474,-107.109"/>
</g>
<!-- Node14 -->
<g id="node14" class="node"><title>Node14</title>
<g id="a_node14"><a doxygen="/home/ekaszubski/workspace/semio-ai/libsemio/libsemio.tag:https://semio-ai.github.io/libsemio/" xlink:href="https://semio-ai.github.io/libsemio/von__mises_8h.html" target="_top" xlink:title="semio/math/von_mises.h">
<polygon fill="none" stroke="black" points="272.174,-73 272.174,-92 398.174,-92 398.174,-73 272.174,-73"/>
<text text-anchor="middle" x="335.174" y="-80" font-family="Helvetica,sans-Serif" font-size="10.00">semio/math/von_mises.h</text>
</a>
</g>
</g>
<!-- Node10&#45;&gt;Node14 -->
<g id="edge16" class="edge"><title>Node10&#45;&gt;Node14</title>
<path fill="none" stroke="midnightblue" d="M226.626,-206.935C233.227,-191.259 248.811,-157.417 269.174,-134 281.6,-119.711 298.633,-106.799 312.283,-97.6088"/>
<polygon fill="midnightblue" stroke="midnightblue" points="314.219,-100.525 320.682,-92.1297 310.394,-94.6621 314.219,-100.525"/>
</g>
<!-- Node15 -->
<g id="node15" class="node"><title>Node15</title>
<g id="a_node15"><a doxygen="/home/ekaszubski/workspace/semio-ai/libsemio/libsemio.tag:https://semio-ai.github.io/libsemio/" xlink:href="https://semio-ai.github.io/libsemio/wrapped__normal_8h.html" target="_top" xlink:title="semio/math/wrapped\l_normal.h">
<polygon fill="none" stroke="black" points="277.674,-134.5 277.674,-164.5 384.674,-164.5 384.674,-134.5 277.674,-134.5"/>
<text text-anchor="start" x="285.674" y="-152.5" font-family="Helvetica,sans-Serif" font-size="10.00">semio/math/wrapped</text>
<text text-anchor="middle" x="331.174" y="-141.5" font-family="Helvetica,sans-Serif" font-size="10.00">_normal.h</text>
</a>
</g>
</g>
<!-- Node10&#45;&gt;Node15 -->
<g id="edge18" class="edge"><title>Node10&#45;&gt;Node15</title>
<path fill="none" stroke="midnightblue" d="M237.739,-206.734C253.388,-197.316 278.75,-182.051 299.105,-169.801"/>
<polygon fill="midnightblue" stroke="midnightblue" points="301.001,-172.744 307.764,-164.589 297.392,-166.747 301.001,-172.744"/>
</g>
<!-- Node12&#45;&gt;Node11 -->
<g id="edge13" class="edge"><title>Node12&#45;&gt;Node11</title>
<path fill="none" stroke="midnightblue" d="M81.8053,-72.7338C90.5378,-63.8649 104.375,-49.8111 116.032,-37.9722"/>
<polygon fill="midnightblue" stroke="midnightblue" points="118.78,-40.1703 123.302,-30.589 113.792,-35.2591 118.78,-40.1703"/>
</g>
<!-- Node13&#45;&gt;Node11 -->
<g id="edge15" class="edge"><title>Node13&#45;&gt;Node11</title>
<path fill="none" stroke="midnightblue" d="M188.07,-67.396C179.382,-58.7079 168.079,-47.4046 158.332,-37.6576"/>
<polygon fill="midnightblue" stroke="midnightblue" points="160.796,-35.1727 151.25,-30.5765 155.847,-40.1225 160.796,-35.1727"/>
</g>
<!-- Node14&#45;&gt;Node11 -->
<g id="edge17" class="edge"><title>Node14&#45;&gt;Node11</title>
<path fill="none" stroke="midnightblue" d="M308.881,-72.8685C278.656,-62.9461 228.28,-46.4085 189.888,-33.8051"/>
<polygon fill="midnightblue" stroke="midnightblue" points="190.498,-30.3218 179.906,-30.5281 188.315,-36.9726 190.498,-30.3218"/>
</g>
<!-- Node15&#45;&gt;Node14 -->
<g id="edge19" class="edge"><title>Node15&#45;&gt;Node14</title>
<path fill="none" stroke="midnightblue" d="M332.042,-134.396C332.622,-124.963 333.392,-112.448 334.024,-102.189"/>
<polygon fill="midnightblue" stroke="midnightblue" points="337.518,-102.391 334.639,-92.1945 330.531,-101.961 337.518,-102.391"/>
</g>
<!-- Node17 -->
<g id="node17" class="node"><title>Node17</title>
<g id="a_node17"><a doxygen="/home/ekaszubski/workspace/semio-ai/libsemio/libsemio.tag:https://semio-ai.github.io/libsemio/" xlink:href="https://semio-ai.github.io/libsemio/humanoid__source_8h.html" target="_top" xlink:title="semio/recognition/humanoid\l_source.h">
<polygon fill="none" stroke="black" points="631.174,-268.5 631.174,-298.5 769.174,-298.5 769.174,-268.5 631.174,-268.5"/>
<text text-anchor="start" x="639.174" y="-286.5" font-family="Helvetica,sans-Serif" font-size="10.00">semio/recognition/humanoid</text>
<text text-anchor="middle" x="700.174" y="-275.5" font-family="Helvetica,sans-Serif" font-size="10.00">_source.h</text>
</a>
</g>
</g>
<!-- Node16&#45;&gt;Node17 -->
<g id="edge21" class="edge"><title>Node16&#45;&gt;Node17</title>
<path fill="none" stroke="midnightblue" d="M588.203,-335.396C609.19,-325.856 637.115,-313.163 659.827,-302.84"/>
<polygon fill="midnightblue" stroke="midnightblue" points="661.55,-305.901 669.206,-298.577 658.654,-299.528 661.55,-305.901"/>
</g>
<!-- Node19 -->
<g id="node19" class="node"><title>Node19</title>
<polygon fill="none" stroke="#bfbfbf" points="457.174,-274 457.174,-293 553.174,-293 553.174,-274 457.174,-274"/>
<text text-anchor="middle" x="505.174" y="-281" font-family="Helvetica,sans-Serif" font-size="10.00">ros/node_handle.h</text>
</g>
<!-- Node16&#45;&gt;Node19 -->
<g id="edge24" class="edge"><title>Node16&#45;&gt;Node19</title>
<path fill="none" stroke="midnightblue" d="M545.891,-335.396C537.863,-325.361 527.044,-311.838 518.577,-301.253"/>
<polygon fill="midnightblue" stroke="midnightblue" points="521.11,-298.817 512.13,-293.195 515.644,-303.19 521.11,-298.817"/>
</g>
<!-- Node20 -->
<g id="node20" class="node"><title>Node20</title>
<polygon fill="none" stroke="#bfbfbf" points="571.674,-274 571.674,-293 612.674,-293 612.674,-274 571.674,-274"/>
<text text-anchor="middle" x="592.174" y="-281" font-family="Helvetica,sans-Serif" font-size="10.00">string</text>
</g>
<!-- Node16&#45;&gt;Node20 -->
<g id="edge25" class="edge"><title>Node16&#45;&gt;Node20</title>
<path fill="none" stroke="midnightblue" d="M564.768,-335.396C570.01,-325.662 577.018,-312.646 582.636,-302.214"/>
<polygon fill="midnightblue" stroke="midnightblue" points="585.833,-303.659 587.492,-293.195 579.67,-300.34 585.833,-303.659"/>
</g>
<!-- Node17&#45;&gt;Node6 -->
<g id="edge22" class="edge"><title>Node17&#45;&gt;Node6</title>
<path fill="none" stroke="midnightblue" d="M663.937,-268.396C634.246,-256.84 592.667,-240.656 564.423,-229.663"/>
<polygon fill="midnightblue" stroke="midnightblue" points="565.619,-226.373 555.03,-226.007 563.08,-232.896 565.619,-226.373"/>
</g>
<!-- Node18 -->
<g id="node18" class="node"><title>Node18</title>
<g id="a_node18"><a doxygen="/home/ekaszubski/workspace/semio-ai/libsemio/libsemio.tag:https://semio-ai.github.io/libsemio/" xlink:href="https://semio-ai.github.io/libsemio/humanoid__source__impl_8h.html" target="_top" xlink:title="semio/recognition/humanoid\l_source_impl.h">
<polygon fill="none" stroke="black" points="631.174,-201.5 631.174,-231.5 769.174,-231.5 769.174,-201.5 631.174,-201.5"/>
<text text-anchor="start" x="639.174" y="-219.5" font-family="Helvetica,sans-Serif" font-size="10.00">semio/recognition/humanoid</text>
<text text-anchor="middle" x="700.174" y="-208.5" font-family="Helvetica,sans-Serif" font-size="10.00">_source_impl.h</text>
</a>
</g>
</g>
<!-- Node17&#45;&gt;Node18 -->
<g id="edge23" class="edge"><title>Node17&#45;&gt;Node18</title>
<path fill="none" stroke="midnightblue" d="M700.174,-268.396C700.174,-260.645 700.174,-250.812 700.174,-241.86"/>
<polygon fill="midnightblue" stroke="midnightblue" points="703.674,-241.576 700.174,-231.577 696.674,-241.577 703.674,-241.576"/>
</g>
</g>
</svg>
        <g id="navigator" transform="translate(0 0)" fill="#404254">
                <rect fill="#f2f5e9" fill-opacity="0.5" stroke="#606060" stroke-width=".5" x="0" y="0" width="60" height="60"/>
                <use id="zoomplus" xlink:href="#zoomPlus" x="17" y="9" onmousedown="handleZoom(evt,'in')"/>
                <use id="zoomminus" xlink:href="#zoomMin" x="42" y="9" onmousedown="handleZoom(evt,'out')"/>
                <use id="reset" xlink:href="#resetDef" x="30" y="36" onmousedown="handleReset()"/>
                <g id="arrowUp" xlink:href="#dirArrow" transform="translate(30 24)" onmousedown="handlePan(0,-1)">
                  <use xlink:href="#rim" fill="#404040">
                        <set attributeName="fill" to="#808080" begin="arrowUp.mouseover" end="arrowUp.mouseout"/>
                  </use>
                  <path fill="none" stroke="white" stroke-width="1.5" d="M0,-3.0v7 M-2.5,-0.5L0,-3.0L2.5,-0.5"/>
                </g>
                <g id="arrowRight" xlink:href="#dirArrow" transform="rotate(90) translate(36 -43)" onmousedown="handlePan(1,0)">
                  <use xlink:href="#rim" fill="#404040">
                        <set attributeName="fill" to="#808080" begin="arrowRight.mouseover" end="arrowRight.mouseout"/>
                  </use>
                  <path fill="none" stroke="white" stroke-width="1.5" d="M0,-3.0v7 M-2.5,-0.5L0,-3.0L2.5,-0.5"/>
                </g>
                <g id="arrowDown" xlink:href="#dirArrow" transform="rotate(180) translate(-30 -48)" onmousedown="handlePan(0,1)">
                  <use xlink:href="#rim" fill="#404040">
                        <set attributeName="fill" to="#808080" begin="arrowDown.mouseover" end="arrowDown.mouseout"/>
                  </use>
                  <path fill="none" stroke="white" stroke-width="1.5" d="M0,-3.0v7 M-2.5,-0.5L0,-3.0L2.5,-0.5"/>
                </g>
                <g id="arrowLeft" xlink:href="#dirArrow" transform="rotate(270) translate(-36 17)" onmousedown="handlePan(-1,0)">
                  <use xlink:href="#rim" fill="#404040">
                        <set attributeName="fill" to="#808080" begin="arrowLeft.mouseover" end="arrowLeft.mouseout"/>
                  </use>
                  <path fill="none" stroke="white" stroke-width="1.5" d="M0,-3.0v7 M-2.5,-0.5L0,-3.0L2.5,-0.5"/>
                </g>
        </g>
        <svg viewBox="0 0 15 15" width="100%" height="30px" preserveAspectRatio="xMaxYMin meet">
         <g id="arrow_out" transform="scale(0.3 0.3)">
          <a xlink:href="semio__attention__node_8cpp__incl_org.svg" target="_base">
           <rect id="button" ry="5" rx="5" y="6" x="6" height="38" width="38"
                fill="#f2f5e9" fill-opacity="0.5" stroke="#606060" stroke-width="1.0"/>
           <path id="arrow"
             d="M 11.500037,31.436501 C 11.940474,20.09759 22.043105,11.32322 32.158766,21.979434 L 37.068811,17.246167 C 37.068811,17.246167 37.088388,32 37.088388,32 L 22.160133,31.978069 C 22.160133,31.978069 26.997745,27.140456 26.997745,27.140456 C 18.528582,18.264221 13.291696,25.230495 11.500037,31.436501 z"
             style="fill:#404040;"/>
          </a>
         </g>
        </svg>
</svg>
