<?xml version="1.0" encoding="UTF-8" standalone="no"?>
<!DOCTYPE svg PUBLIC "-//W3C//DTD SVG 1.1//EN"
 "http://www.w3.org/Graphics/SVG/1.1/DTD/svg11.dtd">
<!-- Generated by graphviz version 2.38.0 (20140413.2041)
 -->
<!-- Title: semio_deixis_ros/nodes/semio_deixis_node.cpp Pages: 1 -->
<svg width="898pt" height="441pt"
 viewBox="0.00 0.00 897.50 441.00" xmlns="http://www.w3.org/2000/svg" xmlns:xlink="http://www.w3.org/1999/xlink">
<g id="graph0" class="graph" transform="scale(1 1) rotate(0) translate(4 437)">
<title>semio_deixis_ros/nodes/semio_deixis_node.cpp</title>
<!-- Node1 -->
<g id="node1" class="node"><title>Node1</title>
<polygon fill="#bfbfbf" stroke="black" points="289.5,-402.5 289.5,-432.5 411.5,-432.5 411.5,-402.5 289.5,-402.5"/>
<text text-anchor="start" x="297.5" y="-420.5" font-family="Helvetica,sans-Serif" font-size="10.00">semio_deixis_ros/nodes</text>
<text text-anchor="middle" x="350.5" y="-409.5" font-family="Helvetica,sans-Serif" font-size="10.00">/semio_deixis_node.cpp</text>
</g>
<!-- Node2 -->
<g id="node2" class="node"><title>Node2</title>
<polygon fill="none" stroke="#bfbfbf" points="0,-341 0,-360 55,-360 55,-341 0,-341"/>
<text text-anchor="middle" x="27.5" y="-348" font-family="Helvetica,sans-Serif" font-size="10.00">ros/ros.h</text>
</g>
<!-- Node1&#45;&gt;Node2 -->
<g id="edge1" class="edge"><title>Node1&#45;&gt;Node2</title>
<path fill="none" stroke="midnightblue" d="M289.456,-409.299C231.008,-401.568 140.705,-387.43 64.5,-366 61.9118,-365.272 59.2543,-364.43 56.6084,-363.525"/>
<polygon fill="midnightblue" stroke="midnightblue" points="57.8157,-360.24 47.2223,-360.065 55.3947,-366.808 57.8157,-360.24"/>
</g>
<!-- Node3 -->
<g id="node3" class="node"><title>Node3</title>
<polygon fill="none" stroke="#bfbfbf" points="73.5,-335.5 73.5,-365.5 249.5,-365.5 249.5,-335.5 73.5,-335.5"/>
<text text-anchor="start" x="81.5" y="-353.5" font-family="Helvetica,sans-Serif" font-size="10.00">semio_msgs_ros/DeicticRecognition</text>
<text text-anchor="middle" x="161.5" y="-342.5" font-family="Helvetica,sans-Serif" font-size="10.00">Result.h</text>
</g>
<!-- Node1&#45;&gt;Node3 -->
<g id="edge2" class="edge"><title>Node1&#45;&gt;Node3</title>
<path fill="none" stroke="midnightblue" d="M309.49,-402.396C280.884,-392.558 242.528,-379.367 212.033,-368.879"/>
<polygon fill="midnightblue" stroke="midnightblue" points="213.025,-365.519 202.43,-365.577 210.748,-372.139 213.025,-365.519"/>
</g>
<!-- Node4 -->
<g id="node4" class="node"><title>Node4</title>
<polygon fill="none" stroke="#bfbfbf" points="267.5,-341 267.5,-360 433.5,-360 433.5,-341 267.5,-341"/>
<text text-anchor="middle" x="350.5" y="-348" font-family="Helvetica,sans-Serif" font-size="10.00">semio_msgs_ros/DeicticTargets.h</text>
</g>
<!-- Node1&#45;&gt;Node4 -->
<g id="edge3" class="edge"><title>Node1&#45;&gt;Node4</title>
<path fill="none" stroke="midnightblue" d="M350.5,-402.396C350.5,-393.064 350.5,-380.714 350.5,-370.517"/>
<polygon fill="midnightblue" stroke="midnightblue" points="354,-370.195 350.5,-360.195 347,-370.195 354,-370.195"/>
</g>
<!-- Node5 -->
<g id="node5" class="node"><title>Node5</title>
<g id="a_node5"><a doxygen="/home/ekaszubski/workspace/semio-ai/libsemio/libsemio.tag:https://semio-ai.github.io/libsemio/" xlink:href="https://semio-ai.github.io/libsemio/deictic__recognizer_8h.html" target="_top" xlink:title="semio/recognition/deictic\l_recognizer.h">
<polygon fill="none" stroke="black" points="452,-335.5 452,-365.5 577,-365.5 577,-335.5 452,-335.5"/>
<text text-anchor="start" x="460" y="-353.5" font-family="Helvetica,sans-Serif" font-size="10.00">semio/recognition/deictic</text>
<text text-anchor="middle" x="514.5" y="-342.5" font-family="Helvetica,sans-Serif" font-size="10.00">_recognizer.h</text>
</a>
</g>
</g>
<!-- Node1&#45;&gt;Node5 -->
<g id="edge4" class="edge"><title>Node1&#45;&gt;Node5</title>
<path fill="none" stroke="midnightblue" d="M386.086,-402.396C410.585,-392.686 443.327,-379.709 469.617,-369.289"/>
<polygon fill="midnightblue" stroke="midnightblue" points="470.977,-372.515 478.984,-365.577 468.398,-366.007 470.977,-372.515"/>
</g>
<!-- Node17 -->
<g id="node17" class="node"><title>Node17</title>
<g id="a_node17"><a xlink:href="humanoid__source__adapter_8h.html" target="_top" xlink:title="semio/ros/humanoid\l_source_adapter.h">
<polygon fill="none" stroke="black" points="638.5,-335.5 638.5,-365.5 742.5,-365.5 742.5,-335.5 638.5,-335.5"/>
<text text-anchor="start" x="646.5" y="-353.5" font-family="Helvetica,sans-Serif" font-size="10.00">semio/ros/humanoid</text>
<text text-anchor="middle" x="690.5" y="-342.5" font-family="Helvetica,sans-Serif" font-size="10.00">_source_adapter.h</text>
</a>
</g>
</g>
<!-- Node1&#45;&gt;Node17 -->
<g id="edge21" class="edge"><title>Node1&#45;&gt;Node17</title>
<path fill="none" stroke="midnightblue" d="M411.678,-404.804C472.982,-393.084 566.858,-375.137 628.464,-363.36"/>
<polygon fill="midnightblue" stroke="midnightblue" points="629.277,-366.768 638.442,-361.452 627.962,-359.892 629.277,-366.768"/>
</g>
<!-- Node6 -->
<g id="node6" class="node"><title>Node6</title>
<g id="a_node6"><a doxygen="/home/ekaszubski/workspace/semio-ai/libsemio/libsemio.tag:https://semio-ai.github.io/libsemio/" xlink:href="https://semio-ai.github.io/libsemio/attention__recognizer_8h.html" target="_top" xlink:title="semio/recognition/attention\l_recognizer.h">
<polygon fill="none" stroke="black" points="425.5,-268.5 425.5,-298.5 559.5,-298.5 559.5,-268.5 425.5,-268.5"/>
<text text-anchor="start" x="433.5" y="-286.5" font-family="Helvetica,sans-Serif" font-size="10.00">semio/recognition/attention</text>
<text text-anchor="middle" x="492.5" y="-275.5" font-family="Helvetica,sans-Serif" font-size="10.00">_recognizer.h</text>
</a>
</g>
</g>
<!-- Node5&#45;&gt;Node6 -->
<g id="edge5" class="edge"><title>Node5&#45;&gt;Node6</title>
<path fill="none" stroke="midnightblue" d="M509.726,-335.396C507.045,-327.474 503.628,-317.379 500.546,-308.271"/>
<polygon fill="midnightblue" stroke="midnightblue" points="503.786,-306.927 497.264,-298.577 497.155,-309.171 503.786,-306.927"/>
</g>
<!-- Node7 -->
<g id="node7" class="node"><title>Node7</title>
<g id="a_node7"><a doxygen="/home/ekaszubski/workspace/semio-ai/libsemio/libsemio.tag:https://semio-ai.github.io/libsemio/" xlink:href="https://semio-ai.github.io/libsemio/humanoid_8h.html" target="_top" xlink:title="semio/humanoid.h">
<polygon fill="none" stroke="black" points="605.5,-207 605.5,-226 701.5,-226 701.5,-207 605.5,-207"/>
<text text-anchor="middle" x="653.5" y="-214" font-family="Helvetica,sans-Serif" font-size="10.00">semio/humanoid.h</text>
</a>
</g>
</g>
<!-- Node6&#45;&gt;Node7 -->
<g id="edge6" class="edge"><title>Node6&#45;&gt;Node7</title>
<path fill="none" stroke="midnightblue" d="M527.435,-268.396C555.934,-256.89 595.794,-240.797 623.016,-229.807"/>
<polygon fill="midnightblue" stroke="midnightblue" points="624.466,-232.996 632.429,-226.007 621.846,-226.505 624.466,-232.996"/>
</g>
<!-- Node8 -->
<g id="node8" class="node"><title>Node8</title>
<g id="a_node8"><a doxygen="/home/ekaszubski/workspace/semio-ai/libsemio/libsemio.tag:https://semio-ai.github.io/libsemio/" xlink:href="https://semio-ai.github.io/libsemio/top__n__list_8h.html" target="_top" xlink:title="semio/recognition/top\l_n_list.h">
<polygon fill="none" stroke="black" points="534.5,-134.5 534.5,-164.5 644.5,-164.5 644.5,-134.5 534.5,-134.5"/>
<text text-anchor="start" x="542.5" y="-152.5" font-family="Helvetica,sans-Serif" font-size="10.00">semio/recognition/top</text>
<text text-anchor="middle" x="589.5" y="-141.5" font-family="Helvetica,sans-Serif" font-size="10.00">_n_list.h</text>
</a>
</g>
</g>
<!-- Node6&#45;&gt;Node8 -->
<g id="edge10" class="edge"><title>Node6&#45;&gt;Node8</title>
<path fill="none" stroke="midnightblue" d="M502.881,-268.374C519.727,-245.448 553.15,-199.966 573.194,-172.689"/>
<polygon fill="midnightblue" stroke="midnightblue" points="576.093,-174.656 579.194,-164.525 570.452,-170.51 576.093,-174.656"/>
</g>
<!-- Node11 -->
<g id="node11" class="node"><title>Node11</title>
<g id="a_node11"><a doxygen="/home/ekaszubski/workspace/semio-ai/libsemio/libsemio.tag:https://semio-ai.github.io/libsemio/" xlink:href="https://semio-ai.github.io/libsemio/pdf__util_8h.html" target="_top" xlink:title="semio/math/pdf_util.h">
<polygon fill="none" stroke="black" points="288.5,-207 288.5,-226 398.5,-226 398.5,-207 288.5,-207"/>
<text text-anchor="middle" x="343.5" y="-214" font-family="Helvetica,sans-Serif" font-size="10.00">semio/math/pdf_util.h</text>
</a>
</g>
</g>
<!-- Node6&#45;&gt;Node11 -->
<g id="edge11" class="edge"><title>Node6&#45;&gt;Node11</title>
<path fill="none" stroke="midnightblue" d="M460.169,-268.396C434.025,-256.991 397.551,-241.079 372.378,-230.098"/>
<polygon fill="midnightblue" stroke="midnightblue" points="373.566,-226.798 363.001,-226.007 370.767,-233.214 373.566,-226.798"/>
</g>
<!-- Node7&#45;&gt;Node8 -->
<g id="edge7" class="edge"><title>Node7&#45;&gt;Node8</title>
<path fill="none" stroke="midnightblue" d="M644.869,-206.734C636.136,-197.865 622.299,-183.811 610.642,-171.972"/>
<polygon fill="midnightblue" stroke="midnightblue" points="612.882,-169.259 603.372,-164.589 607.894,-174.17 612.882,-169.259"/>
</g>
<!-- Node10 -->
<g id="node10" class="node"><title>Node10</title>
<g id="a_node10"><a doxygen="/home/ekaszubski/workspace/semio-ai/libsemio/libsemio.tag:https://semio-ai.github.io/libsemio/" xlink:href="https://semio-ai.github.io/libsemio/humanoid__impl_8h.html" target="_top" xlink:title="semio/humanoid_impl.h">
<polygon fill="none" stroke="black" points="663,-140 663,-159 782,-159 782,-140 663,-140"/>
<text text-anchor="middle" x="722.5" y="-147" font-family="Helvetica,sans-Serif" font-size="10.00">semio/humanoid_impl.h</text>
</a>
</g>
</g>
<!-- Node7&#45;&gt;Node10 -->
<g id="edge9" class="edge"><title>Node7&#45;&gt;Node10</title>
<path fill="none" stroke="midnightblue" d="M662.806,-206.734C673.772,-196.403 692.207,-179.037 705.694,-166.332"/>
<polygon fill="midnightblue" stroke="midnightblue" points="708.463,-168.532 713.342,-159.127 703.663,-163.437 708.463,-168.532"/>
</g>
<!-- Node9 -->
<g id="node9" class="node"><title>Node9</title>
<g id="a_node9"><a doxygen="/home/ekaszubski/workspace/semio-ai/libsemio/libsemio.tag:https://semio-ai.github.io/libsemio/" xlink:href="https://semio-ai.github.io/libsemio/top__n__list__impl_8h.html" target="_top" xlink:title="semio/recognition/top\l_n_list_impl.h">
<polygon fill="none" stroke="black" points="536.5,-67.5 536.5,-97.5 646.5,-97.5 646.5,-67.5 536.5,-67.5"/>
<text text-anchor="start" x="544.5" y="-85.5" font-family="Helvetica,sans-Serif" font-size="10.00">semio/recognition/top</text>
<text text-anchor="middle" x="591.5" y="-74.5" font-family="Helvetica,sans-Serif" font-size="10.00">_n_list_impl.h</text>
</a>
</g>
</g>
<!-- Node8&#45;&gt;Node9 -->
<g id="edge8" class="edge"><title>Node8&#45;&gt;Node9</title>
<path fill="none" stroke="midnightblue" d="M589.934,-134.396C590.172,-126.645 590.475,-116.812 590.75,-107.86"/>
<polygon fill="midnightblue" stroke="midnightblue" points="594.258,-107.679 591.067,-97.5765 587.261,-107.464 594.258,-107.679"/>
</g>
<!-- Node12 -->
<g id="node12" class="node"><title>Node12</title>
<g id="a_node12"><a doxygen="/home/ekaszubski/workspace/semio-ai/libsemio/libsemio.tag:https://semio-ai.github.io/libsemio/" xlink:href="https://semio-ai.github.io/libsemio/probability__distribution_8h.html" target="_top" xlink:title="semio/math/probability\l_distribution.h">
<polygon fill="none" stroke="black" points="200,-0.5 200,-30.5 315,-30.5 315,-0.5 200,-0.5"/>
<text text-anchor="start" x="208" y="-18.5" font-family="Helvetica,sans-Serif" font-size="10.00">semio/math/probability</text>
<text text-anchor="middle" x="257.5" y="-7.5" font-family="Helvetica,sans-Serif" font-size="10.00">_distribution.h</text>
</a>
</g>
</g>
<!-- Node11&#45;&gt;Node12 -->
<g id="edge12" class="edge"><title>Node11&#45;&gt;Node12</title>
<path fill="none" stroke="midnightblue" d="M302.977,-206.943C251.278,-193.611 163.959,-162.419 125.5,-98 105.967,-65.2827 148.341,-43.8359 190.16,-31.1949"/>
<polygon fill="midnightblue" stroke="midnightblue" points="191.248,-34.5241 199.893,-28.4 189.316,-27.796 191.248,-34.5241"/>
</g>
<!-- Node13 -->
<g id="node13" class="node"><title>Node13</title>
<g id="a_node13"><a doxygen="/home/ekaszubski/workspace/semio-ai/libsemio/libsemio.tag:https://semio-ai.github.io/libsemio/" xlink:href="https://semio-ai.github.io/libsemio/gaussian_8h.html" target="_top" xlink:title="semio/math/gaussian.h">
<polygon fill="none" stroke="black" points="134.5,-73 134.5,-92 252.5,-92 252.5,-73 134.5,-73"/>
<text text-anchor="middle" x="193.5" y="-80" font-family="Helvetica,sans-Serif" font-size="10.00">semio/math/gaussian.h</text>
</a>
</g>
</g>
<!-- Node11&#45;&gt;Node13 -->
<g id="edge13" class="edge"><title>Node11&#45;&gt;Node13</title>
<path fill="none" stroke="midnightblue" d="M333.658,-206.839C308.649,-184.831 242.405,-126.536 210.778,-98.7049"/>
<polygon fill="midnightblue" stroke="midnightblue" points="213.003,-96 203.183,-92.0212 208.378,-101.255 213.003,-96"/>
</g>
<!-- Node14 -->
<g id="node14" class="node"><title>Node14</title>
<g id="a_node14"><a doxygen="/home/ekaszubski/workspace/semio-ai/libsemio/libsemio.tag:https://semio-ai.github.io/libsemio/" xlink:href="https://semio-ai.github.io/libsemio/uniform__distribution_8h.html" target="_top" xlink:title="semio/math/uniform\l_distribution.h">
<polygon fill="none" stroke="black" points="271,-67.5 271,-97.5 374,-97.5 374,-67.5 271,-67.5"/>
<text text-anchor="start" x="279" y="-85.5" font-family="Helvetica,sans-Serif" font-size="10.00">semio/math/uniform</text>
<text text-anchor="middle" x="322.5" y="-74.5" font-family="Helvetica,sans-Serif" font-size="10.00">_distribution.h</text>
</a>
</g>
</g>
<!-- Node11&#45;&gt;Node14 -->
<g id="edge15" class="edge"><title>Node11&#45;&gt;Node14</title>
<path fill="none" stroke="midnightblue" d="M342.122,-206.839C338.969,-187.019 331.134,-137.769 326.373,-107.844"/>
<polygon fill="midnightblue" stroke="midnightblue" points="329.8,-107.109 324.772,-97.7832 322.887,-108.209 329.8,-107.109"/>
</g>
<!-- Node15 -->
<g id="node15" class="node"><title>Node15</title>
<g id="a_node15"><a doxygen="/home/ekaszubski/workspace/semio-ai/libsemio/libsemio.tag:https://semio-ai.github.io/libsemio/" xlink:href="https://semio-ai.github.io/libsemio/von__mises_8h.html" target="_top" xlink:title="semio/math/von_mises.h">
<polygon fill="none" stroke="black" points="392.5,-73 392.5,-92 518.5,-92 518.5,-73 392.5,-73"/>
<text text-anchor="middle" x="455.5" y="-80" font-family="Helvetica,sans-Serif" font-size="10.00">semio/math/von_mises.h</text>
</a>
</g>
</g>
<!-- Node11&#45;&gt;Node15 -->
<g id="edge17" class="edge"><title>Node11&#45;&gt;Node15</title>
<path fill="none" stroke="midnightblue" d="M346.952,-206.935C353.553,-191.259 369.137,-157.417 389.5,-134 401.926,-119.711 418.959,-106.799 432.609,-97.6088"/>
<polygon fill="midnightblue" stroke="midnightblue" points="434.545,-100.525 441.008,-92.1297 430.72,-94.6621 434.545,-100.525"/>
</g>
<!-- Node16 -->
<g id="node16" class="node"><title>Node16</title>
<g id="a_node16"><a doxygen="/home/ekaszubski/workspace/semio-ai/libsemio/libsemio.tag:https://semio-ai.github.io/libsemio/" xlink:href="https://semio-ai.github.io/libsemio/wrapped__normal_8h.html" target="_top" xlink:title="semio/math/wrapped\l_normal.h">
<polygon fill="none" stroke="black" points="398,-134.5 398,-164.5 505,-164.5 505,-134.5 398,-134.5"/>
<text text-anchor="start" x="406" y="-152.5" font-family="Helvetica,sans-Serif" font-size="10.00">semio/math/wrapped</text>
<text text-anchor="middle" x="451.5" y="-141.5" font-family="Helvetica,sans-Serif" font-size="10.00">_normal.h</text>
</a>
</g>
</g>
<!-- Node11&#45;&gt;Node16 -->
<g id="edge19" class="edge"><title>Node11&#45;&gt;Node16</title>
<path fill="none" stroke="midnightblue" d="M358.065,-206.734C373.714,-197.316 399.076,-182.051 419.431,-169.801"/>
<polygon fill="midnightblue" stroke="midnightblue" points="421.327,-172.744 428.091,-164.589 417.718,-166.747 421.327,-172.744"/>
</g>
<!-- Node13&#45;&gt;Node12 -->
<g id="edge14" class="edge"><title>Node13&#45;&gt;Node12</title>
<path fill="none" stroke="midnightblue" d="M202.131,-72.7338C210.864,-63.8649 224.701,-49.8111 236.358,-37.9722"/>
<polygon fill="midnightblue" stroke="midnightblue" points="239.106,-40.1703 243.628,-30.589 234.118,-35.2591 239.106,-40.1703"/>
</g>
<!-- Node14&#45;&gt;Node12 -->
<g id="edge16" class="edge"><title>Node14&#45;&gt;Node12</title>
<path fill="none" stroke="midnightblue" d="M308.396,-67.396C299.708,-58.7079 288.405,-47.4046 278.658,-37.6576"/>
<polygon fill="midnightblue" stroke="midnightblue" points="281.122,-35.1727 271.577,-30.5765 276.173,-40.1225 281.122,-35.1727"/>
</g>
<!-- Node15&#45;&gt;Node12 -->
<g id="edge18" class="edge"><title>Node15&#45;&gt;Node12</title>
<path fill="none" stroke="midnightblue" d="M429.207,-72.8685C398.982,-62.9461 348.606,-46.4085 310.214,-33.8051"/>
<polygon fill="midnightblue" stroke="midnightblue" points="310.824,-30.3218 300.232,-30.5281 308.641,-36.9726 310.824,-30.3218"/>
</g>
<!-- Node16&#45;&gt;Node15 -->
<g id="edge20" class="edge"><title>Node16&#45;&gt;Node15</title>
<path fill="none" stroke="midnightblue" d="M452.368,-134.396C452.948,-124.963 453.719,-112.448 454.35,-102.189"/>
<polygon fill="midnightblue" stroke="midnightblue" points="457.844,-102.391 454.965,-92.1945 450.857,-101.961 457.844,-102.391"/>
</g>
<!-- Node18 -->
<g id="node18" class="node"><title>Node18</title>
<g id="a_node18"><a doxygen="/home/ekaszubski/workspace/semio-ai/libsemio/libsemio.tag:https://semio-ai.github.io/libsemio/" xlink:href="https://semio-ai.github.io/libsemio/humanoid__source_8h.html" target="_top" xlink:title="semio/recognition/humanoid\l_source.h">
<polygon fill="none" stroke="black" points="751.5,-268.5 751.5,-298.5 889.5,-298.5 889.5,-268.5 751.5,-268.5"/>
<text text-anchor="start" x="759.5" y="-286.5" font-family="Helvetica,sans-Serif" font-size="10.00">semio/recognition/humanoid</text>
<text text-anchor="middle" x="820.5" y="-275.5" font-family="Helvetica,sans-Serif" font-size="10.00">_source.h</text>
</a>
</g>
</g>
<!-- Node17&#45;&gt;Node18 -->
<g id="edge22" class="edge"><title>Node17&#45;&gt;Node18</title>
<path fill="none" stroke="midnightblue" d="M718.708,-335.396C737.617,-325.941 762.721,-313.39 783.266,-303.117"/>
<polygon fill="midnightblue" stroke="midnightblue" points="784.968,-306.179 792.347,-298.577 781.837,-299.918 784.968,-306.179"/>
</g>
<!-- Node20 -->
<g id="node20" class="node"><title>Node20</title>
<polygon fill="none" stroke="#bfbfbf" points="577.5,-274 577.5,-293 673.5,-293 673.5,-274 577.5,-274"/>
<text text-anchor="middle" x="625.5" y="-281" font-family="Helvetica,sans-Serif" font-size="10.00">ros/node_handle.h</text>
</g>
<!-- Node17&#45;&gt;Node20 -->
<g id="edge25" class="edge"><title>Node17&#45;&gt;Node20</title>
<path fill="none" stroke="midnightblue" d="M676.396,-335.396C666.06,-325.06 652.024,-311.024 641.309,-300.309"/>
<polygon fill="midnightblue" stroke="midnightblue" points="643.741,-297.791 634.195,-293.195 638.791,-302.741 643.741,-297.791"/>
</g>
<!-- Node21 -->
<g id="node21" class="node"><title>Node21</title>
<polygon fill="none" stroke="#bfbfbf" points="692,-274 692,-293 733,-293 733,-274 692,-274"/>
<text text-anchor="middle" x="712.5" y="-281" font-family="Helvetica,sans-Serif" font-size="10.00">string</text>
</g>
<!-- Node17&#45;&gt;Node21 -->
<g id="edge26" class="edge"><title>Node17&#45;&gt;Node21</title>
<path fill="none" stroke="midnightblue" d="M695.274,-335.396C698.5,-325.863 702.792,-313.182 706.285,-302.862"/>
<polygon fill="midnightblue" stroke="midnightblue" points="709.666,-303.789 709.557,-293.195 703.036,-301.545 709.666,-303.789"/>
</g>
<!-- Node18&#45;&gt;Node7 -->
<g id="edge23" class="edge"><title>Node18&#45;&gt;Node7</title>
<path fill="none" stroke="midnightblue" d="M784.263,-268.396C754.572,-256.84 712.994,-240.656 684.749,-229.663"/>
<polygon fill="midnightblue" stroke="midnightblue" points="685.945,-226.373 675.356,-226.007 683.406,-232.896 685.945,-226.373"/>
</g>
<!-- Node19 -->
<g id="node19" class="node"><title>Node19</title>
<g id="a_node19"><a doxygen="/home/ekaszubski/workspace/semio-ai/libsemio/libsemio.tag:https://semio-ai.github.io/libsemio/" xlink:href="https://semio-ai.github.io/libsemio/humanoid__source__impl_8h.html" target="_top" xlink:title="semio/recognition/humanoid\l_source_impl.h">
<polygon fill="none" stroke="black" points="751.5,-201.5 751.5,-231.5 889.5,-231.5 889.5,-201.5 751.5,-201.5"/>
<text text-anchor="start" x="759.5" y="-219.5" font-family="Helvetica,sans-Serif" font-size="10.00">semio/recognition/humanoid</text>
<text text-anchor="middle" x="820.5" y="-208.5" font-family="Helvetica,sans-Serif" font-size="10.00">_source_impl.h</text>
</a>
</g>
</g>
<!-- Node18&#45;&gt;Node19 -->
<g id="edge24" class="edge"><title>Node18&#45;&gt;Node19</title>
<path fill="none" stroke="midnightblue" d="M820.5,-268.396C820.5,-260.645 820.5,-250.812 820.5,-241.86"/>
<polygon fill="midnightblue" stroke="midnightblue" points="824,-241.576 820.5,-231.577 817,-241.577 824,-241.576"/>
</g>
</g>
</svg>
