<?xml version="1.0" encoding="UTF-8" standalone="no"?>
<!DOCTYPE svg PUBLIC "-//W3C//DTD SVG 1.1//EN"
 "http://www.w3.org/Graphics/SVG/1.1/DTD/svg11.dtd">
<!-- Generated by graphviz version 2.38.0 (20140413.2041)
 -->
<!-- Title: semio_humanoid_ros/nodes/semio_humanoid_server_node.cpp Pages: 1 -->
<!--zoomable 385 -->
<svg id="main" version="1.1" xmlns="http://www.w3.org/2000/svg" xmlns:xlink="http://www.w3.org/1999/xlink" xml:space="preserve" onload="init(evt)">
<style type="text/css"><![CDATA[
.edge:hover path { stroke: red; }
.edge:hover polygon { stroke: red; fill: red; }
]]></style>
<script type="text/javascript"><![CDATA[
var edges = document.getElementsByTagName('g');
if (edges && edges.length) {
  for (var i=0;i<edges.length;i++) {
    if (edges[i].id.substr(0,4)=='edge') {
      edges[i].setAttribute('class','edge');
    }
  }
}
]]></script>
        <defs>
                <circle id="rim" cx="0" cy="0" r="7"/>
                <circle id="rim2" cx="0" cy="0" r="3.5"/>
                <g id="zoomPlus">
                        <use xlink:href="#rim" fill="#404040">
                                <set attributeName="fill" to="#808080" begin="zoomplus.mouseover" end="zoomplus.mouseout"/>
                        </use>
                        <path d="M-4,0h8M0,-4v8" fill="none" stroke="white" stroke-width="1.5" pointer-events="none"/>
                </g>
                <g id="zoomMin">
                        <use xlink:href="#rim" fill="#404040">
                                <set attributeName="fill" to="#808080" begin="zoomminus.mouseover" end="zoomminus.mouseout"/>
                        </use>
                        <path d="M-4,0h8" fill="none" stroke="white" stroke-width="1.5" pointer-events="none"/>
                </g>
                <g id="dirArrow">
                        <path fill="none" stroke="white" stroke-width="1.5" d="M0,-3.0v7 M-2.5,-0.5L0,-3.0L2.5,-0.5"/>
                </g>
               <g id="resetDef">
                       <use xlink:href="#rim2" fill="#404040">
                               <set attributeName="fill" to="#808080" begin="reset.mouseover" end="reset.mouseout"/>
                       </use>
               </g>
        </defs>

<script type="text/javascript">
var viewWidth = 646;
var viewHeight = 385;
var sectionId = 'dynsection-0';
</script>
<script xlink:href="svgpan.js"/>
<svg id="graph" class="graph">
<g id="viewport">
<title>semio_humanoid_ros/nodes/semio_humanoid_server_node.cpp</title>
<!-- Node1 -->
<g id="node1" class="node"><title>Node1</title>
<polygon fill="#bfbfbf" stroke="black" points="155,-335.5 155,-376.5 277,-376.5 277,-335.5 155,-335.5"/>
<text text-anchor="start" x="163" y="-364.5" font-family="Helvetica,sans-Serif" font-size="10.00">semio_humanoid_ros</text>
<text text-anchor="start" x="163" y="-353.5" font-family="Helvetica,sans-Serif" font-size="10.00">/nodes/semio_humanoid</text>
<text text-anchor="middle" x="216" y="-342.5" font-family="Helvetica,sans-Serif" font-size="10.00">_server_node.cpp</text>
</g>
<!-- Node2 -->
<g id="node2" class="node"><title>Node2</title>
<polygon fill="none" stroke="#bfbfbf" points="29.5,-274 29.5,-293 84.5,-293 84.5,-274 29.5,-274"/>
<text text-anchor="middle" x="57" y="-281" font-family="Helvetica,sans-Serif" font-size="10.00">ros/ros.h</text>
</g>
<!-- Node1&#45;&gt;Node2 -->
<g id="edge1" class="edge"><title>Node1&#45;&gt;Node2</title>
<path fill="none" stroke="midnightblue" d="M171.71,-335.362C144.251,-323.187 109.769,-307.898 85.8163,-297.277"/>
<polygon fill="midnightblue" stroke="midnightblue" points="87.1216,-294.027 76.5612,-293.173 84.2842,-300.426 87.1216,-294.027"/>
</g>
<!-- Node3 -->
<g id="node3" class="node"><title>Node3</title>
<g id="a_node3"><a xlink:href="humanoid__source__adapter_8h.html" target="_top" xlink:title="semio/ros/humanoid\l_source_adapter.h">
<polygon fill="none" stroke="black" points="103,-268.5 103,-298.5 207,-298.5 207,-268.5 103,-268.5"/>
<text text-anchor="start" x="111" y="-286.5" font-family="Helvetica,sans-Serif" font-size="10.00">semio/ros/humanoid</text>
<text text-anchor="middle" x="155" y="-275.5" font-family="Helvetica,sans-Serif" font-size="10.00">_source_adapter.h</text>
</a>
</g>
</g>
<!-- Node1&#45;&gt;Node3 -->
<g id="edge2" class="edge"><title>Node1&#45;&gt;Node3</title>
<path fill="none" stroke="midnightblue" d="M199.008,-335.362C191.265,-326.412 182.065,-315.78 174.085,-306.557"/>
<polygon fill="midnightblue" stroke="midnightblue" points="176.642,-304.164 167.452,-298.892 171.349,-308.744 176.642,-304.164"/>
</g>
<!-- Node12 -->
<g id="node12" class="node"><title>Node12</title>
<g id="a_node12"><a xlink:href="humanoid__sink__adapter_8h.html" target="_top" xlink:title="semio/ros/humanoid\l_sink_adapter.h">
<polygon fill="none" stroke="black" points="225,-268.5 225,-298.5 329,-298.5 329,-268.5 225,-268.5"/>
<text text-anchor="start" x="233" y="-286.5" font-family="Helvetica,sans-Serif" font-size="10.00">semio/ros/humanoid</text>
<text text-anchor="middle" x="277" y="-275.5" font-family="Helvetica,sans-Serif" font-size="10.00">_sink_adapter.h</text>
</a>
</g>
</g>
<!-- Node1&#45;&gt;Node12 -->
<g id="edge11" class="edge"><title>Node1&#45;&gt;Node12</title>
<path fill="none" stroke="midnightblue" d="M232.992,-335.362C240.735,-326.412 249.935,-315.78 257.915,-306.557"/>
<polygon fill="midnightblue" stroke="midnightblue" points="260.651,-308.744 264.548,-298.892 255.358,-304.164 260.651,-308.744"/>
</g>
<!-- Node14 -->
<g id="node14" class="node"><title>Node14</title>
<g id="a_node14"><a xlink:href="humanoid__sink__ros_8h.html" target="_top" xlink:title="semio/ros/humanoid\l_sink_ros.h">
<polygon fill="none" stroke="black" points="347,-268.5 347,-298.5 451,-298.5 451,-268.5 347,-268.5"/>
<text text-anchor="start" x="355" y="-286.5" font-family="Helvetica,sans-Serif" font-size="10.00">semio/ros/humanoid</text>
<text text-anchor="middle" x="399" y="-275.5" font-family="Helvetica,sans-Serif" font-size="10.00">_sink_ros.h</text>
</a>
</g>
</g>
<!-- Node1&#45;&gt;Node14 -->
<g id="edge16" class="edge"><title>Node1&#45;&gt;Node14</title>
<path fill="none" stroke="midnightblue" d="M266.976,-335.362C293.89,-324.993 326.666,-312.366 352.828,-302.288"/>
<polygon fill="midnightblue" stroke="midnightblue" points="354.431,-305.421 362.505,-298.56 351.915,-298.889 354.431,-305.421"/>
</g>
<!-- Node4 -->
<g id="node4" class="node"><title>Node4</title>
<g id="a_node4"><a doxygen="/home/ekaszubski/workspace/semio-ai/libsemio/libsemio.tag:https://semio-ai.github.io/libsemio/" xlink:href="https://semio-ai.github.io/libsemio/humanoid__source_8h.html" target="_top" xlink:title="semio/recognition/humanoid\l_source.h">
<polygon fill="none" stroke="black" points="0,-201.5 0,-231.5 138,-231.5 138,-201.5 0,-201.5"/>
<text text-anchor="start" x="8" y="-219.5" font-family="Helvetica,sans-Serif" font-size="10.00">semio/recognition/humanoid</text>
<text text-anchor="middle" x="69" y="-208.5" font-family="Helvetica,sans-Serif" font-size="10.00">_source.h</text>
</a>
</g>
</g>
<!-- Node3&#45;&gt;Node4 -->
<g id="edge3" class="edge"><title>Node3&#45;&gt;Node4</title>
<path fill="none" stroke="midnightblue" d="M136.339,-268.396C124.506,-259.452 109.006,-247.737 95.8608,-237.802"/>
<polygon fill="midnightblue" stroke="midnightblue" points="97.7124,-234.814 87.6243,-231.577 93.4916,-240.398 97.7124,-234.814"/>
</g>
<!-- Node10 -->
<g id="node10" class="node"><title>Node10</title>
<polygon fill="none" stroke="#bfbfbf" points="216,-207 216,-226 312,-226 312,-207 216,-207"/>
<text text-anchor="middle" x="264" y="-214" font-family="Helvetica,sans-Serif" font-size="10.00">ros/node_handle.h</text>
</g>
<!-- Node3&#45;&gt;Node10 -->
<g id="edge9" class="edge"><title>Node3&#45;&gt;Node10</title>
<path fill="none" stroke="midnightblue" d="M178.651,-268.396C197.184,-257.344 222.814,-242.061 241.14,-231.132"/>
<polygon fill="midnightblue" stroke="midnightblue" points="242.938,-234.135 249.734,-226.007 239.353,-228.123 242.938,-234.135"/>
</g>
<!-- Node11 -->
<g id="node11" class="node"><title>Node11</title>
<polygon fill="none" stroke="#bfbfbf" points="156.5,-207 156.5,-226 197.5,-226 197.5,-207 156.5,-207"/>
<text text-anchor="middle" x="177" y="-214" font-family="Helvetica,sans-Serif" font-size="10.00">string</text>
</g>
<!-- Node3&#45;&gt;Node11 -->
<g id="edge10" class="edge"><title>Node3&#45;&gt;Node11</title>
<path fill="none" stroke="midnightblue" d="M159.774,-268.396C163,-258.863 167.292,-246.182 170.785,-235.862"/>
<polygon fill="midnightblue" stroke="midnightblue" points="174.166,-236.789 174.057,-226.195 167.536,-234.545 174.166,-236.789"/>
</g>
<!-- Node5 -->
<g id="node5" class="node"><title>Node5</title>
<g id="a_node5"><a doxygen="/home/ekaszubski/workspace/semio-ai/libsemio/libsemio.tag:https://semio-ai.github.io/libsemio/" xlink:href="https://semio-ai.github.io/libsemio/humanoid_8h.html" target="_top" xlink:title="semio/humanoid.h">
<polygon fill="none" stroke="black" points="253,-140 253,-159 349,-159 349,-140 253,-140"/>
<text text-anchor="middle" x="301" y="-147" font-family="Helvetica,sans-Serif" font-size="10.00">semio/humanoid.h</text>
</a>
</g>
</g>
<!-- Node4&#45;&gt;Node5 -->
<g id="edge4" class="edge"><title>Node4&#45;&gt;Node5</title>
<path fill="none" stroke="midnightblue" d="M119.055,-201.476C161.454,-189.597 221.453,-172.787 260.783,-161.768"/>
<polygon fill="midnightblue" stroke="midnightblue" points="261.874,-165.097 270.559,-159.029 259.986,-158.356 261.874,-165.097"/>
</g>
<!-- Node9 -->
<g id="node9" class="node"><title>Node9</title>
<g id="a_node9"><a doxygen="/home/ekaszubski/workspace/semio-ai/libsemio/libsemio.tag:https://semio-ai.github.io/libsemio/" xlink:href="https://semio-ai.github.io/libsemio/humanoid__source__impl_8h.html" target="_top" xlink:title="semio/recognition/humanoid\l_source_impl.h">
<polygon fill="none" stroke="black" points="0,-134.5 0,-164.5 138,-164.5 138,-134.5 0,-134.5"/>
<text text-anchor="start" x="8" y="-152.5" font-family="Helvetica,sans-Serif" font-size="10.00">semio/recognition/humanoid</text>
<text text-anchor="middle" x="69" y="-141.5" font-family="Helvetica,sans-Serif" font-size="10.00">_source_impl.h</text>
</a>
</g>
</g>
<!-- Node4&#45;&gt;Node9 -->
<g id="edge8" class="edge"><title>Node4&#45;&gt;Node9</title>
<path fill="none" stroke="midnightblue" d="M69,-201.396C69,-193.645 69,-183.812 69,-174.86"/>
<polygon fill="midnightblue" stroke="midnightblue" points="72.5001,-174.576 69,-164.577 65.5001,-174.577 72.5001,-174.576"/>
</g>
<!-- Node6 -->
<g id="node6" class="node"><title>Node6</title>
<g id="a_node6"><a doxygen="/home/ekaszubski/workspace/semio-ai/libsemio/libsemio.tag:https://semio-ai.github.io/libsemio/" xlink:href="https://semio-ai.github.io/libsemio/top__n__list_8h.html" target="_top" xlink:title="semio/recognition/top\l_n_list.h">
<polygon fill="none" stroke="black" points="179,-67.5 179,-97.5 289,-97.5 289,-67.5 179,-67.5"/>
<text text-anchor="start" x="187" y="-85.5" font-family="Helvetica,sans-Serif" font-size="10.00">semio/recognition/top</text>
<text text-anchor="middle" x="234" y="-74.5" font-family="Helvetica,sans-Serif" font-size="10.00">_n_list.h</text>
</a>
</g>
</g>
<!-- Node5&#45;&gt;Node6 -->
<g id="edge5" class="edge"><title>Node5&#45;&gt;Node6</title>
<path fill="none" stroke="midnightblue" d="M291.964,-139.734C282.735,-130.78 268.06,-116.543 255.785,-104.635"/>
<polygon fill="midnightblue" stroke="midnightblue" points="258.137,-102.04 248.523,-97.589 253.263,-107.064 258.137,-102.04"/>
</g>
<!-- Node8 -->
<g id="node8" class="node"><title>Node8</title>
<g id="a_node8"><a doxygen="/home/ekaszubski/workspace/semio-ai/libsemio/libsemio.tag:https://semio-ai.github.io/libsemio/" xlink:href="https://semio-ai.github.io/libsemio/humanoid__impl_8h.html" target="_top" xlink:title="semio/humanoid_impl.h">
<polygon fill="none" stroke="black" points="307.5,-73 307.5,-92 426.5,-92 426.5,-73 307.5,-73"/>
<text text-anchor="middle" x="367" y="-80" font-family="Helvetica,sans-Serif" font-size="10.00">semio/humanoid_impl.h</text>
</a>
</g>
</g>
<!-- Node5&#45;&gt;Node8 -->
<g id="edge7" class="edge"><title>Node5&#45;&gt;Node8</title>
<path fill="none" stroke="midnightblue" d="M309.901,-139.734C320.391,-129.403 338.024,-112.037 350.925,-99.3315"/>
<polygon fill="midnightblue" stroke="midnightblue" points="353.571,-101.638 358.24,-92.1273 348.659,-96.6505 353.571,-101.638"/>
</g>
<!-- Node7 -->
<g id="node7" class="node"><title>Node7</title>
<g id="a_node7"><a doxygen="/home/ekaszubski/workspace/semio-ai/libsemio/libsemio.tag:https://semio-ai.github.io/libsemio/" xlink:href="https://semio-ai.github.io/libsemio/top__n__list__impl_8h.html" target="_top" xlink:title="semio/recognition/top\l_n_list_impl.h">
<polygon fill="none" stroke="black" points="179,-0.5 179,-30.5 289,-30.5 289,-0.5 179,-0.5"/>
<text text-anchor="start" x="187" y="-18.5" font-family="Helvetica,sans-Serif" font-size="10.00">semio/recognition/top</text>
<text text-anchor="middle" x="234" y="-7.5" font-family="Helvetica,sans-Serif" font-size="10.00">_n_list_impl.h</text>
</a>
</g>
</g>
<!-- Node6&#45;&gt;Node7 -->
<g id="edge6" class="edge"><title>Node6&#45;&gt;Node7</title>
<path fill="none" stroke="midnightblue" d="M234,-67.396C234,-59.6448 234,-49.8122 234,-40.8601"/>
<polygon fill="midnightblue" stroke="midnightblue" points="237.5,-40.5765 234,-30.5765 230.5,-40.5765 237.5,-40.5765"/>
</g>
<!-- Node12&#45;&gt;Node10 -->
<g id="edge14" class="edge"><title>Node12&#45;&gt;Node10</title>
<path fill="none" stroke="midnightblue" d="M274.179,-268.396C272.293,-258.963 269.79,-246.448 267.738,-236.189"/>
<polygon fill="midnightblue" stroke="midnightblue" points="271.132,-235.314 265.739,-226.195 264.268,-236.687 271.132,-235.314"/>
</g>
<!-- Node12&#45;&gt;Node11 -->
<g id="edge15" class="edge"><title>Node12&#45;&gt;Node11</title>
<path fill="none" stroke="midnightblue" d="M255.301,-268.396C238.532,-257.496 215.429,-242.479 198.667,-231.584"/>
<polygon fill="midnightblue" stroke="midnightblue" points="200.38,-228.522 190.088,-226.007 196.565,-234.391 200.38,-228.522"/>
</g>
<!-- Node13 -->
<g id="node13" class="node"><title>Node13</title>
<g id="a_node13"><a doxygen="/home/ekaszubski/workspace/semio-ai/libsemio/libsemio.tag:https://semio-ai.github.io/libsemio/" xlink:href="https://semio-ai.github.io/libsemio/humanoid__sink_8h.html" target="_top" xlink:title="semio/recognition/humanoid\l_sink.h">
<polygon fill="none" stroke="black" points="330,-201.5 330,-231.5 468,-231.5 468,-201.5 330,-201.5"/>
<text text-anchor="start" x="338" y="-219.5" font-family="Helvetica,sans-Serif" font-size="10.00">semio/recognition/humanoid</text>
<text text-anchor="middle" x="399" y="-208.5" font-family="Helvetica,sans-Serif" font-size="10.00">_sink.h</text>
</a>
</g>
</g>
<!-- Node12&#45;&gt;Node13 -->
<g id="edge12" class="edge"><title>Node12&#45;&gt;Node13</title>
<path fill="none" stroke="midnightblue" d="M303.472,-268.396C321.058,-259.026 344.353,-246.615 363.536,-236.395"/>
<polygon fill="midnightblue" stroke="midnightblue" points="365.4,-239.368 372.579,-231.577 362.108,-233.19 365.4,-239.368"/>
</g>
<!-- Node13&#45;&gt;Node5 -->
<g id="edge13" class="edge"><title>Node13&#45;&gt;Node5</title>
<path fill="none" stroke="midnightblue" d="M377.735,-201.396C361.301,-190.496 338.66,-175.479 322.234,-164.584"/>
<polygon fill="midnightblue" stroke="midnightblue" points="324.094,-161.618 313.826,-159.007 320.225,-167.451 324.094,-161.618"/>
</g>
<!-- Node14&#45;&gt;Node10 -->
<g id="edge18" class="edge"><title>Node14&#45;&gt;Node10</title>
<path fill="none" stroke="midnightblue" d="M369.707,-268.396C346.229,-257.092 313.557,-241.361 290.772,-230.39"/>
<polygon fill="midnightblue" stroke="midnightblue" points="292.197,-227.192 281.668,-226.007 289.16,-233.499 292.197,-227.192"/>
</g>
<!-- Node14&#45;&gt;Node13 -->
<g id="edge17" class="edge"><title>Node14&#45;&gt;Node13</title>
<path fill="none" stroke="midnightblue" d="M399,-268.396C399,-260.645 399,-250.812 399,-241.86"/>
<polygon fill="midnightblue" stroke="midnightblue" points="402.5,-241.576 399,-231.577 395.5,-241.577 402.5,-241.576"/>
</g>
<!-- Node15 -->
<g id="node15" class="node"><title>Node15</title>
<polygon fill="none" stroke="#bfbfbf" points="486,-207 486,-226 638,-226 638,-207 486,-207"/>
<text text-anchor="middle" x="562" y="-214" font-family="Helvetica,sans-Serif" font-size="10.00">semio_msgs_ros/Humanoids.h</text>
</g>
<!-- Node14&#45;&gt;Node15 -->
<g id="edge19" class="edge"><title>Node14&#45;&gt;Node15</title>
<path fill="none" stroke="midnightblue" d="M434.369,-268.396C463.222,-256.89 503.577,-240.797 531.137,-229.807"/>
<polygon fill="midnightblue" stroke="midnightblue" points="532.675,-232.962 540.667,-226.007 530.082,-226.46 532.675,-232.962"/>
</g>
</g>
</svg>
        <g id="navigator" transform="translate(0 0)" fill="#404254">
                <rect fill="#f2f5e9" fill-opacity="0.5" stroke="#606060" stroke-width=".5" x="0" y="0" width="60" height="60"/>
                <use id="zoomplus" xlink:href="#zoomPlus" x="17" y="9" onmousedown="handleZoom(evt,'in')"/>
                <use id="zoomminus" xlink:href="#zoomMin" x="42" y="9" onmousedown="handleZoom(evt,'out')"/>
                <use id="reset" xlink:href="#resetDef" x="30" y="36" onmousedown="handleReset()"/>
                <g id="arrowUp" xlink:href="#dirArrow" transform="translate(30 24)" onmousedown="handlePan(0,-1)">
                  <use xlink:href="#rim" fill="#404040">
                        <set attributeName="fill" to="#808080" begin="arrowUp.mouseover" end="arrowUp.mouseout"/>
                  </use>
                  <path fill="none" stroke="white" stroke-width="1.5" d="M0,-3.0v7 M-2.5,-0.5L0,-3.0L2.5,-0.5"/>
                </g>
                <g id="arrowRight" xlink:href="#dirArrow" transform="rotate(90) translate(36 -43)" onmousedown="handlePan(1,0)">
                  <use xlink:href="#rim" fill="#404040">
                        <set attributeName="fill" to="#808080" begin="arrowRight.mouseover" end="arrowRight.mouseout"/>
                  </use>
                  <path fill="none" stroke="white" stroke-width="1.5" d="M0,-3.0v7 M-2.5,-0.5L0,-3.0L2.5,-0.5"/>
                </g>
                <g id="arrowDown" xlink:href="#dirArrow" transform="rotate(180) translate(-30 -48)" onmousedown="handlePan(0,1)">
                  <use xlink:href="#rim" fill="#404040">
                        <set attributeName="fill" to="#808080" begin="arrowDown.mouseover" end="arrowDown.mouseout"/>
                  </use>
                  <path fill="none" stroke="white" stroke-width="1.5" d="M0,-3.0v7 M-2.5,-0.5L0,-3.0L2.5,-0.5"/>
                </g>
                <g id="arrowLeft" xlink:href="#dirArrow" transform="rotate(270) translate(-36 17)" onmousedown="handlePan(-1,0)">
                  <use xlink:href="#rim" fill="#404040">
                        <set attributeName="fill" to="#808080" begin="arrowLeft.mouseover" end="arrowLeft.mouseout"/>
                  </use>
                  <path fill="none" stroke="white" stroke-width="1.5" d="M0,-3.0v7 M-2.5,-0.5L0,-3.0L2.5,-0.5"/>
                </g>
        </g>
        <svg viewBox="0 0 15 15" width="100%" height="30px" preserveAspectRatio="xMaxYMin meet">
         <g id="arrow_out" transform="scale(0.3 0.3)">
          <a xlink:href="semio__humanoid__server__node_8cpp__incl_org.svg" target="_base">
           <rect id="button" ry="5" rx="5" y="6" x="6" height="38" width="38"
                fill="#f2f5e9" fill-opacity="0.5" stroke="#606060" stroke-width="1.0"/>
           <path id="arrow"
             d="M 11.500037,31.436501 C 11.940474,20.09759 22.043105,11.32322 32.158766,21.979434 L 37.068811,17.246167 C 37.068811,17.246167 37.088388,32 37.088388,32 L 22.160133,31.978069 C 22.160133,31.978069 26.997745,27.140456 26.997745,27.140456 C 18.528582,18.264221 13.291696,25.230495 11.500037,31.436501 z"
             style="fill:#404040;"/>
          </a>
         </g>
        </svg>
</svg>
